<?xml version="1.0" standalone="no"?>
<!DOCTYPE svg PUBLIC "-//W3C//DTD SVG 1.1//EN" "http://www.w3.org/Graphics/SVG/1.1/DTD/svg11.dtd" >
<svg xmlns="http://www.w3.org/2000/svg" xmlns:xlink="http://www.w3.org/1999/xlink" version="1.1">
<metadata>
Created by FontForge 20170924 at Thu Mar 15 14:57:49 2018
 By www-data
(c) 2018 zcool.All rights reserved.
</metadata>
<defs>
<font id="zcoolwenyiti" horiz-adv-x="1000" >
  <font-face 
    font-family="zcoolwenyiti"
    font-weight="400"
    font-stretch="normal"
    units-per-em="1000"
    panose-1="2 0 6 3 0 0 0 0 0 0"
    ascent="800"
    descent="-200"
    x-height="349"
    cap-height="571"
    bbox="-10 -399 1000 771"
    underline-thickness="50"
    underline-position="-450"
    unicode-range="U+000D-FFE5"
  />
<missing-glyph horiz-adv-x="277" 
 />
    <glyph glyph-name="uniFEE5" unicode="&#x646;" arabic-form="isolated" 
d="M735 10h-184v-127h-82v127h-170v83h170v103h-170v84h150l-183 256l67 48l178 -249l191 251l65 -49l-195 -257h163v-84h-184v-103h184v-83z" />
    <glyph glyph-name=".notdef" horiz-adv-x="277" 
 />
    <glyph glyph-name=".null" horiz-adv-x="0" 
 />
    <glyph glyph-name="nonmarkingreturn" unicode="&#xd;" horiz-adv-x="300" 
 />
    <glyph glyph-name="NULL" horiz-adv-x="0" 
 />
    <glyph glyph-name="NULL" horiz-adv-x="0" 
 />
    <glyph glyph-name="space" unicode=" " horiz-adv-x="300" 
 />
    <glyph glyph-name="exclam" unicode="!" horiz-adv-x="309" 
d="M199 102h-78v431h78v-431v0zM199 -67h-78v80h78v-80v0z" />
    <glyph glyph-name="quotedbl" unicode="&#x22;" horiz-adv-x="348" 
d="M152 394h-79v176h79v-176v0zM274 394h-79v176h79v-176v0z" />
    <glyph glyph-name="numbersign" unicode="#" horiz-adv-x="623" 
d="M217 -49l-77 12l90 569l78 -12l-91 -569v0zM397 -49l-77 12l90 569l78 -12l-91 -569v0zM540 300h-429v79h429v-79v0zM507 119h-430v78h430v-78v0z" />
    <glyph glyph-name="dollar" unicode="$" horiz-adv-x="642" 
d="M359 -88h-79v671h79v-671zM336 -39q-33 0 -67.5 8t-65.5 24.5t-56 40.5t-38 57l72 30q9 -22 28 -38t43.5 -26.5t51 -14.5t50.5 -1q8 1 20 3.5t24 8t21 14.5t12 24q6 29 -25 51t-104 53q-35 14 -68.5 30t-59.5 36q-22 18 -34 36.5t-17 36.5t-4 34.5t4 30.5q12 51 55 84.5
t106 41.5q38 5 74.5 -1.5t68.5 -22t58 -40.5t43 -58l-69 -37q-14 27 -34.5 44t-43 26t-45.5 11.5t-42 -0.5q-15 -2 -30 -6.5t-28.5 -13t-23 -20t-13.5 -27.5q-4 -18 2.5 -32t23 -27t43.5 -26t64 -28q33 -14 65 -28.5t58 -34.5q21 -17 33.5 -34t17.5 -34t5.5 -32.5
t-2.5 -28.5q-10 -48 -48.5 -77.5t-98.5 -34.5q-7 -1 -13 -1.5t-13 -0.5z" />
    <glyph glyph-name="percent" unicode="%" horiz-adv-x="997" 
d="M315 -100l-64 45l433 624l65 -45zM333 292q-26 0 -49.5 10t-40.5 27.5t-27 40.5t-10 50t10 50.5t27 41t40.5 27.5t49.5 10q27 0 50 -10t40.5 -27.5t27.5 -41t10 -50.5t-10 -50t-27.5 -40.5t-40.5 -27.5t-50 -10zM333 470q-20 0 -34.5 -14.5t-14.5 -35.5q0 -20 14.5 -35
t34.5 -15t34.5 15t14.5 35q0 21 -14.5 35.5t-34.5 14.5zM650 -88q-27 0 -50 10t-40.5 27.5t-27.5 40.5t-10 50t10 50t27.5 40.5t40.5 27.5t50 10q26 0 49 -10t40.5 -27.5t27.5 -40.5t10 -50t-10 -50t-27.5 -40.5t-40.5 -27.5t-49 -10zM650 90q-20 0 -34.5 -15t-14.5 -35
q0 -21 14.5 -35.5t34.5 -14.5t34.5 14.5t14.5 35.5q0 20 -14.5 35t-34.5 15z" />
    <glyph glyph-name="ampersand" unicode="&#x26;" horiz-adv-x="782" 
d="M344 -97q-66 0 -115.5 24.5t-75.5 69.5q-23 42 -21 90t31 93q17 30 43.5 56t56.5 51q-25 38 -39.5 68.5t-18.5 56.5q-9 50 2.5 82t26.5 49q20 25 51 38t66 13q62 0 99.5 -39t37.5 -102q0 -27 -9.5 -51.5t-26 -46.5t-38 -42.5t-44.5 -39.5q35 -45 76.5 -91t83.5 -88
q4 5 7 10.5t7 11.5q16 30 24 62t10 59t1.5 44.5l-0.5 17.5l78 7q0 -2 1 -23.5t-2 -54.5t-13 -73t-31 -78q-11 -20 -25 -39q21 -21 39.5 -38t32.5 -31l-52 -58q-2 2 -22 20t-51 49q-39 -34 -84 -54.5t-90 -22.5h-16zM309 224q-25 -21 -45.5 -41.5t-31.5 -40.5l-2 -3
q-17 -26 -19.5 -53t10.5 -49q17 -29 52 -43t83 -12q30 2 61.5 16t59.5 38q-14 14 -28.5 29t-29.5 31q-32 35 -59.5 67t-50.5 61zM351 516q-37 0 -57 -23q-19 -24 -12 -67q6 -36 42 -89q35 29 60.5 58t25.5 58q0 30 -15 46.5t-44 16.5z" />
    <glyph glyph-name="quotesingle" unicode="'" horiz-adv-x="200" 
d="M147 392h-79v163h79v-163v0z" />
    <glyph glyph-name="parenleft" unicode="(" horiz-adv-x="374" 
d="M210 -120q-59 109 -76.5 232t5.5 254q9 49 20.5 89.5t22.5 69t19 45t9 17.5l70 -37l-7.5 -14.5t-17.5 -41t-21 -63t-18 -81.5q-42 -236 64 -433z" />
    <glyph glyph-name="parenright" unicode=")" horiz-adv-x="374" 
d="M179 -120l-69 37q42 78 58.5 155t16.5 147.5t-11.5 130.5t-25.5 104t-26 69.5t-12 26.5l69 37q1 -1 9 -17.5t19 -45t23 -69t21 -89.5q23 -131 5 -254t-77 -232z" />
    <glyph glyph-name="asterisk" unicode="*" horiz-adv-x="449" 
d="M265 179l-221 70l24 75l119 -37v123h78v-231v0zM299 64l-73 102l-73 -102l-64 46l137 190l137 -190l-64 -46v0zM238 196l-24 74l170 54l24 -75l-170 -53v0z" />
    <glyph glyph-name="plus" unicode="+" horiz-adv-x="668" 
d="M370 21h-79v442h79v-442v0zM542 202h-423v79h423v-79v0z" />
    <glyph glyph-name="comma" unicode="," horiz-adv-x="297" 
d="M131 -54l-60 19l53 163l59 -19l-52 -163v0z" />
    <glyph glyph-name="hyphen" unicode="-" horiz-adv-x="631" 
d="M430 235h-217v79h217v-79v0z" />
    <glyph glyph-name="period" unicode="." horiz-adv-x="297" 
d="M177 -52h-74v79h74v-79v0z" />
    <glyph glyph-name="slash" unicode="/" horiz-adv-x="398" 
d="M114 -98l-73 30l253 624l73 -29l-253 -625v0z" />
    <glyph glyph-name="zero.001" unicode="0" horiz-adv-x="598" 
d="M296 -111q-53 0 -95 25t-71.5 71.5t-45.5 112.5t-16 149q0 73 13.5 134.5t39.5 109.5q31 55 76 84.5t99 29.5q53 0 95.5 -25t72 -71.5t45.5 -112.5t16 -149q0 -80 -16.5 -146t-46.5 -113t-72.5 -73t-93.5 -26zM296 526q-39 0 -67 -24t-46.5 -63.5t-27.5 -89.5t-9 -102
q0 -51 8 -100.5t26 -89.5t46.5 -64.5t69.5 -24.5q39 0 67.5 24.5t47 64.5t27.5 89.5t9 100.5t-8 100.5t-26 89.5t-46.5 64.5t-70.5 24.5z" />
    <glyph glyph-name="one" unicode="1" horiz-adv-x="597" 
d="M371 -106h-78v590l-83 -76l-53 58l135 124h79v-696v0z" />
    <glyph glyph-name="two" unicode="2" horiz-adv-x="597" 
d="M528 -93h-460v86l313 300q48 49 46 108q0 26 -10.5 50t-30.5 42q-39 36 -94 33q-61 -3 -100 -48q-10 -12 -18 -28.5t-14 -33t-10 -30.5t-5 -22l-78 15q1 3 4.5 19.5t11.5 39t20 47.5t30 45q29 33 69.5 52.5t85.5 21.5q43 2 82 -11.5t69 -41.5q32 -29 49 -67.5t18 -80.5
q1 -45 -17 -88t-53 -78h-1l-261 -251h354v-79z" />
    <glyph glyph-name="three" unicode="3" horiz-adv-x="600" 
d="M282 238v79q38 0 63.5 6.5t44.5 20.5q41 31 44 76q3 42 -30 77q-18 18 -42.5 28.5t-50.5 12t-51.5 -5.5t-46.5 -23q-33 -24 -41 -60l-77 18q15 63 70 104q32 24 70.5 35.5t80.5 9.5q42 -3 79 -19t65 -44q28 -29 41.5 -65t10.5 -74q-2 -39 -21.5 -73t-52.5 -59
q-20 -15 -40.5 -24t-41 -13.5t-39.5 -5.5t-35 -1zM302 -109q-41 0 -79 12.5t-70 35.5q-39 29 -62 69t-25 85l79 4q1 -28 15 -52t39 -43q25 -18 56 -26t61.5 -5.5t59.5 15t50 34.5q39 40 34 93q-2 26 -16 50t-38 41q-23 17 -55 25.5t-69 8.5h-81v79h81q50 0 93.5 -13
t76.5 -37q38 -28 60 -65.5t26 -81.5q5 -43 -9.5 -82.5t-46.5 -71.5q-30 -32 -71 -51t-88 -23q-5 0 -10.5 -0.5t-10.5 -0.5z" />
    <glyph glyph-name="four" unicode="4" horiz-adv-x="597" 
d="M451 -106h-78v146h-319v83l304 478h93v-482h96v-79h-96v-146v0zM145 119h228v358l-228 -358v0z" />
    <glyph glyph-name="five.001" unicode="5" horiz-adv-x="599" 
d="M299 -122q-37 0 -73 12t-66 36q-36 29 -57 68.5t-23 84.5l79 4q2 -28 14.5 -52.5t35.5 -42.5q22 -18 49 -25.5t54 -5.5t52 14.5t44 33.5q20 22 28.5 50.5t6.5 58.5q-5 60 -50 98q-18 15 -47.5 25t-84.5 2l-93 -48l-60 48l72 337h306v-78h-243l-42 -202l35 18l6 1
q64 11 113 0.5t89 -43.5q34 -29 54 -68t24 -84q3 -46 -11 -89.5t-44 -77.5q-32 -37 -76 -56t-92 -19z" />
    <glyph glyph-name="six.001" unicode="6" horiz-adv-x="599" 
d="M177 168l-69 37l209 382l69 -38zM307 -128q-46 0 -86.5 18t-70.5 49.5t-47.5 74t-17.5 90.5t17.5 90t47.5 73.5t70.5 50t86.5 18.5t86.5 -18.5t70.5 -50t47.5 -73.5t17.5 -90t-17.5 -90.5t-47.5 -74t-70.5 -49.5t-86.5 -18zM307 257q-30 0 -56 -12t-45.5 -33t-30.5 -49
t-11 -59q0 -32 11 -59.5t30.5 -48.5t45.5 -33t56 -12t56 12t45.5 33t30.5 48.5t11 59.5q0 31 -11 59t-30.5 49t-45.5 33t-56 12z" />
    <glyph glyph-name="seven.001" unicode="7" horiz-adv-x="595" 
d="M281 -116l-73 31v-1q1 4 10.5 31.5t24 72t33 102t39 120.5t41.5 128.5t41 125.5h-308v79h416l-17 -52q-19 -58 -41 -127t-45 -139t-44 -135.5t-38 -117t-27.5 -83.5t-11.5 -35z" />
    <glyph glyph-name="eight" unicode="8" horiz-adv-x="595" 
d="M298 238q-38 0 -71.5 14t-58.5 38t-39.5 56t-14.5 68q0 37 14.5 69t39.5 56t58.5 38t71.5 14t71.5 -14t58.5 -38t39.5 -56t14.5 -69q0 -36 -14.5 -68t-39.5 -56t-58.5 -38t-71.5 -14zM298 512q-22 0 -41 -7.5t-33.5 -21t-22.5 -31.5t-8 -38t8 -37.5t22.5 -31t33.5 -21
t41 -7.5t41 7.5t33 21t22.5 31t8.5 37.5t-8.5 38t-22.5 31.5t-33 21t-41 7.5zM298 -127q-48 0 -90.5 17.5t-74 47.5t-50 70.5t-18.5 86.5t18.5 86.5t50 70.5t74 47.5t90.5 17.5t90.5 -17.5t74 -47.5t50 -70.5t18.5 -86.5t-18.5 -86.5t-50 -70.5t-74 -47.5t-90.5 -17.5z
M298 238q-32 0 -60 -11t-49 -30.5t-33.5 -45.5t-12.5 -56t12.5 -56t33.5 -45.5t49 -30.5t60 -11t60 11t49 30.5t33.5 45.5t12.5 56t-12.5 56t-33.5 45.5t-49 30.5t-60 11z" />
    <glyph glyph-name="nine" unicode="9" horiz-adv-x="597" 
d="M281 -140l-70 35l215 426l70 -35zM290 137q-45 0 -85 18t-70 49t-47 73t-17 89t17 88.5t47 72.5t70 49t85 18t85 -18t69.5 -49t47 -72.5t17.5 -88.5t-17.5 -89t-47 -73t-69.5 -49t-85 -18zM290 516q-29 0 -55 -12t-45 -32t-30 -47.5t-11 -58.5t11 -58.5t30 -47.5t45 -32
t55 -12t54.5 12t44.5 32t30 47.5t11 58.5t-11 58.5t-30 47.5t-44.5 32t-54.5 12z" />
    <glyph glyph-name="colon" unicode=":" horiz-adv-x="292" 
d="M187 323h-78v82h78v-82v0zM187 103h-78v81h78v-81v0z" />
    <glyph glyph-name="semicolon" unicode=";" horiz-adv-x="290" 
d="M193 152h-79v82h79v-82zM146 -150l-75 24l53 163l74 -24z" />
    <glyph glyph-name="less" unicode="&#x3c;" horiz-adv-x="666" 
d="M489 24l-298 229l298 229l48 -62l-217 -167l217 -167l-48 -62v0z" />
    <glyph glyph-name="equal" unicode="=" horiz-adv-x="651" 
d="M535 313h-418v78h418v-78v0zM535 127h-418v79h418v-79v0z" />
    <glyph glyph-name="greater" unicode="&#x3e;" horiz-adv-x="666" 
d="M226 24l-48 62l217 167l-217 167l48 62l298 -229l-298 -229v0z" />
    <glyph glyph-name="question" unicode="?" horiz-adv-x="620" 
d="M352 17h-78v114q0 48 24.5 87t67.5 61q30 15 47.5 43t17.5 62q0 50 -36 86q-18 17 -40 25.5t-47 6.5q-46 -2 -78.5 -34.5t-34.5 -79.5q-1 -11 1 -22.5t6 -22.5l-73 -28q-13 35 -13 76q1 38 16 72t40.5 59.5t59.5 41t73 17.5q41 2 78 -12t66 -43q29 -28 45 -64.5t16 -77.5
q0 -56 -29 -103t-80 -72q-23 -12 -36 -32.5t-13 -45.5v-114zM352 -101h-78v81h78v-81z" />
    <glyph glyph-name="at" unicode="@" 
d="M469 42q-57 0 -95 44q-23 27 -32.5 64t-3.5 79q5 37 21 69t39.5 56t52 37.5t59.5 13.5q28 0 52.5 -11.5t42.5 -32.5q23 -27 32.5 -64t3.5 -79q-5 -37 -21 -69t-39 -56t-52 -37.5t-60 -13.5zM510 326q-16 0 -31.5 -8.5t-28.5 -23.5t-22 -34.5t-12 -41.5q-4 -24 1 -45
t16 -35q15 -17 36 -17q16 0 31.5 8.5t28.5 23.5t22.5 34.5t12.5 41.5q3 24 -1.5 45.5t-16.5 35.5q-15 16 -36 16zM500 -113q-68 0 -128 27t-104.5 73.5t-70.5 108.5t-26 133t26 133.5t70.5 109t104.5 73.5t128 27t127.5 -27t104 -73.5t70.5 -109t26 -132.5q0 -4 -0.5 -16.5
t-3.5 -30t-9.5 -37t-19.5 -37.5q-9 -14 -20 -26t-25 -20.5t-32 -12.5t-42 -2q-48 5 -76 49q-10 16 -17.5 41t-8 61.5t8.5 85.5t32 114l74 -26q-21 -60 -28.5 -102t-7.5 -69.5t5 -42t8 -20.5q7 -11 17 -13q15 -2 24.5 2.5t23.5 25.5q6 9 9.5 19.5t6 21t3 19.5t0.5 14v1
q0 55 -19.5 103t-53.5 84t-79.5 56.5t-97.5 20.5t-97.5 -20.5t-79.5 -56.5t-53.5 -84t-19.5 -103q0 -54 19.5 -102t53.5 -84t79.5 -56.5t97.5 -20.5q43 0 84 15t74 44l51 -59q-44 -38 -98 -58.5t-111 -20.5z" />
    <glyph glyph-name="A" unicode="A" horiz-adv-x="691" 
d="M573 -115l-242 610h-76v79h129l262 -660l-73 -29v0zM110 -117l-73 29l253 635l73 -29l-253 -635v0zM526 91h-354v79h354v-79v0z" />
    <glyph glyph-name="B" unicode="B" horiz-adv-x="608" 
d="M352 -115h-271v644h79v-260h192q43 0 81 -15t66.5 -41.5t45 -61.5t16.5 -74q0 -40 -16.5 -75t-45 -61t-66.5 -41t-81 -15zM160 -37h192q27 0 50.5 9t41.5 24.5t28 36t10 44.5q0 23 -10 43.5t-28 36t-41.5 24.5t-50.5 9h-192v-227zM319 190h-230v79h230q27 0 51 9t41.5 24
t28 35.5t10.5 44.5q0 23 -10.5 43.5t-28 36t-41.5 24.5t-51 9h-263v79h263q43 0 81.5 -15t66.5 -41t44.5 -61t16.5 -75t-16.5 -75t-44.5 -61t-66.5 -41t-81.5 -15z" />
    <glyph glyph-name="C" unicode="C" horiz-adv-x="651" 
d="M357 -100q-60 0 -113 26.5t-92.5 73t-62.5 108t-23 132.5q0 70 23 132t62.5 108t92.5 73t113 27q69 0 129.5 -35t102.5 -100l-66 -43q-30 48 -73.5 73.5t-92.5 25.5q-44 0 -82.5 -20.5t-67.5 -56t-46 -83t-17 -101.5t17 -101.5t46 -83.5t67.5 -56.5t82.5 -20.5
q49 0 92.5 26t73.5 74l66 -43q-42 -65 -102.5 -100t-129.5 -35z" />
    <glyph glyph-name="D" unicode="D" horiz-adv-x="669" 
d="M295 -115h-192v610h-29v79h221q56 0 109.5 -19.5t95.5 -55.5q19 -16 38.5 -39.5t35.5 -56.5t26.5 -76t10.5 -98q0 -54 -10.5 -97t-26.5 -76t-35.5 -57t-38.5 -40q-42 -35 -95.5 -54.5t-109.5 -19.5zM181 -37h114q33 0 74 12t77.5 42t61 81.5t24.5 130.5t-24.5 130.5
t-61 81.5t-77.5 42t-74 12h-114v-532z" />
    <glyph glyph-name="E" unicode="E" horiz-adv-x="630" 
d="M566 -115h-470v644h78v-566h392v-78v0zM507 190h-404v79h404v-79v0zM559 495h-489v79h489v-79v0z" />
    <glyph glyph-name="F" unicode="F" horiz-adv-x="598" 
d="M153 -115h-79v686h79v-686v0zM486 190h-405v79h405v-79v0zM538 495h-490v79h490v-79v0z" />
    <glyph glyph-name="G" unicode="G" horiz-adv-x="653" 
d="M347 -100q-60 0 -113 26.5t-92.5 73t-62.5 108t-23 132.5q0 70 23 132t62.5 108t92.5 73t113 27q70 0 130.5 -35t102.5 -100l-66 -43q-31 48 -74 73.5t-93 25.5q-44 0 -82.5 -20.5t-67.5 -56t-45.5 -83t-16.5 -101.5t16.5 -101.5t45.5 -83.5t67.5 -56.5t82.5 -20.5
q47 0 88.5 23.5t72.5 66.5v133h-220v78h298v-234l-6 -10q-42 -65 -102.5 -100t-130.5 -35z" />
    <glyph glyph-name="H" unicode="H" horiz-adv-x="636" 
d="M171 -112h-78v604h-30v79h108v-683v0zM568 -112h-78v683h78v-683v0zM529 204h-429v79h429v-79v0z" />
    <glyph glyph-name="I" unicode="I" horiz-adv-x="297" 
d="M190 -112h-79v683h79v-683v0z" />
    <glyph glyph-name="J" unicode="J" horiz-adv-x="380" 
d="M125 -123l-49 61q15 12 32 28.5t31.5 34t24 35t9.5 30.5v425h-41v79h119v-504q0 -32 -16.5 -63t-38.5 -57t-42.5 -44.5t-28.5 -24.5z" />
    <glyph glyph-name="K" unicode="K" horiz-adv-x="623" 
d="M486 -112l-270 348l63 48l269 -348l-62 -48v0zM190 130l-58 53l353 390l58 -52l-353 -391v0zM191 -112h-78v603h-22v79h100v-682v0z" />
    <glyph glyph-name="L" unicode="L" horiz-adv-x="590" 
d="M509 -115h-427v606h-20v79h98v-607h349v-78v0z" />
    <glyph glyph-name="M" unicode="M" horiz-adv-x="717" 
d="M635 -115h-79v609h-5l-158 -410h-70l-157 410h-6v-609h-78v609h-22v79h160l138 -362l139 362h138v-688z" />
    <glyph glyph-name="N" unicode="N" horiz-adv-x="640" 
d="M172 -111h-79v649h79v-649v0zM566 -110h-73l-326 609h-96v78h143l273 -509v517h79v-695v0z" />
    <glyph glyph-name="O" unicode="O" horiz-adv-x="663" 
d="M327 -103q-57 0 -107.5 26.5t-89.5 77.5q-37 48 -56.5 108.5t-19.5 127.5t19.5 128t56.5 109q39 51 89.5 77.5t107.5 26.5q56 0 106.5 -26.5t89.5 -77.5q37 -48 56.5 -109t19.5 -128t-19.5 -127.5t-56.5 -108.5q-39 -51 -89.5 -77.5t-106.5 -26.5zM327 499
q-40 0 -75.5 -20.5t-62 -56t-42 -83.5t-15.5 -102t15.5 -101.5t42 -83t62 -56t75.5 -20.5t75.5 20.5t61.5 56t41.5 83t15.5 101.5t-15.5 102t-41.5 83.5t-61.5 56t-75.5 20.5z" />
    <glyph glyph-name="P" unicode="P" horiz-adv-x="579" 
d="M302 132h-152v-243h-78v610h-26v78h256q43 0 82.5 -18t69.5 -48.5t48 -71t18 -84.5q0 -45 -18 -85t-48 -71t-69.5 -49t-82.5 -18zM302 211q25 0 49.5 11t44.5 30t32.5 45.5t12.5 57.5t-12.5 57t-32.5 45.5t-44.5 30.5t-49.5 11h-152v-288h152z" />
    <glyph glyph-name="Q" unicode="Q" horiz-adv-x="645" 
d="M317 -103q-56 0 -106.5 26.5t-89.5 77.5q-37 48 -56.5 108.5t-19.5 127.5t19.5 128t56.5 109q39 51 89.5 77.5t106.5 26.5q57 0 107.5 -26.5t89.5 -77.5q37 -48 56.5 -109t19.5 -128t-19.5 -127.5t-56.5 -108.5q-39 -51 -89.5 -77.5t-107.5 -26.5zM317 499
q-40 0 -75.5 -20.5t-61.5 -56t-41.5 -83.5t-15.5 -102t15.5 -101.5t41.5 -83t61.5 -56t75.5 -20.5t76 20.5t62 56t41.5 83t15.5 101.5t-15.5 102t-41.5 83.5t-62 56t-76 20.5zM515 -95l-159 151l54 57l159 -151z" />
    <glyph glyph-name="R" unicode="R" horiz-adv-x="577" 
d="M154 -111h-79v644h79v-644zM451 -111l-224 330v53h86q27 0 51 9t41.5 24.5t28 36t10.5 44.5q0 23 -10.5 43.5t-28 36t-41.5 24.5t-51 9h-264v78h264q43 0 81 -15t66.5 -41t45 -61t16.5 -74q0 -37 -14 -69.5t-39 -58t-58 -42.5t-72 -21l177 -262z" />
    <glyph glyph-name="S" unicode="S" horiz-adv-x="567" 
d="M279 -125q-8 0 -16.5 0.5t-16.5 1.5q-27 3 -57.5 13.5t-58 32.5t-50.5 57.5t-36 88.5l76 19q30 -120 135 -133q27 -3 55.5 1t53 16t41.5 31.5t22 45.5q3 19 1 42t-19 46t-53.5 45t-102.5 39q-53 14 -93.5 43t-62.5 69q-36 65 -13 137q19 60 68 95.5t116 38.5q33 1 69 -8
t69.5 -28.5t61.5 -51t46 -75.5l-73 -29q-13 33 -33.5 55t-43.5 35t-47.5 18.5t-45.5 4.5q-42 -2 -71.5 -23t-40.5 -56q-12 -41 7 -75q14 -25 42 -44.5t65 -29.5q82 -22 130.5 -53t73 -66.5t29 -72.5t-1.5 -70q-7 -39 -28.5 -69t-52.5 -50t-68.5 -30.5t-75.5 -10.5z" />
    <glyph glyph-name="T" unicode="T" horiz-adv-x="626" 
d="M352 -106h-79v644h79v-644v0zM572 499h-519v78h519v-78v0z" />
    <glyph glyph-name="U" unicode="U" horiz-adv-x="640" 
d="M332 -112q-51 0 -96.5 16.5t-79.5 45t-53.5 67t-19.5 82.5v396h-26v79h105v-475q0 -27 13.5 -51.5t36.5 -42.5t54 -28.5t66 -10.5t66 10.5t54 28.5t36.5 42.5t13.5 51.5v476h78v-476q0 -44 -19.5 -82.5t-53 -67t-79 -45t-96.5 -16.5z" />
    <glyph glyph-name="V" unicode="V" horiz-adv-x="655" 
d="M377 -112h-108l-189 609h-28v78h86l184 -596l186 596h85v-78h-27z" />
    <glyph glyph-name="W" unicode="W" horiz-adv-x="775" 
d="M611 -112h-93l-136 414l-135 -414h-93l-82 609h-30v78h99l72 -537l136 414h67l136 -414l72 537h99v-78h-31z" />
    <glyph glyph-name="X" unicode="X" horiz-adv-x="663" 
d="M555 -116l-476 613h-31v78h70l499 -642l-62 -49v0zM81 -116l-62 49l499 642h70v-78h-31l-476 -613v0z" />
    <glyph glyph-name="Y" unicode="Y" horiz-adv-x="648" 
d="M358 -106h-79v293h1l-215 312h-27v78h68l212 -309l213 309h69v-78h-28l-214 -312v-293z" />
    <glyph glyph-name="Z" unicode="Z" horiz-adv-x="587" 
d="M520 -111h-479v71l381 537h-363v78h450v-91l-367 -516h378v-79v0z" />
    <glyph glyph-name="bracketleft" unicode="[" horiz-adv-x="301" 
d="M241 -109h-174v702h174v-78h-95v-546h95v-78v0z" />
    <glyph glyph-name="backslash" unicode="\" horiz-adv-x="379" 
d="M285 -108l-252 657l73 28l253 -656l-74 -29v0z" />
    <glyph glyph-name="bracketright" unicode="]" horiz-adv-x="304" 
d="M245 -110h-175v79h96v545h-96v79h175v-703v0z" />
    <glyph glyph-name="asciicircum" unicode="^" horiz-adv-x="522" 
d="M130 165l-72 32l173 381l72 -1l155 -381l-72 -30l-121 296l-135 -297v0z" />
    <glyph glyph-name="underscore" unicode="_" horiz-adv-x="589" 
d="M497 -91h-416v79h416v-79v0z" />
    <glyph glyph-name="grave" unicode="`" horiz-adv-x="355" 
d="M155 351l-71 41l118 203l71 -41l-118 -203v0z" />
    <glyph glyph-name="a" unicode="a" horiz-adv-x="460" 
d="M427 -104h-82v34q-6 -3 -11 -7q-27 -16 -64 -27q-23 -8 -43.5 -10.5t-37.5 -2.5q-23 0 -40.5 4t-30.5 9q-28 11 -47.5 31t-28.5 45q-5 12 -7 33t7.5 46.5t36 52.5t79.5 51q28 13 62 23t64 17t50 11q5 1 9 1l-2 8q-3 19 -17 33q-25 23 -82 20q-31 -2 -58 -12.5t-47 -22.5
t-32 -22l-12 -10l-57 59q1 1 16.5 14.5t42.5 29.5t63.5 30t79.5 16q93 5 142 -43q18 -17 27.5 -36t14 -37t5 -32.5t0.5 -22.5v-283zM304 117q-27 -6 -57.5 -15t-54.5 -20q-10 -5 -25 -13t-27.5 -19t-19.5 -24t-2 -27q2 -6 10 -14.5t23.5 -14.5t39 -6.5t56.5 9.5
q26 8 45.5 19t31.5 22q12 10 21 21v90q-18 -3 -41 -8z" />
    <glyph glyph-name="b" unicode="b" horiz-adv-x="484" 
d="M237 -103q-58 0 -108 31v-40h-79v612h-47v79h126v-264q50 31 108 31q44 0 83 -17.5t68 -48t46 -71.5t17 -87q0 -47 -17 -87.5t-46 -71.5t-68 -48.5t-83 -17.5zM237 -24q28 0 52.5 11.5t43 31t29 46.5t10.5 57t-10.5 56.5t-29 46t-43 31t-52.5 11.5q-32 0 -60.5 -15
t-47.5 -43v-176q19 -26 47.5 -41.5t60.5 -15.5z" />
    <glyph glyph-name="c" unicode="c" horiz-adv-x="430" 
d="M238 -112q-42 0 -79.5 18t-65.5 49t-44.5 72.5t-16.5 88.5t16.5 88.5t44.5 72t65.5 48.5t79.5 18q49 0 92 -23.5t73 -67.5l-65 -44q-39 56 -100 56q-26 0 -49.5 -11.5t-40.5 -31.5t-27 -47t-10 -58t10 -58t27 -47.5t40.5 -32t49.5 -11.5q61 0 100 56l65 -44
q-30 -44 -73 -67.5t-92 -23.5z" />
    <glyph glyph-name="d" unicode="d" horiz-adv-x="473" 
d="M250 -103q-44 0 -83 17.5t-68 48.5t-46 71.5t-17 87.5q0 46 17 87t46 71.5t68 48t83 17.5q59 0 112 -34v196h-47v78h126v-691h-79v36q-51 -34 -112 -34zM250 267q-28 0 -52.5 -11.5t-43 -31t-29 -46t-10.5 -56.5t10.5 -57t29 -46.5t43 -31t52.5 -11.5q34 0 63 17t49 46
v164q-20 30 -49 47t-63 17z" />
    <glyph glyph-name="e" unicode="e" horiz-adv-x="462" 
d="M235 -113q-46 0 -83.5 17t-64 48t-41 75t-14.5 98q0 40 13.5 79.5t39.5 70.5t62.5 50t83.5 19q42 0 78 -16t62 -44.5t40.5 -68t14.5 -86.5v-41h-310q3 -20 9.5 -41t20 -38.5t35.5 -29t54 -11.5q18 0 35.5 8t32.5 19t26.5 22.5t16.5 18.5l64 -51q-3 -4 -17.5 -19.5
t-38 -33t-54 -31.5t-65.5 -14zM231 263q-44 0 -72.5 -28t-39.5 -66h221q-9 38 -35.5 66t-73.5 28z" />
    <glyph glyph-name="f" unicode="f" horiz-adv-x="332" 
d="M297 196h-107v-312h-83v312h-76v82h76v94q0 41 15.5 77t42.5 63t63.5 42.5t77.5 15.5v-82q-24 0 -45 -9t-37 -25t-25 -37t-9 -45v-94h107v-82z" />
    <glyph glyph-name="g" unicode="g" horiz-adv-x="462" 
d="M205 -310q-44 0 -83.5 14t-62.5 47q-31 45 -11 97q10 26 32 48q-8 10 -16 25q-14 33 -1 66q5 13 13.5 24t18.5 20q-29 26 -45.5 61t-16.5 77q0 39 15 72.5t41 59t61 40t75 14.5q34 0 64 -10.5t55 -29.5h94v-81h-33q5 -15 8.5 -31.5t3.5 -33.5q0 -39 -15 -72.5t-41 -59
t-61 -40t-75 -14.5q-26 0 -48 6q-16 -8 -27.5 -18t-11.5 -15v-2q3 -8 14 -11.5t25.5 -5t31.5 -1t33 0.5q9 1 18 1h18q20 0 46 -3.5t51 -14.5q19 -9 31 -20.5t18.5 -23t8.5 -22t2 -18.5q0 -27 -16 -49.5t-40.5 -40.5t-52.5 -30t-51 -18q-37 -8 -70 -8zM225 274
q-23 0 -43 -8.5t-35 -22.5t-24 -33t-9 -41t9 -41t24 -33.5t35 -22.5t43 -8t43.5 8t35.5 22.5t24 33.5t9 41t-9 41t-24 33t-35.5 22.5t-43.5 8.5zM165 -142q-14 -6 -25.5 -16.5t-15.5 -22.5q-3 -8 -2 -12.5t4 -8.5q7 -11 21.5 -17t32.5 -8.5t38 -1.5t38 6q18 4 35 12
t30.5 16.5t22.5 17t11 13.5q-2 5 -21.5 13t-55.5 8h-16.5t-17.5 -1h-39t-40 2z" />
    <glyph glyph-name="h" unicode="h" horiz-adv-x="497" 
d="M137 -100l-81 1v603h-23v80h104v-290q26 20 56.5 31.5t65.5 11.5q42 0 78.5 -16.5t64 -45.5t43.5 -67.5t16 -81.5v-225h-81v225q0 27 -9.5 51t-26 41.5t-38.5 28t-47 10.5t-47.5 -10.5t-39 -28t-26 -41.5t-9.5 -51v-226z" />
    <glyph glyph-name="i" unicode="i" horiz-adv-x="153" 
d="M117 -101h-82v417h82v-417zM117 390h-82v89h82v-89z" />
    <glyph glyph-name="j" unicode="j" horiz-adv-x="215" 
d="M170 391h-82v89h82v-89zM6 -321h-16v82h16q35 0 58.5 24.5t23.5 59.5v471h82v-471q0 -34 -13 -64.5t-35.5 -53t-52 -35.5t-63.5 -13z" />
    <glyph glyph-name="k" unicode="k" horiz-adv-x="497" 
d="M132 -99h-79v602h-21v79h100v-450l283 230l50 -61l-182 -147l186 -207l-58 -53l-189 210l-90 -73v-130z" />
    <glyph glyph-name="l" unicode="l" horiz-adv-x="204" 
d="M140 -108q-2 1 -17.5 11.5t-33.5 30.5t-32.5 48.5t-14.5 64.5v457h-26v82h109v-539q0 -19 9 -34.5t19.5 -26.5t19.5 -17.5l9 -6.5z" />
    <glyph glyph-name="m" unicode="m" horiz-adv-x="648" 
d="M450 338q35 0 65 -13t51.5 -36t34 -54t12.5 -68v-265h-85v265q0 37 -22 61t-56 24q-33 0 -55 -24t-22 -61v-265h-85v265q0 37 -22 61t-55 24q-34 0 -55.5 -24t-21.5 -61v-265h-86v347h-15v86h101v-16q35 19 77 19q36 0 66.5 -14t53.5 -39q22 25 52.5 39t66.5 14z" />
    <glyph glyph-name="n" unicode="n" horiz-adv-x="484" 
d="M451 -96h-85v247q0 21 -9 39.5t-24 32.5t-34.5 22.5t-41.5 8.5q-21 0 -40.5 -8t-34.5 -21.5t-24.5 -31.5t-10.5 -38v-251h-85v347h-30v85h115v-30q24 16 52 25t58 9q39 0 74.5 -15t62 -41t42 -60.5t15.5 -72.5v-247z" />
    <glyph glyph-name="o" unicode="o" horiz-adv-x="481" 
d="M240 351q45 0 84 -18.5t68.5 -50t46.5 -73.5t17 -90t-17 -90.5t-46.5 -74t-68.5 -50t-84 -18.5t-84 18.5t-68.5 50t-46.5 74t-17 90.5t17 90t46.5 73.5t68.5 50t84 18.5zM240 -30q27 0 51 11.5t42 32t28.5 47.5t10.5 58q0 30 -10.5 57t-28.5 47.5t-42 32t-51 11.5
t-51 -11.5t-42 -32t-28.5 -47.5t-10.5 -57q0 -31 10.5 -58t28.5 -47.5t42 -32t51 -11.5z" />
    <glyph glyph-name="p" unicode="p" horiz-adv-x="476" 
d="M238 -88q-58 0 -108 31v-253h-79v590h-47v79h126v-29q50 31 108 31q44 0 83 -17.5t68 -48t46 -71.5t17 -87q0 -47 -17 -87.5t-46 -71.5t-68 -48.5t-83 -17.5zM238 -9q28 0 52.5 11.5t43 31t29 46.5t10.5 57t-10.5 56.5t-29 46t-43 31t-52.5 11.5q-32 0 -60 -15t-48 -42
v-177q19 -27 47.5 -42t60.5 -15z" />
    <glyph glyph-name="q" unicode="q" horiz-adv-x="446" 
d="M234 -90q-44 0 -83 17.5t-68 48.5t-46 71.5t-17 87.5q0 46 17 87t46 71.5t68 48t83 17.5q58 0 108 -31v29h79v-669h-79v253q-51 -31 -108 -31zM234 280q-28 0 -52.5 -11.5t-43 -31t-29 -46t-10.5 -56.5t10.5 -57t29 -46.5t43 -31t52.5 -11.5q32 0 60 15t48 42v177
q-20 27 -48 42t-60 15z" />
    <glyph glyph-name="r" unicode="r" horiz-adv-x="234" 
d="M116 -102h-82v456h82v-35q24 17 53.5 27t61.5 10v-81q-22 0 -42 -8t-35 -21.5t-25 -32.5t-13 -40v-275z" />
    <glyph glyph-name="s" unicode="s" horiz-adv-x="435" 
d="M218 -110h-13.5t-12.5 1q-62 6 -102.5 38.5t-57.5 89.5l75 23q20 -66 93 -73q21 -2 41 0.5t36 9.5t27 16.5t14 20.5q1 5 1 15.5t-10.5 22.5t-36 25t-75.5 24q-45 10 -78.5 32t-50.5 52q-23 44 -6 91q16 41 54.5 65t89.5 26q26 1 54.5 -4t55 -18t49 -34t36.5 -51l-71 -34
q-9 17 -22.5 29.5t-30 20t-34 11t-33.5 2.5q-22 -1 -44 -10.5t-30 -29.5q-5 -13 1 -27q8 -14 28.5 -26t47.5 -18q88 -19 133 -54q32 -24 44.5 -56.5t4.5 -69.5q-6 -28 -23.5 -49t-42 -34.5t-53.5 -20t-58 -6.5z" />
    <glyph glyph-name="t" unicode="t" horiz-adv-x="352" 
d="M323 258h-117v-163q0 -118 82 -118v-78q-75 0 -118 52.5t-43 143.5v163h-110v78h110v51h-23v78h102v-129h117v-78z" />
    <glyph glyph-name="u" unicode="u" horiz-adv-x="454" 
d="M235 -89q-37 0 -70 14.5t-57.5 40t-38.5 60t-14 73.5v173h-18v79h97v-252q0 -23 8 -43t21.5 -35t32 -23.5t39.5 -8.5q20 0 38 8t32 22.5t22 33.5t9 41v254h79v-429h-79v25q-22 -16 -47.5 -24.5t-53.5 -8.5z" />
    <glyph glyph-name="v" unicode="v" horiz-adv-x="468" 
d="M275 -89h-84l-139 361h-23v79h77l126 -331l127 331h77v-79h-23z" />
    <glyph glyph-name="w" unicode="w" horiz-adv-x="592" 
d="M486 -89h-83l-108 240l-107 -240h-82l-66 361h-20v79h86l55 -308l105 235h59l105 -235l56 308h85v-79h-20z" />
    <glyph glyph-name="x" unicode="x" horiz-adv-x="498" 
d="M80 -95l-57 54l171 181l-124 132h-20v79h54l145 -153l145 153h54v-79h-20l-125 -132l172 -181l-57 -54l-169 178z" />
    <glyph glyph-name="y" unicode="y" horiz-adv-x="513" 
d="M162 -329h-69v79h21l92 185l-156 335h-19v79h70l149 -324l161 324h70v-79h-21z" />
    <glyph glyph-name="z" unicode="z" horiz-adv-x="417" 
d="M386 -104h-355v65l239 311h-225v79h325v-78l-229 -298h245v-79z" />
    <glyph glyph-name="braceleft" unicode="{" horiz-adv-x="374" 
d="M299 -126h-28q-22 0 -41 8t-33.5 22.5t-22.5 33.5t-8 41v186q0 10 -5 18q-12 14 -25 15h-3h-11v78h11q16 0 28 15q5 8 5 19v186q0 21 8 40t22.5 33.5t33.5 22.5t41 8h28v-78h-28q-11 0 -18.5 -7.5t-7.5 -18.5v-186q0 -35 -20 -63q-2 -3 -3.5 -5.5t-3.5 -4.5l7 -9
q20 -29 20 -63v-186q0 -11 7.5 -19t18.5 -8h28v-78z" />
    <glyph glyph-name="bar" unicode="|" horiz-adv-x="256" 
d="M171 -127h-87v726h87v-726z" />
    <glyph glyph-name="braceright" unicode="}" horiz-adv-x="374" 
d="M131 -126h-27v78h27q11 0 18.5 8t7.5 19v186q0 34 20 63q16 23 40 35.5t52 12.5h11v-78h-11q-17 0 -27 -15q-6 -8 -6 -18v-186q0 -22 -8.5 -41t-22.5 -33.5t-33 -22.5t-41 -8zM280 198h-11q-28 0 -52 13t-40 36q-20 28 -20 63v186q0 11 -7.5 18.5t-18.5 7.5h-27v78h27
q22 0 41 -8t33 -22.5t22.5 -33.5t8.5 -40v-186q0 -12 6 -19q10 -15 27 -15h11v-78z" />
    <glyph glyph-name="asciitilde" unicode="~" horiz-adv-x="760" 
d="M506 159q-73 0 -142 46q-95 64 -181 26q-17 -7 -29.5 -15t-21.5 -16q-11 -9 -18 -17l-61 49q0 1 7 8.5t19.5 18.5t31 23t41.5 22q21 9 48.5 15t60 4t69.5 -14t78 -39q81 -56 175 -15q18 8 32.5 17t25 17t16.5 13.5l6 5.5l56 -54q0 -1 -8 -8.5t-21.5 -18t-32.5 -22.5
t-43 -22q-54 -24 -108 -24z" />
    <glyph glyph-name="currency" unicode="&#xa4;" 
d="M691 -3l-55 54q-24 -18 -52 -29q-43 -18 -91 -18q-49 0 -93 18q-28 11 -52 30l-51 -52l-48 48l51 52q-19 25 -30 53q-18 45 -18 91t18 90q11 29 30 54l-54 54l48 48l54 -54q24 18 52 30q44 18 93 18q48 0 91 -18q28 -12 53 -30l52 52l48 -48l-52 -52q18 -25 30 -53
q18 -43 18 -91t-18 -92q-12 -29 -30 -53l54 -54zM493 416q-35 0 -66.5 -13t-55.5 -37q-25 -26 -37.5 -57.5t-12.5 -64.5t12.5 -65t37.5 -57q24 -25 55.5 -37.5t66.5 -12.5t66 12.5t55 37.5q51 51 51 122t-51 122q-24 24 -55 37t-66 13z" />
    <glyph glyph-name="yen" unicode="&#xa5;" horiz-adv-x="545" 
d="M487 10h-184v-127h-82v127h-170v83h170v103h-170v84h150l-183 256l67 48l178 -249l191 251l65 -49l-195 -257h163v-84h-184v-103h184v-83z" />
    <glyph glyph-name="section" unicode="&#xa7;" 
d="M493 119q-32 0 -61 6.5t-52 18.5q-63 32 -63 91h67q0 -20 32 -34.5t77 -14.5q19 0 38 3.5t34 10t24.5 16t9.5 21.5q0 23 -31.5 37.5t-82.5 30.5q-28 8 -57 18.5t-53 26t-40 37.5t-16 54q-1 51 31.5 87t89.5 48q33 7 68.5 4t68 -15.5t59 -35t40.5 -54.5l-62 -26
q-8 19 -26 33t-40.5 22t-47 9.5t-46.5 -3.5q-10 -2 -22 -6t-22.5 -12t-17.5 -20.5t-7 -30.5q1 -25 33.5 -40.5t86.5 -32.5q27 -8 53.5 -17.5t48.5 -22.5q59 -35 59 -91q0 -26 -12.5 -48t-35.5 -37.5t-55 -24t-70 -8.5zM498 -84q-34 0 -67 8.5t-60 25.5t-45.5 42.5
t-24.5 59.5l65 11q4 -22 18.5 -38t35.5 -26t46 -14t49 -2q31 3 56.5 15.5t25.5 35.5t-31.5 37.5t-82.5 30.5q-28 9 -57.5 19.5t-53.5 26t-39.5 37t-15.5 53.5q-1 59 45.5 94.5t126.5 37.5l1 -67q-7 0 -24.5 -1.5t-36 -8t-32.5 -19.5t-14 -35q0 -26 33 -41t87 -32
q26 -8 52.5 -17.5t49.5 -22.5q59 -35 59 -92q0 -48 -39.5 -80t-104.5 -37q-5 -1 -11 -1h-11z" />
    <glyph glyph-name="dieresis" unicode="&#xa8;" 
d="M465 619l-28 -50h-57l-28 50l28 49h57l28 -49v0v0zM628 619l-28 -50h-56l-28 50l28 49h56l28 -49v0v0z" />
    <glyph glyph-name="degree" unicode="&#xb0;" horiz-adv-x="998" 
d="M176 422q-34 0 -58 24t-24 58q0 35 24 59t58 24t58 -24t24 -59q0 -34 -24 -58t-58 -24zM176 554q-20 0 -34.5 -14.5t-14.5 -35.5q0 -20 14.5 -34.5t34.5 -14.5t34.5 14.5t14.5 34.5q0 21 -14.5 35.5t-34.5 14.5z" />
    <glyph glyph-name="plusminus" unicode="&#xb1;" 
d="M525 72h-79v473h79v-473v0zM722 269h-473v79h473v-79v0zM722 -63h-473v79h473v-79v0z" />
    <glyph glyph-name="periodcentered" unicode="&#xb7;" 
d="M575 241q0 -31 -22 -53t-53 -22q-32 0 -53.5 22t-21.5 53q0 32 21.5 54t53.5 22q31 0 53 -22t22 -54z" />
    <glyph glyph-name="Aacute" unicode="&#xc1;" horiz-adv-x="500" 
 />
    <glyph glyph-name="multiply" unicode="&#xd7;" 
d="M291 -10l-56 56l452 452l56 -56l-452 -452v0zM687 -10l-452 452l56 56l452 -452l-56 -56v0z" />
    <glyph glyph-name="divide" unicode="&#xf7;" 
d="M754 208h-551v79h551v-79zM542 424q0 -26 -18.5 -45t-44.5 -19q-27 0 -45.5 19t-18.5 45t18.5 45t45.5 19q26 0 44.5 -19t18.5 -45zM542 72q0 -27 -18.5 -45.5t-44.5 -18.5q-27 0 -45.5 18.5t-18.5 45.5q0 26 18.5 44.5t45.5 18.5q26 0 44.5 -18.5t18.5 -44.5z" />
    <glyph glyph-name="florin" unicode="&#x192;" horiz-adv-x="500" 
 />
    <glyph glyph-name="caron" unicode="&#x2c7;" 
d="M530 563l-80 1l-85 105l48 39l67 -82h21l73 83l47 -41l-91 -105v0z" />
    <glyph glyph-name="endash" unicode="&#x2013;" horiz-adv-x="998" 
d="M734 278h-435v66h435v-66z" />
    <glyph glyph-name="emdash" unicode="&#x2014;" 
d="M977 269h-937v62h937v-62v0z" />
    <glyph glyph-name="quoteleft" unicode="&#x2018;" 
d="M711 395l-75 24l52 162l75 -24l-52 -162v0z" />
    <glyph glyph-name="quoteright" unicode="&#x2019;" 
d="M282 395l-75 24l52 162l75 -24l-52 -162v0z" />
    <glyph glyph-name="quotesinglbase" unicode="&#x201a;" horiz-adv-x="500" 
d="M131 -54l-60 19l53 163l59 -19z" />
    <glyph glyph-name="quotedblleft" unicode="&#x201c;" 
d="M769 399l-55 162l75 25l54 -161l-74 -26v0zM653 394l-55 162l75 25l55 -162l-75 -25v0z" />
    <glyph glyph-name="quotedblright" unicode="&#x201d;" 
d="M165 403l-75 24l52 163l75 -24l-52 -163v0zM280 400l-74 24l52 162l75 -24l-53 -162v0z" />
    <glyph glyph-name="quotedblbase" unicode="&#x201e;" horiz-adv-x="500" 
d="M131 -54l-60 19l53 163l59 -19zM245 -54l-60 19l53 163l59 -19z" />
    <glyph glyph-name="bullet" unicode="&#x2022;" horiz-adv-x="400" 
d="M201 248l-61 41v58l61 42l60 -42v-58z" />
    <glyph glyph-name="ellipsis" unicode="&#x2026;" horiz-adv-x="578" 
d="M112 298q21 0 35.5 -14.5t14.5 -35.5q0 -20 -14.5 -35t-35.5 -15q-20 0 -35 15t-15 35q0 21 15 35.5t35 14.5zM290 298q20 0 35 -14.5t15 -35.5q0 -20 -15 -35t-35 -15q-21 0 -35.5 15t-14.5 35q0 21 14.5 35.5t35.5 14.5zM468 298q20 0 35 -14.5t15 -35.5q0 -20 -15 -35
t-35 -15q-21 0 -35.5 15t-14.5 35q0 21 14.5 35.5t35.5 14.5z" />
    <glyph glyph-name="perthousand" unicode="&#x2030;" 
d="M288 -86l-60 24l246 624l60 -24zM262 266q-18 0 -35.5 8t-31.5 25.5t-22.5 46t-8.5 70.5q0 48 10 77.5t25 45.5t32 21t31 5q13 0 30 -5t32 -21t25.5 -45.5t10.5 -77.5q0 -62 -17 -99q-25 -51 -81 -51zM262 500q-11 0 -17.5 -8t-10 -20t-5 -27t-1.5 -29q0 -38 9.5 -62
t24.5 -24q3 0 9 1.5t11.5 9.5t9.5 25.5t4 49.5q0 12 -1 26.5t-5 27t-10.5 21.5t-17.5 9zM509 -78q-18 0 -35.5 8t-31.5 26t-22.5 46.5t-8.5 69.5q0 49 10 78t25 45t32 21t31 5t31 -5t32 -21t25.5 -45t10.5 -78q0 -62 -18 -98q-25 -52 -81 -52zM509 157q-10 0 -16.5 -8
t-10 -20t-5 -27t-1.5 -30q0 -38 9.5 -61.5t23.5 -23.5q4 0 9.5 1.5t11 9.5t9.5 25t4 49q0 12 -1 27t-4.5 27.5t-10.5 21.5t-18 9zM711 -78q-18 0 -35.5 8t-31.5 26t-22.5 46.5t-8.5 69.5q0 49 10 78t25 45t32 21t31 5t31 -5t32 -21t25 -45t10 -78q0 -64 -17 -98
q-25 -52 -81 -52zM711 157q-11 0 -17.5 -8t-10 -20t-5 -27t-1.5 -30q0 -38 9.5 -61.5t24.5 -23.5q3 0 9 1.5t11.5 9.5t9.5 25t4 49q0 12 -1 27t-5 27.5t-10.5 21.5t-17.5 9z" />
    <glyph glyph-name="minute" unicode="&#x2032;" horiz-adv-x="500" 
d="M155 351l-71 41l118 203l71 -41z" />
    <glyph glyph-name="second" unicode="&#x2033;" horiz-adv-x="500" 
d="M155 351l-71 41l118 203l71 -41zM319 351l-71 41l118 203l71 -41z" />
    <glyph glyph-name="uni2103" unicode="&#x2103;" 
d="M241 424q-36 0 -61.5 26t-25.5 62t25.5 61.5t61.5 25.5t62 -25.5t26 -61.5q0 -18 -7 -34t-19 -28t-28 -19t-34 -7zM241 556q-18 0 -31 -13t-13 -31q0 -19 13 -32t31 -13q19 0 32 13t13 32q0 18 -13 31t-32 13zM556 -104q-60 0 -113 26t-92.5 71.5t-62.5 106t-23 129.5
t23 129.5t62.5 105.5t92.5 71.5t113 26.5q69 0 129.5 -35t102.5 -98l-65 -43q-31 47 -74.5 72t-92.5 25q-44 0 -82.5 -20t-67.5 -54.5t-46 -81t-17 -98.5q0 -53 17 -99t46 -81t67.5 -55t82.5 -20q49 0 92.5 25.5t74.5 71.5l65 -43q-42 -63 -102.5 -97.5t-129.5 -34.5z" />
    <glyph glyph-name="uni2109" unicode="&#x2109;" 
d="M802 494h-317v-226h247v-79h-247v-305h-78v610h-26v79h421v-79zM248 411q-37 0 -63 26t-26 63t26 63t63 26t63 -26t26 -63t-26 -63t-63 -26zM248 543q-17 0 -30 -12.5t-13 -30.5q0 -17 13 -29.5t30 -12.5t29.5 12.5t12.5 29.5q0 18 -12.5 30.5t-29.5 12.5z" />
    <glyph glyph-name="uni2116" unicode="&#x2116;" horiz-adv-x="500" 
 />
    <glyph glyph-name="uni2160" unicode="&#x2160;" 
d="M520 -80h-78v650h78v-650v0zM597 499h-232v82h232v-82v0zM597 -102h-232v83h232v-83v0z" />
    <glyph glyph-name="uni2161" unicode="&#x2161;" 
d="M439 -86h-78v651h78v-651v0zM639 -86h-78v651h78v-651v0zM754 499h-508v82h508v-82v0zM754 -102h-508v83h508v-83v0z" />
    <glyph glyph-name="uni2162" unicode="&#x2162;" 
d="M372 -88h-82v603h82v-603v0zM533 -88h-82v603h82v-603v0zM695 -88h-83v603h83v-603v0zM766 499h-548v82h548v-82v0zM766 -102h-548v83h548v-83v0z" />
    <glyph glyph-name="uni2163" unicode="&#x2163;" 
d="M652 -107h-55l-168 601h-37v78h97l175 -629l-12 -4v-46v0zM697 -107h-45v44l-23 6l176 629h97v-78h-37l-168 -601v0zM292 -41h-78v551h78v-551v0zM369 492h-232v82h232v-82v0zM369 -109h-232v82h232v-82v0z" />
    <glyph glyph-name="uni2164" unicode="&#x2164;" 
d="M505 -107h-57l-188 601h-46v78h104l196 -628l-9 -3v-48v0zM552 -107h-47v45l-20 6l197 628h104v-78h-46l-188 -601v0z" />
    <glyph glyph-name="uni2165" unicode="&#x2165;" 
d="M423 -107h-55v46l-13 4l176 629h97v-78h-37l-168 -601v0zM368 -107h-46l-167 601h-38v78h97l176 -629l-22 -6v-44v0zM806 -41h-79v551h79v-551v0zM882 492h-232v82h232v-82v0zM882 -109h-232v82h232v-82v0z" />
    <glyph glyph-name="uni2166" unicode="&#x2166;" 
d="M334 -111h-52v44l-18 4l143 632h86v-79h-23l-136 -601v0zM282 -111h-44l-136 601h-23v79h86l143 -632l-26 -6v-42v0zM668 -71h-79v600h79v-600v0zM815 -71h-79v600h79v-600v0zM889 488h-373v82h373v-82v0zM889 -113h-373v83h373v-83v0z" />
    <glyph glyph-name="uni2167" unicode="&#x2167;" 
d="M324 -107h-52v43l-19 4l136 632h84v-78h-20l-129 -601v0zM272 -107h-43l-130 601h-20v78h84l136 -632l-27 -5v-42v0zM631 -68h-78v601h78v-601v0zM745 -68h-79v601h79v-601v0zM858 -68h-79v601h79v-601v0zM919 492h-427v82h427v-82v0zM919 -109h-427v82h427v-82v0z" />
    <glyph glyph-name="uni2168" unicode="&#x2168;" 
d="M812 -115l-360 609h-23v78h68l382 -647l-67 -40v0zM472 -115l-68 40l382 647h68v-78h-23l-359 -609v0zM314 -41h-79v551h79v-551v0zM391 492h-232v82h232v-82v0zM391 -109h-232v82h232v-82v0z" />
    <glyph glyph-name="uni2169" unicode="&#x2169;" 
d="M733 -107l-475 612h-31v79h69l499 -643l-62 -48v0zM260 -107l-62 48l499 643h69v-79h-31l-475 -612v0z" />
    <glyph glyph-name="uni216A" unicode="&#x216a;" 
d="M209 -115l-68 40l382 647h68v-78h-23l-359 -609v0zM549 -115l-360 609h-23v78h68l382 -647l-67 -40v0zM785 -41h-78v551h78v-551v0zM862 492h-232v82h232v-82v0zM862 -109h-232v82h232v-82v0z" />
    <glyph glyph-name="uni216B" unicode="&#x216b;" 
d="M152 -115l-67 40l382 647h68v-78h-23l-360 -609v0zM492 -115l-359 609h-23v78h68l382 -647l-68 -40v0zM700 -68h-78v601h78v-601v0zM821 -68h-78v601h78v-601v0zM875 492h-307v82h307v-82v0zM875 -109h-307v82h307v-82v0z" />
    <glyph glyph-name="uni2170" unicode="&#x2170;" 
d="M533 -29h-78v416h78v-416v0zM533 461h-78v90h78v-90v0z" />
    <glyph glyph-name="uni2171" unicode="&#x2171;" 
d="M448 -29h-79v416h79v-416v0zM448 461h-79v90h79v-90v0zM619 -29h-78v416h78v-416v0zM619 461h-78v90h78v-90v0z" />
    <glyph glyph-name="uni2172" unicode="&#x2172;" 
d="M343 -29h-78v416h78v-416v0zM343 461h-78v90h78v-90v0zM524 -29h-78v416h78v-416v0zM524 461h-78v90h78v-90v0zM705 -29h-78v416h78v-416v0zM705 461h-78v90h78v-90v0z" />
    <glyph glyph-name="uni2173" unicode="&#x2173;" 
d="M329 -29h-78v416h78v-416v0zM329 461h-78v90h78v-90v0zM587 -31h-45l-139 341h-23v78h76l149 -364l-18 -8v-47v0zM625 -31h-38v44l-25 11l149 364h76v-78h-23l-139 -341v0z" />
    <glyph glyph-name="uni2174" unicode="&#x2174;" 
d="M464 -31h-46l-138 341h-23v78h76l148 -364l-17 -8v-47v0zM502 -31h-38v44l-25 11l148 364h76v-78h-23l-138 -341v0z" />
    <glyph glyph-name="uni2175" unicode="&#x2175;" 
d="M716 -37h-79v424h79v-424v0zM716 454h-79v90h79v-90v0zM385 -31h-45l-138 341h-23v78h76l148 -364l-18 -8v-47v0zM423 -31h-38v44l-24 11l148 364h76v-78h-23l-139 -341v0z" />
    <glyph glyph-name="uni2176" unicode="&#x2176;" 
d="M778 -37h-79v421h79v-421v0zM778 454h-79v90h79v-90v0zM631 -37h-78v421h78v-421v0zM631 454h-78v90h78v-90v0zM313 -31h-46l-124 341h-22v78h77l134 -366l-19 -6v-47v0zM352 -31h-39v44l-25 9l134 366h77v-78h-22l-125 -341v0z" />
    <glyph glyph-name="uni2177" unicode="&#x2177;" 
d="M833 -29h-79v416h79v-416v0zM833 461h-79v90h79v-90v0zM714 -29h-78v416h78v-416v0zM714 461h-78v90h78v-90v0zM596 -29h-78v416h78v-416v0zM596 461h-78v90h78v-90v0zM312 -31h-46l-110 341h-16v78h73l119 -367l-20 -7v-45v0zM350 -31h-38v43l-28 9l120 367h73v-78h-16
l-111 -341v0z" />
    <glyph glyph-name="uni2178" unicode="&#x2178;" 
d="M331 -39h-78v427h78v-427v0zM331 452h-78v89h78v-89v0zM699 -42l-270 352h-21v78h59l294 -382l-62 -48v0zM451 -42l-62 48l293 382h60v-78h-21l-270 -352v0z" />
    <glyph glyph-name="uni2179" unicode="&#x2179;" 
d="M617 -42l-270 352h-21v78h59l294 -382l-62 -48v0zM369 -42l-62 48l294 382h59v-78h-21l-270 -352v0z" />
    <glyph glyph-name="infinity" unicode="&#x221e;" 
d="M317 77q-43 0 -74.5 12t-51.5 32t-30 45.5t-10 51.5t10 51.5t30 45.5t51.5 32t74.5 12q37 0 74 -17t66.5 -38t49.5 -40t24 -23l22 -23l-22 -23q-4 -5 -24 -24t-49.5 -40t-66.5 -37.5t-74 -16.5zM317 291q-48 0 -73 -19t-25 -54t25 -54t73 -19q18 0 37 7t37.5 18
t35.5 23.5t30 24.5q-13 12 -30 24.5t-35.5 23.5t-37.5 18t-37 7zM696 77q-38 0 -74.5 16.5t-66.5 37.5t-50 40t-24 24l-21 23l21 23l13 13t25.5 23t35.5 27.5t43 26.5t48 20t50 8q43 0 74 -12t51.5 -32t30.5 -45.5t10 -51.5t-10 -51.5t-30.5 -45.5t-51.5 -32t-74 -12z
M555 218q13 -12 30.5 -24.5t36 -23.5t37.5 -18t37 -7q47 0 72.5 19t25.5 54t-25.5 54t-72.5 19q-18 0 -37 -7t-38 -18t-36 -23.5t-30 -24.5z" />
    <glyph glyph-name="therefore" unicode="&#x2234;" 
d="M384 67q0 -26 -18 -44t-44 -18t-44 18t-18 44t18 43.5t44 17.5t44 -17.5t18 -43.5zM723 67q0 -26 -18 -44t-44 -18t-44 18t-18 44t18 43.5t44 17.5t44 -17.5t18 -43.5zM553 424q0 -26 -17.5 -44t-43.5 -18t-44 18t-18 44t18 43.5t44 17.5t43.5 -17.5t17.5 -43.5z" />
    <glyph glyph-name="uni2235" unicode="&#x2235;" 
d="M383 426q0 -26 -18 -43.5t-44 -17.5t-44 17.5t-18 43.5t18 44t44 18t44 -18t18 -44zM721 426q0 -26 -17.5 -43.5t-43.5 -17.5t-44 17.5t-18 43.5t18 44t44 18t43.5 -18t17.5 -44zM552 69q0 -26 -18 -43.5t-44 -17.5t-43.5 17.5t-17.5 43.5t17.5 44t43.5 18t44 -18t18 -44
z" />
    <glyph glyph-name="uni2460" unicode="&#x2460;" 
d="M491 -121q-73 0 -137.5 27.5t-112.5 75.5t-75.5 112.5t-27.5 137.5t27.5 137.5t75.5 112.5t112.5 76t137.5 28t137.5 -28t112.5 -76t76 -112.5t28 -137.5t-28 -137.5t-76 -112.5t-112.5 -75.5t-137.5 -27.5zM491 550q-66 0 -123.5 -25t-100.5 -68t-68 -101t-25 -124
t25 -123.5t68 -100.5t100.5 -68t123.5 -25t123.5 25t101 68t68.5 100.5t25 123.5t-25 124t-68.5 101t-101 68t-123.5 25zM525 -15h-61v398l-51 -47l-41 44l94 87h59v-482z" />
    <glyph glyph-name="uni2461" unicode="&#x2461;" 
d="M499 -121q-73 0 -137.5 27.5t-112.5 75.5t-75.5 112.5t-27.5 137.5t27.5 137.5t75.5 112.5t112.5 76t137.5 28t137.5 -28t112.5 -76t76 -112.5t28 -137.5t-28 -137.5t-76 -112.5t-112.5 -75.5t-137.5 -27.5zM499 550q-66 0 -123.5 -25t-101 -68t-68.5 -101t-25 -124
t25 -123.5t68.5 -100.5t101 -68t123.5 -25t123.5 25t101 68t68.5 100.5t25 123.5t-25 124t-68.5 101t-101 68t-123.5 25zM660 8h-319v64l216 208q31 31 31 72q-1 17 -7.5 33t-20.5 28q-26 24 -62 21q-40 -2 -66 -32q-7 -8 -12.5 -19t-9.5 -22t-6.5 -20.5t-3.5 -14.5l-60 11
q0 3 3 14.5t8 27t14 32.5t21 31q20 24 48.5 37.5t60.5 15.5q30 2 57.5 -8t49.5 -30q45 -42 47 -104q0 -32 -12.5 -62t-37.5 -54v-1l-174 -167h235v-61z" />
    <glyph glyph-name="uni2462" unicode="&#x2462;" 
d="M499 -116q-73 0 -137.5 28t-112.5 76t-75.5 112.5t-27.5 137.5t27.5 137.5t75.5 112.5t112.5 75.5t137.5 27.5t137.5 -27.5t112.5 -75.5t76 -112.5t28 -137.5t-28 -137.5t-76 -112.5t-112.5 -76t-137.5 -28zM499 556q-66 0 -123.5 -25t-101 -68.5t-68.5 -101t-25 -123.5
t25 -123.5t68.5 -101t101 -68.5t123.5 -25t123.5 25t101 68.5t68.5 101t25 123.5t-25 123.5t-68.5 101t-101 68.5t-123.5 25zM488 217v60q26 0 43 4.5t30 14.5q26 20 29 49q2 29 -20 51q-12 12 -28 18.5t-33.5 8t-34.5 -3.5t-31 -15q-23 -18 -27 -40l-59 15q11 44 49 73
q23 18 51 25.5t55.5 6t54 -13t46.5 -31.5q42 -42 37 -98q-2 -28 -15.5 -52t-36.5 -42q-28 -20 -57.5 -25t-52.5 -5zM502 -22q-28 0 -54.5 8t-49.5 25q-28 20 -44 48.5t-18 60.5l61 3q2 -36 36 -63q35 -25 79 -21.5t73 33.5q26 28 23 62q-3 35 -36 60q-16 11 -37 17t-47 6
h-55v60h55q72 0 120 -34q26 -20 42 -46.5t18 -57.5q6 -62 -39 -109q-25 -26 -58.5 -39t-68.5 -13z" />
    <glyph glyph-name="uni2463" unicode="&#x2463;" 
d="M499 -116q-73 0 -137.5 28t-112.5 76t-76 112.5t-28 137.5t28 137.5t76 112.5t112.5 75.5t137.5 27.5t137.5 -27.5t112.5 -75.5t75.5 -112.5t27.5 -137.5t-27.5 -137.5t-75.5 -112.5t-112.5 -76t-137.5 -28zM499 556q-66 0 -123.5 -25t-101 -68.5t-68.5 -101t-25 -123.5
t25 -123.5t68.5 -101t101 -68.5t123.5 -25t123.5 25t100.5 68.5t68 101t25 123.5t-25 123.5t-68 101t-100.5 68.5t-123.5 25zM579 -1h-61v97h-219v61l210 332h70v-333h62v-60h-62v-97zM370 156h148v233z" />
    <glyph glyph-name="uni2464" unicode="&#x2464;" 
d="M506 -116q-73 0 -137.5 28t-112.5 76t-76 112.5t-28 137.5t28 137.5t76 112.5t112.5 75.5t137.5 27.5t137.5 -27.5t112.5 -75.5t75.5 -112.5t27.5 -137.5t-27.5 -137.5t-75.5 -112.5t-112.5 -76t-137.5 -28zM506 556q-66 0 -123.5 -25t-101 -68.5t-68.5 -101t-25 -123.5
t25 -123.5t68.5 -101t101 -68.5t123.5 -25t123.5 25t101 68.5t68.5 101t25 123.5t-25 123.5t-68.5 101t-101 68.5t-123.5 25zM501 -19q-26 0 -51 8t-47 25q-25 20 -39 48t-16 60l60 3q2 -38 33 -63q15 -12 33 -17t36 -3.5t35 9.5t29 22q26 31 23 73q-3 40 -33 65
q-13 11 -32 17.5t-56 0.5l-65 -34l-45 36l50 237h214v-61h-164l-28 -129l19 9l4 1q45 8 79.5 0.5t62.5 -30.5q24 -20 38.5 -47.5t16.5 -59.5t-8 -63t-30 -55q-23 -26 -54 -39t-65 -13z" />
    <glyph glyph-name="uni2465" unicode="&#x2465;" 
d="M492 -118q-73 0 -137.5 27.5t-112.5 75.5t-76 112.5t-28 137.5t28 137.5t76 112.5t112.5 76t137.5 28t137.5 -28t112.5 -76t75.5 -112.5t27.5 -137.5t-27.5 -137.5t-75.5 -112.5t-112.5 -75.5t-137.5 -27.5zM492 553q-66 0 -123.5 -25t-101 -68.5t-68.5 -101t-25 -123.5
t25 -123.5t68.5 -101t101 -68.5t123.5 -25t123.5 25t100.5 68.5t68 101t25 123.5t-25 123.5t-68 101t-100.5 68.5t-123.5 25zM408 197l-53 30l144 262l53 -29zM495 -8q-32 0 -60.5 13t-49.5 35t-33.5 51.5t-12.5 63.5t12.5 63.5t33.5 51.5t49.5 35t60.5 13t60.5 -13
t49.5 -35t33.5 -51.5t12.5 -63.5t-12.5 -63.5t-33.5 -51.5t-49.5 -35t-60.5 -13zM495 257q-20 0 -37 -8t-30 -22t-20.5 -32.5t-7.5 -39.5t7.5 -39.5t20.5 -32.5t30 -22t37 -8t37.5 8t30.5 22t20.5 32.5t7.5 39.5t-7.5 39.5t-20.5 32.5t-30.5 22t-37.5 8z" />
    <glyph glyph-name="uni2466" unicode="&#x2466;" 
d="M500 -118q-73 0 -137.5 27.5t-112.5 75.5t-76 112.5t-28 137.5t28 137.5t76 112.5t112.5 76t137.5 28t137 -28t112 -76t76 -112.5t28 -137.5t-28 -137.5t-76 -112.5t-112 -75.5t-137 -27.5zM500 553q-66 0 -124 -25t-101 -68.5t-68 -101t-25 -123.5t25 -123.5t68 -101
t101 -68.5t124 -25t123.5 25t100.5 68.5t68 101t25 123.5t-25 123.5t-68 101t-100.5 68.5t-123.5 25zM499 -32l-56 23v-1q1 4 14 43t31.5 96.5t40.5 125.5t42 130h-207v61h291l-13 -40q-13 -40 -28.5 -87.5t-31 -95.5t-30.5 -93.5t-26.5 -80.5t-18.5 -57t-8 -24z" />
    <glyph glyph-name="uni2467" unicode="&#x2467;" 
d="M500 -113q-73 0 -137.5 28t-112.5 76t-76 112.5t-28 137.5t28 137.5t76 112.5t112.5 75.5t137.5 27.5t137 -27.5t112 -75.5t76 -112.5t28 -137.5t-28 -137.5t-76 -112.5t-112 -76t-137 -28zM500 558q-66 0 -124 -25t-101 -68t-68 -100.5t-25 -123.5t25 -124t68 -101
t101 -68t124 -25t123.5 25t100.5 68t68 101t25 124t-25 123.5t-68 100.5t-100.5 68t-123.5 25zM500 238q-27 0 -50.5 10t-41.5 27t-28 39.5t-10 48.5t10 48.5t28 39.5t41.5 26.5t50.5 9.5t50.5 -9.5t41.5 -26.5t28 -39.5t10 -48.5t-10 -48.5t-28 -39.5t-41.5 -27t-50.5 -10z
M500 427q-29 0 -49 -19t-20 -45t20 -45t49 -19t49 19t20 45t-20 45t-49 19zM500 -13q-34 0 -64 12.5t-52 33.5t-35 49.5t-13 60.5t13 60.5t35 49.5t52 33.5t64 12.5t63.5 -12.5t52 -33.5t35.5 -49.5t13 -60.5t-13 -60.5t-35.5 -49.5t-52 -33.5t-63.5 -12.5zM500 238
q-21 0 -40 -7.5t-33 -20.5t-22 -30.5t-8 -36.5q0 -40 30 -67.5t73 -27.5t73 27.5t30 67.5q0 19 -8 36.5t-22 30.5t-33 20.5t-40 7.5z" />
    <glyph glyph-name="uni2468" unicode="&#x2468;" 
d="M499 -113q-73 0 -137.5 28t-112.5 76t-75.5 112.5t-27.5 137.5t27.5 137.5t75.5 112.5t112.5 75.5t137.5 27.5t137.5 -27.5t112.5 -75.5t76 -112.5t28 -137.5t-28 -137.5t-76 -112.5t-112.5 -76t-137.5 -28zM499 558q-66 0 -123.5 -25t-100.5 -68t-68 -100.5t-25 -123.5
t25 -124t68 -101t100.5 -68t123.5 -25t123.5 25t101 68t68.5 101t25 124t-25 123.5t-68.5 100.5t-101 68t-123.5 25zM500 -42l-54 28l148 293l54 -27zM503 148q-32 0 -60 12.5t-49 34.5t-33 51t-12 62t12 62.5t33 51.5t49 34.5t60 12.5t60 -12.5t49 -34.5t33 -51.5t12 -62.5
t-12 -62t-33 -51t-49 -34.5t-60 -12.5zM503 408q-20 0 -36.5 -8t-29.5 -21.5t-20 -31.5t-7 -39t7 -39t20 -31.5t29.5 -21.5t36.5 -8q19 0 36 8t29.5 21.5t20 31.5t7.5 39t-7.5 39t-20 31.5t-29.5 21.5t-36 8z" />
    <glyph glyph-name="uni2469" unicode="&#x2469;" 
d="M506 -113q-73 0 -137.5 28t-112.5 76t-75.5 112.5t-27.5 137.5t27.5 137.5t75.5 112.5t112.5 75.5t137.5 27.5t137.5 -27.5t112.5 -75.5t76 -112.5t28 -137.5t-28 -137.5t-76 -112.5t-112.5 -76t-137.5 -28zM506 558q-66 0 -123.5 -25t-100.5 -68t-68 -100.5t-25 -123.5
t25 -124t68 -101t100.5 -68t123.5 -25t124 25t101 68t68 101t25 124t-25 123.5t-68 100.5t-101 68t-124 25zM403 -6h-60v398l-51 -47l-42 44l94 87h59v-482zM589 -17q-38 0 -67.5 17t-50.5 49.5t-32 78.5t-11 104q0 102 37 170q21 38 53 59t71 21q75 0 117.5 -67t42.5 -183
q0 -56 -11.5 -102t-32.5 -78.5t-50.5 -50.5t-65.5 -18zM589 421q-26 0 -45 -16.5t-31 -43t-18 -60.5t-6 -69q0 -34 5 -67.5t17 -60.5t31 -43.5t47 -16.5q25 0 44 16.5t31 43.5t18 60.5t6 67.5t-5 68t-17 61t-31 43.5t-46 16.5z" />
    <glyph glyph-name="uni2474" unicode="&#x2474;" 
d="M200 -72q-52 96 -67.5 203.5t4.5 222.5q7 43 17.5 78t20.5 60.5t17 40t8 15.5l59 -32l-30 16l30 -16l-6 -13t-15 -36.5t-18.5 -55.5t-16.5 -71q-36 -208 56 -380zM806 -72l-60 32q92 172 56 380q-7 39 -16.5 71t-18.5 55.5t-15 36.5l-6 13l60 32q0 -1 7 -15.5t17 -40
t20 -60.5t18 -78q21 -115 5 -222.5t-67 -203.5zM544 5h-68v405l-48 -45l-46 50l97 90h65v-500z" />
    <glyph glyph-name="uni2475" unicode="&#x2475;" 
d="M200 -72q-52 96 -67.5 203.5t4.5 222.5q7 43 17.5 78t20.5 60.5t17 40t8 15.5l59 -32l-30 16l30 -16l-6 -13t-15 -36.5t-18.5 -55.5t-16.5 -71q-36 -208 56 -380zM806 -72l-60 32q92 172 56 380q-7 39 -16.5 71t-18.5 55.5t-15 36.5l-6 13l60 32q0 -1 7 -15.5t17 -40
t20 -60.5t18 -78q21 -115 5 -222.5t-67 -203.5zM665 16h-332v69l223 215q32 32 32 73q-1 17 -7.5 33t-20.5 28q-26 24 -62 21q-40 -2 -67 -32q-7 -8 -12.5 -19t-9.5 -22.5t-6.5 -21.5t-3.5 -15l-67 13q0 3 3 15t8.5 28t14.5 34t22 33q22 25 51.5 39t62.5 16q66 3 113 -39
q23 -22 35.5 -50t13.5 -60q1 -33 -12.5 -64.5t-39.5 -57.5l-175 -169h236v-67z" />
    <glyph glyph-name="uni2476" unicode="&#x2476;" 
d="M200 -72q-52 96 -67.5 203.5t4.5 222.5q7 43 17.5 78t20.5 60.5t17 40t8 15.5l59 -32l-30 16l30 -16l-6 -13t-15 -36.5t-18.5 -55.5t-16.5 -71q-36 -208 56 -380zM806 -72l-60 32q92 172 56 380q-7 39 -16.5 71t-18.5 55.5t-15 36.5l-6 13l60 32q0 -1 7 -15.5t17 -40
t20 -60.5t18 -78q21 -115 5 -222.5t-67 -203.5zM485 231v68q50 0 74 18q26 20 28 50q3 28 -20 50q-12 12 -28 18.5t-33.5 7.5t-34.5 -3.5t-31 -15.5q-22 -16 -27 -39l-66 16q11 47 52 78q24 18 53 26.5t58.5 6.5t57 -14t48.5 -33q44 -45 39 -103q-5 -61 -55 -99
q-29 -22 -60.5 -27t-54.5 -5zM500 -16q-30 0 -58.5 9t-51.5 26q-29 21 -45.5 51t-18.5 64l68 3q2 -38 36 -63q17 -12 37.5 -17.5t41.5 -3.5t40.5 10t33.5 23q26 26 23 61q-3 36 -36 61q-32 23 -85 23h-57v68h57q36 0 68.5 -9.5t56.5 -26.5q28 -21 44.5 -49t19.5 -60
q2 -32 -8.5 -61.5t-33.5 -53.5q-46 -48 -117 -54q-4 0 -7.5 -0.5t-7.5 -0.5z" />
    <glyph glyph-name="uni2477" unicode="&#x2477;" 
d="M200 -72q-52 96 -67.5 203.5t4.5 222.5q7 43 17.5 78t20.5 60.5t17 40t8 15.5l59 -32l-30 16l30 -16l-6 -13t-15 -36.5t-18.5 -55.5t-16.5 -71q-36 -208 56 -380zM806 -72l-60 32q92 172 56 380q-7 39 -16.5 71t-18.5 55.5t-15 36.5l-6 13l60 32q0 -1 7 -15.5t17 -40
t20 -60.5t18 -78q21 -115 5 -222.5t-67 -203.5zM591 -10h-68v97h-226v67l219 344h75v-343h62v-68h-62v-97zM378 155h145v229z" />
    <glyph glyph-name="uni2478" unicode="&#x2478;" 
d="M197 -69q-51 96 -67 204t4 223q7 43 17.5 78t20.5 60.5t17 39.5l8 16l60 -33l-30 17l30 -16l-6.5 -13t-15.5 -36.5t-18.5 -56t-16.5 -71.5q-36 -207 57 -380zM803 -69l-60 32q93 172 56 380q-7 39 -16.5 71.5t-18 56t-15 36.5l-6.5 13l60 32l8 -16t16.5 -39.5t20 -60.5
t18.5 -78q20 -115 4 -223t-67 -204zM497 -16q-27 0 -53.5 9t-49.5 26q-26 21 -41 51t-17 62l68 4q2 -39 33 -63q15 -12 33 -17t36 -3.5t35 9.5t29 22q27 30 24 73q-3 40 -34 66q-12 10 -31.5 16.5t-56.5 0.5l-69 -35l-48 39l52 248h223v-68h-168l-26 -126l14 8l5 1
q92 15 149 -32q25 -21 40 -50t17 -63q3 -34 -7.5 -66t-32.5 -57q-24 -27 -56.5 -41t-67.5 -14z" />
    <glyph glyph-name="uni2479" unicode="&#x2479;" 
d="M206 -72q-51 96 -67 203.5t4 222.5q8 43 18.5 78t20 60.5t16.5 40t8 15.5l60 -32l-30 16l30 -16l-6.5 -13t-15 -36.5t-18 -55.5t-16.5 -71q-18 -104 -4.5 -199t60.5 -181zM812 -72l-60 32q93 171 57 380q-7 39 -16.5 71t-18.5 55.5t-15.5 36.5l-6.5 13l60 32
q1 -1 8 -15.5t16.5 -40t20 -60.5t18.5 -78q20 -115 4 -222.5t-67 -203.5zM422 214l-59 33l149 271l59 -33zM510 1q-34 0 -63.5 13.5t-52 36.5t-35.5 54.5t-13 66.5t13 66t35.5 54t52 36.5t63.5 13.5t63.5 -13.5t52 -36.5t35.5 -54t13 -66t-13 -66.5t-35.5 -54.5t-52 -36.5
t-63.5 -13.5zM510 274q-20 0 -37.5 -8t-30.5 -22t-20.5 -32.5t-7.5 -39.5t7.5 -40t20.5 -33t30.5 -22t37.5 -8t37.5 8t30.5 22t20.5 33t7.5 40t-7.5 39.5t-20.5 32.5t-30.5 22t-37.5 8z" />
    <glyph glyph-name="uni247A" unicode="&#x247a;" 
d="M206 -72q-51 96 -67 203.5t4 222.5q8 43 18.5 78t20 60.5t16.5 40t8 15.5l60 -32l-30 16l30 -16l-6.5 -13t-15 -36.5t-18 -55.5t-16.5 -71q-18 -104 -4.5 -199t60.5 -181zM812 -72l-60 32q93 171 57 380q-7 39 -16.5 71t-18.5 55.5t-15.5 36.5l-6.5 13l60 32
q1 -1 8 -15.5t16.5 -40t20 -60.5t18.5 -78q20 -115 4 -222.5t-67 -203.5zM495 -17l-62 26l-1 -1l7.5 22.5t16.5 50t23 70t27.5 83.5t29 90t28.5 88h-211v68h304l-14 -44q-25 -76 -50.5 -155.5t-47 -144.5t-35.5 -107.5t-15 -45.5z" />
    <glyph glyph-name="uni247B" unicode="&#x247b;" 
d="M206 -72q-51 96 -67 203.5t4 222.5q8 43 18.5 78t20 60.5t16.5 40t8 15.5l60 -32l-30 16l30 -16l-6.5 -13t-15 -36.5t-18 -55.5t-16.5 -71q-18 -104 -4.5 -199t60.5 -181zM812 -72l-60 32q37 69 51.5 136.5t14.5 129t-10 114.5t-22.5 91.5t-23 61t-10.5 23.5l60 32
q1 -1 8 -15.5t16.5 -40t20 -60.5t18.5 -78q20 -115 4 -222.5t-67 -203.5zM513 239q-29 0 -53.5 10.5t-43.5 28t-29.5 41.5t-10.5 51t10.5 51t29.5 42t43.5 28.5t53.5 10.5q28 0 53 -10.5t43.5 -28.5t29 -42t10.5 -51t-10.5 -51t-29 -41.5t-43.5 -28t-53 -10.5zM513 434
q-29 0 -49 -19t-20 -45t20 -44.5t49 -18.5t49 18.5t20 44.5t-20 45t-49 19zM513 -20q-36 0 -67 13t-54.5 35t-37 51.5t-13.5 63.5t13.5 64t37 52t54.5 35t67 13q35 0 66.5 -13t55 -35t37 -52t13.5 -64t-13.5 -63.5t-37 -51.5t-55 -35t-66.5 -13zM513 239q-22 0 -41 -7.5
t-33 -20.5t-22 -30.5t-8 -37.5t8 -37t22 -30t33 -20.5t41 -7.5q21 0 40 7.5t33.5 20.5t22.5 30t8 37t-8 37.5t-22.5 30.5t-33.5 20.5t-40 7.5z" />
    <glyph glyph-name="uni247C" unicode="&#x247c;" 
d="M206 -72q-51 96 -67 203.5t4 222.5q8 43 18.5 78t20 60.5t16.5 40t8 15.5l60 -32l-30 16l30 -16l-6.5 -13t-15 -36.5t-18 -55.5t-16.5 -71q-18 -104 -4.5 -199t60.5 -181zM812 -72l-60 32q37 69 51.5 136.5t14.5 129t-10 114.5t-22.5 91.5t-23 61t-10.5 23.5l60 32
q1 -1 8 -15.5t16.5 -40t20 -60.5t18.5 -78q20 -115 4 -222.5t-67 -203.5zM508 -40l-61 31l153 303l60 -31zM508 154q-33 0 -62.5 13.5t-51.5 36.5t-34.5 53.5t-12.5 65.5t12.5 65.5t34.5 53.5t51.5 36t62.5 13q34 0 63.5 -13t51.5 -36t34.5 -53.5t12.5 -65.5t-12.5 -65.5
t-34.5 -53.5t-51.5 -36.5t-63.5 -13.5zM508 423q-19 0 -36 -8t-29.5 -21.5t-20 -31.5t-7.5 -39t7.5 -39.5t20 -32t29.5 -21.5t36 -8t36.5 8t30 21.5t20 32t7.5 39.5t-7.5 39t-20 31.5t-30 21.5t-36.5 8z" />
    <glyph glyph-name="uni247D" unicode="&#x247d;" 
d="M199 -72q-51 96 -67 203.5t4 222.5q8 43 18.5 78t20 60.5t16.5 40t8 15.5l60 -32l-30 16l30 -16l-6.5 -13t-15 -36.5t-18 -55.5t-16.5 -71q-38 -208 56 -380zM805 -72l-60 32q37 69 51.5 136.5t14.5 129t-10 114.5t-22.5 91.5t-23 61t-10.5 23.5l60 32q1 -1 8 -15.5
t16.5 -40t20 -60.5t18.5 -78q20 -115 4 -222.5t-67 -203.5zM402 -22h-68v404l-48 -44l-46 50l97 89h65v-499zM590 -37q-39 0 -70 18t-53 52t-33.5 82.5t-11.5 108.5q0 52 9.5 96.5t29.5 79.5q22 41 55.5 62.5t73.5 21.5q39 0 70.5 -18t53 -52t33.5 -82t12 -108
q0 -59 -12 -107t-34.5 -82t-53.5 -53t-69 -19zM590 416q-26 0 -45 -16.5t-31 -43.5t-18 -61.5t-6 -70.5q0 -35 5 -69.5t17 -62t31 -44.5t47 -17q26 0 45 17t31.5 44.5t18.5 62t6 69.5q0 34 -5 68.5t-17 62t-31.5 44.5t-47.5 17z" />
    <glyph glyph-name="uni247E" unicode="&#x247e;" 
d="M200 -72q-52 96 -67.5 203.5t4.5 222.5q7 43 17.5 78t20.5 60.5t17 40t8 15.5l59 -32l-30 16l30 -16l-6 -13t-15 -36.5t-18.5 -55.5t-16.5 -71q-36 -208 56 -380zM806 -72l-60 32q37 69 51 136.5t14.5 129t-10 114.5t-22.5 91.5t-22.5 61t-10.5 23.5l60 32q0 -1 7 -15.5
t17 -40t20 -60.5t18 -78q21 -115 5 -222.5t-67 -203.5zM457 -28h-67v405l-49 -45l-46 50l98 90h64v-500zM650 -28h-68v405l-48 -45l-46 50l97 90h65v-500z" />
    <glyph glyph-name="uni247F" unicode="&#x247f;" 
d="M200 -72q-52 96 -67.5 203.5t4.5 222.5q7 43 17.5 78t20.5 60.5t17 40t8 15.5l59 -32l-30 16l30 -16l-6 -13t-15 -36.5t-18.5 -55.5t-16.5 -71q-36 -208 56 -380zM806 -72l-60 32q37 69 51 136.5t14.5 129t-10 114.5t-22.5 91.5t-22.5 61t-10.5 23.5l60 32q0 -1 7 -15.5
t17 -40t20 -60.5t18 -78q21 -115 5 -222.5t-67 -203.5zM382 -13h-68v404l-48 -44l-46 50l97 89h65v-499zM750 -13h-332v70l223 215q32 32 32 72q-1 17 -7.5 33t-20.5 28q-25 24 -62 22q-20 -2 -37 -10t-29 -22q-14 -17 -22.5 -42t-10.5 -36l-67 12q1 3 3.5 15t8.5 28
t14.5 34t21.5 33q22 25 51.5 39t62.5 16q67 5 112 -39q48 -45 50 -110q1 -33 -12.5 -64t-39.5 -57v-1l-175 -168h236v-68z" />
    <glyph glyph-name="uni2480" unicode="&#x2480;" 
d="M202 -71q-51 96 -67 203t4 222q8 43 18.5 78t20 60t16.5 39.5t8 15.5l55 -30l-28 15l28 -15l-6 -13t-15 -36.5t-18.5 -55.5t-16.5 -71q-38 -209 56 -382zM803 -71l-55 30q93 173 57 382q-7 39 -16.5 71t-18.5 55.5t-15.5 36.5l-6.5 13l55 30q1 -1 8 -15.5t16.5 -39.5
t20 -60t18.5 -78q20 -115 4 -222t-67 -203zM405 -17h-68v405l-48 -44l-46 50l97 89h65v-500zM571 219v68q26 0 43 4.5t30 14.5q26 20 29 49q2 28 -20 50q-12 12 -28 19t-33.5 8t-35 -4t-31.5 -15q-21 -17 -27 -39l-66 16q12 47 52 77q24 18 53.5 26.5t58.5 6.5t56.5 -14
t48.5 -33t31.5 -47.5t8.5 -55.5t-16.5 -54.5t-39.5 -43.5q-29 -22 -60 -27.5t-54 -5.5zM585 -27q-30 0 -58 9t-51 26q-29 21 -46 51t-19 63l68 4q2 -18 11 -34.5t26 -28.5t37.5 -17.5t41.5 -4t40 10t33 23.5q26 26 23 61q-3 37 -36 60q-31 23 -84 23h-58v68h58q74 0 124 -36
q28 -20 44.5 -48.5t19.5 -60.5q6 -64 -41 -114q-23 -23 -53 -37t-64 -17q-4 0 -8 -0.5t-8 -0.5z" />
    <glyph glyph-name="uni2481" unicode="&#x2481;" 
d="M202 -71q-51 96 -67 203t4 222q8 43 18.5 78t20 60t16.5 39.5t8 15.5l55 -30l-28 15l28 -15l-6 -13t-15 -36.5t-18.5 -55.5t-16.5 -71q-38 -209 56 -382zM803 -71l-55 30q93 173 57 382q-7 39 -16.5 71t-18.5 55.5t-15.5 36.5l-6.5 13l55 30q1 -1 8 -15.5t16.5 -39.5
t20 -60t18.5 -78q20 -115 4 -222t-67 -203zM394 -12h-68v404l-48 -44l-46 50l97 90h65v-500zM696 -12h-68v97h-226v67l219 344h75v-343h62v-68h-62v-97zM483 153h145v228z" />
    <glyph glyph-name="uni2482" unicode="&#x2482;" 
d="M195 -71q-51 96 -67 203t4 222q8 43 18.5 78t20 60t16.5 39.5t8 15.5l55 -30l-28 15l28 -15l-6.5 -13t-15 -36.5t-18 -55.5t-16.5 -71q-38 -209 56 -382zM796 -71l-55 30q94 173 56 382q-7 39 -16.5 71t-18.5 55.5t-15 36.5l-6 13l55 30q1 -1 8 -15.5t16.5 -39.5t20 -60
t18.5 -78q20 -115 4 -222t-67 -203zM396 -25h-68v405l-49 -44l-46 50l98 89h65v-500zM581 -33q-58 0 -103 36q-26 20 -41.5 50t-17.5 63l68 3q2 -38 33 -63q15 -12 33 -17t36 -3.5t35 9.5t29 22q27 30 24 73q-3 40 -33 65q-13 11 -32 17.5t-57 0.5l-68 -35l-48 39l52 248
h222v-68h-167l-27 -126l15 8h5q91 16 148 -31q52 -43 58 -113q2 -34 -8 -66t-32 -57q-24 -27 -56.5 -41t-67.5 -14z" />
    <glyph glyph-name="uni2483" unicode="&#x2483;" 
d="M198 -66q-51 96 -66.5 203.5t4.5 221.5q7 43 17.5 78t20.5 60t17 39.5t7 15.5l55 -30l-27 15l27 -15q-10 -22 -21 -49q-9 -23 -18.5 -55.5t-16.5 -71.5q-36 -209 56 -382zM800 -66l-55 30q37 69 51.5 137t14.5 130t-10 115t-22.5 92t-23 61t-10.5 23l55 30q1 -1 8 -15.5
t16.5 -39.5t19.5 -60t18 -78q20 -114 4.5 -221.5t-66.5 -203.5zM397 -14h-68v405l-48 -44l-46 50l97 89h65v-500zM489 191l-59 32l148 271l59 -33zM576 -22q-34 0 -63.5 13.5t-51.5 36.5t-35 54t-13 66t13 66t35 54.5t51.5 37t63.5 13.5t64 -13.5t52 -37t35 -54.5t13 -66
t-13 -66t-35 -54t-52 -36.5t-64 -13.5zM576 251q-20 0 -37 -8t-30 -22t-20.5 -33t-7.5 -40t7.5 -39.5t20.5 -32.5t30 -22t37 -8t37.5 8t30.5 22t20.5 32.5t7.5 39.5t-7.5 40t-20.5 33t-30.5 22t-37.5 8z" />
    <glyph glyph-name="uni2484" unicode="&#x2484;" 
d="M198 -66q-51 96 -66.5 203.5t4.5 221.5q7 43 17.5 78t20.5 60t17 39.5t7 15.5l55 -30l-27 15l27 -15q-10 -22 -21 -49q-9 -23 -18.5 -55.5t-16.5 -71.5q-36 -209 56 -382zM800 -66l-55 30q37 69 51.5 137t14.5 130t-10 115t-22.5 92t-23 61t-10.5 23l55 30q1 -1 8 -15.5
t16.5 -39.5t19.5 -60t18 -78q20 -114 4.5 -221.5t-66.5 -203.5zM404 -34h-68v404l-49 -44l-46 50l98 89h65v-499zM588 -35l-63 26v-1l7.5 22.5t16 50t22.5 70t27.5 83.5t29 90t28.5 88h-210v68h304l-15 -44q-24 -76 -50 -155t-47 -144.5t-35 -108t-15 -45.5z" />
    <glyph glyph-name="uni2485" unicode="&#x2485;" 
d="M198 -66q-51 96 -66.5 203.5t4.5 221.5q7 43 17.5 78t20.5 60t17 39.5t7 15.5l55 -30l-27 15l27 -15q-10 -22 -21 -49q-9 -23 -18.5 -55.5t-16.5 -71.5q-36 -209 56 -382zM800 -66l-55 30q37 69 51.5 137t14.5 130t-10 115t-22.5 92t-23 61t-10.5 23l55 30q1 -1 8 -15.5
t16.5 -39.5t19.5 -60t18 -78q20 -114 4.5 -221.5t-66.5 -203.5zM404 -12h-68v404l-48 -44l-46 50l97 89h65v-499zM595 238q-28 0 -53 10.5t-43.5 28.5t-29 42t-10.5 51t10.5 51t29 41.5t43.5 28t53 10.5t53 -10.5t44 -28t29.5 -41.5t10.5 -51t-10.5 -51t-29.5 -42t-44 -28.5
t-53 -10.5zM595 433q-29 0 -48.5 -18.5t-19.5 -44.5t19.5 -45t48.5 -19t49 19t20 45t-20 44.5t-49 18.5zM595 -21q-35 0 -66.5 13t-54.5 35t-36.5 52t-13.5 64t13.5 63.5t36.5 51.5t54.5 35t66.5 13q36 0 67 -13t54.5 -35t37 -51.5t13.5 -63.5t-13.5 -64t-37 -52t-54.5 -35
t-67 -13zM595 238q-21 0 -40 -7.5t-33 -20.5t-22 -30.5t-8 -36.5q0 -20 8 -37.5t22 -30.5t33 -20.5t40 -7.5q22 0 41 7.5t33 20.5t22 30.5t8 37.5q0 19 -8 36.5t-22 30.5t-33 20.5t-41 7.5z" />
    <glyph glyph-name="uni2486" unicode="&#x2486;" 
d="M198 -66q-51 96 -66.5 203.5t4.5 221.5q7 43 17.5 78t20.5 60t17 39.5t7 15.5l55 -30l-27 15l27 -15q-10 -22 -21 -49q-9 -23 -18.5 -55.5t-16.5 -71.5q-36 -209 56 -382zM800 -66l-55 30q37 69 51.5 137t14.5 130t-10 115t-22.5 92t-23 61t-10.5 23l55 30q1 -1 8 -15.5
t16.5 -39.5t19.5 -60t18 -78q20 -114 4.5 -221.5t-66.5 -203.5zM401 -20h-67v405l-49 -45l-46 50l97 90h65v-500zM586 -30l-60 31l152 302l61 -31zM587 164q-33 0 -62.5 13t-51.5 36t-35 53.5t-13 65.5t13 65.5t35 53.5t51.5 36t62.5 13t62.5 -13t51.5 -36t34.5 -53.5
t12.5 -65.5t-12.5 -65.5t-34.5 -53.5t-51.5 -36t-62.5 -13zM587 433q-20 0 -37 -8t-29.5 -21.5t-20 -32t-7.5 -39.5t7.5 -39t20 -31.5t29.5 -21.5t37 -8q19 0 36.5 8t30 21.5t20 31.5t7.5 39t-7.5 39.5t-20 32t-30 21.5t-36.5 8z" />
    <glyph glyph-name="uni2487" unicode="&#x2487;" 
d="M157 -66q-51 96 -67 203.5t5 221.5q7 43 17.5 78t20 60t16.5 39.5t8 15.5l55 -30l-27 15l27 -15q-10 -22 -21 -49q-9 -23 -18.5 -55.5t-16.5 -71.5q-38 -209 56 -382zM837 -66l-55 30q37 69 51.5 137t14.5 130t-10 115t-22.5 92t-23 61t-10.5 23l55 30q1 -1 8 -15.5
t16.5 -39.5t20 -60t18.5 -78q20 -114 4 -221.5t-67 -203.5zM514 0h-299v68l198 215q16 18 22.5 37t6 37t-7 34t-17.5 28q-21 21 -51 20q-33 -2 -55 -30q-13 -17 -20 -42.5t-9 -36.5l-67 11q0 3 2.5 15t7.5 28t13 34t19 33q20 25 47.5 39.5t58.5 16.5q29 2 56 -8.5t47 -32.5
q22 -23 33 -52t10.5 -59.5t-12 -61t-33.5 -55.5l-1 -1l-156 -169h207v-68zM665 -6q-71 0 -112 69.5t-41 190.5q0 59 11 107t31 82t48 52.5t63 18.5q36 0 64.5 -18t48.5 -52t30.5 -82t10.5 -108q0 -52 -9 -96.5t-26 -78.5q-20 -42 -50.5 -63.5t-68.5 -21.5zM665 446
q-19 0 -34.5 -14t-27 -39.5t-17.5 -61t-6 -77.5q0 -33 4.5 -67.5t14.5 -62t26 -45t40 -17.5q19 0 34.5 14t27 39.5t18 61t6.5 77.5q0 33 -4.5 67t-15 62t-26.5 45.5t-40 17.5z" />
    <glyph glyph-name="uni2488" unicode="&#x2488;" 
d="M688 -57q0 -21 -14.5 -36t-35.5 -15t-35.5 15t-14.5 36q0 20 14.5 35t35.5 15t35.5 -15t14.5 -35zM456 -114h-79v589l-82 -75l-53 57l134 124h80v-695z" />
    <glyph glyph-name="uni2489" unicode="&#x2489;" 
d="M789 -57q0 -21 -14.5 -36t-35.5 -15t-35.5 15t-14.5 36q0 20 14.5 35t35.5 15t35.5 -15t14.5 -35zM650 -101h-459v86l312 300q23 23 35.5 51t11.5 57q-1 26 -11 50t-30 42q-19 17 -43.5 25.5t-51.5 7.5q-29 -2 -54.5 -14.5t-44.5 -33.5q-11 -12 -19 -28.5t-14 -33
t-10 -30.5t-5 -22l-77 14q1 4 4.5 20.5t11.5 39t20 47t30 44.5q29 34 69 53.5t85 21.5q44 2 83 -11.5t69 -42.5q32 -29 49 -67t18 -81q1 -45 -17 -87.5t-53 -77.5l-1 -1l-261 -251h353v-78z" />
    <glyph glyph-name="uni248A" unicode="&#x248a;" 
d="M791 -57q0 -21 -15 -36t-35 -15q-21 0 -36 15t-15 36q0 20 15 35t36 15q20 0 35 -15t15 -35zM400 230v78q38 0 64 7t45 21q41 32 44 76q3 43 -31 77q-18 18 -42 28t-50 11.5t-52 -5.5t-47 -23q-32 -24 -41 -60l-76 19q15 63 70 104q32 24 70.5 35.5t80.5 8.5
q42 -2 78.5 -18.5t64.5 -44.5q59 -59 53 -138q-3 -39 -22 -73t-53 -60q-19 -15 -40 -23.5t-41 -13t-39.5 -5.5t-35.5 -1zM421 -117q-85 0 -150 47q-39 29 -61.5 69.5t-24.5 85.5l78 4q3 -58 55 -95q25 -19 56 -27t61.5 -5.5t59 15t49.5 34.5q19 20 28 44t7 50q-5 54 -55 90
q-23 17 -54.5 26t-69.5 9h-80v78h80q50 0 94 -12.5t77 -36.5q38 -28 60 -65.5t26 -81.5q4 -43 -10.5 -83t-45.5 -72q-30 -32 -71 -50.5t-88 -22.5q-5 -1 -10.5 -1h-10.5z" />
    <glyph glyph-name="uni248B" unicode="&#x248b;" 
d="M814 -57q0 -21 -15 -36t-35 -15q-21 0 -36 15t-15 36q0 20 15 35t36 15q20 0 35 -15t15 -35zM521 -114h-79v146h-318v83l304 478h93v-483h95v-78h-95v-146zM214 110h228v359z" />
    <glyph glyph-name="uni248C" unicode="&#x248c;" 
d="M820 -57q0 -21 -14.5 -36t-35.5 -15t-35.5 15t-14.5 36q0 20 14.5 35t35.5 15t35.5 -15t14.5 -35zM421 -130q-37 0 -73 11.5t-67 36.5q-35 29 -56 68.5t-23 84.5l79 3q1 -28 13.5 -52.5t35.5 -42.5q22 -18 49.5 -25.5t54.5 -5t52 14.5t44 33q19 22 28 50.5t7 59.5
q-2 29 -15 54t-35 43q-18 15 -47.5 25.5t-85.5 1.5l-92 -47l-60 48l71 337h307v-79h-243l-43 -201l35 18l6 1q64 11 113 0.5t89 -43.5q35 -29 54.5 -68t23.5 -84q4 -46 -10.5 -89.5t-43.5 -77.5q-32 -38 -76.5 -56.5t-91.5 -18.5z" />
    <glyph glyph-name="uni248D" unicode="&#x248d;" 
d="M801 -65q0 -21 -14.5 -35.5t-35.5 -14.5t-35.5 14.5t-14.5 35.5t14.5 35.5t35.5 14.5t35.5 -14.5t14.5 -35.5zM282 161l-69 37l209 382l69 -38zM412 -135q-46 0 -86.5 18t-70.5 49.5t-47.5 74t-17.5 90.5t17.5 90t47.5 73.5t70.5 49.5t86.5 18t86.5 -18t70.5 -49.5
t47.5 -73.5t17.5 -90t-17.5 -90.5t-47.5 -74t-70.5 -49.5t-86.5 -18zM412 250q-30 0 -56 -12t-45.5 -33t-30.5 -49t-11 -59q0 -32 11 -60t30.5 -48.5t45.5 -32.5t56 -12t56 12t45.5 32.5t30.5 48.5t11 60q0 31 -11 59t-30.5 49t-45.5 33t-56 12z" />
    <glyph glyph-name="uni248E" unicode="&#x248e;" 
d="M723 -65q0 -21 -15 -35.5t-35 -14.5q-21 0 -36 14.5t-15 35.5t15 35.5t36 14.5q20 0 35 -14.5t15 -35.5zM418 -123l-72 31q0 -1 -1 -1q1 4 10.5 31.5t24 72t33 101.5t39 120.5t42 129t40.5 125.5h-307v79h416l-17 -52q-19 -58 -41.5 -127t-45 -139t-44 -135.5t-38.5 -117
t-27.5 -83.5t-11.5 -35z" />
    <glyph glyph-name="uni248F" unicode="&#x248f;" 
d="M773 -65q0 -21 -14.5 -35.5t-35.5 -14.5q-20 0 -35 14.5t-15 35.5t15 35.5t35 14.5q21 0 35.5 -14.5t14.5 -35.5zM368 231q-38 0 -71.5 14t-58.5 38t-39.5 56t-14.5 68t14.5 68.5t39.5 56.5t58.5 38t71.5 14t71.5 -14t58.5 -38t39.5 -56.5t14.5 -68.5t-14.5 -68
t-39.5 -56t-58.5 -38t-71.5 -14zM368 505q-22 0 -41 -7.5t-33.5 -21t-22.5 -31.5t-8 -38t8 -37.5t22.5 -31t33.5 -21t41 -7.5t41 7.5t33.5 21t23 31t8.5 37.5t-8.5 38t-23 31.5t-33.5 21t-41 7.5zM368 -134q-48 0 -90.5 17.5t-74 47.5t-50 70.5t-18.5 86.5t18.5 86.5
t50 70.5t74 47.5t90.5 17.5t91 -17.5t74.5 -47.5t50 -70.5t18.5 -86.5t-18.5 -86.5t-50 -70.5t-74.5 -47.5t-91 -17.5zM368 231q-32 0 -60 -11t-49 -30.5t-33 -45.5t-12 -56t12 -56t33 -45.5t49 -30.5t60 -11t60.5 11t49.5 30.5t33 45.5t12 56t-12 56t-33 45.5t-49.5 30.5
t-60.5 11z" />
    <glyph glyph-name="uni2490" unicode="&#x2490;" 
d="M734 -65q0 -21 -14.5 -35.5t-35.5 -14.5t-35.5 14.5t-14.5 35.5t14.5 35.5t35.5 14.5t35.5 -14.5t14.5 -35.5zM394 -147l-70 35l214 426l70 -35zM402 130q-45 0 -85 18t-69.5 49t-47 73t-17.5 89t17.5 88.5t47 72.5t69.5 49t85 18t85 -18t70 -49t47 -72.5t17 -88.5
t-17 -89t-47 -73t-70 -49t-85 -18zM402 509q-29 0 -54.5 -12t-44.5 -32t-30 -47.5t-11 -58.5t11 -58.5t30 -47.5t44.5 -32t54.5 -12t55 12t45 32t30 47.5t11 58.5t-11 58.5t-30 47.5t-45 32t-55 12z" />
    <glyph glyph-name="uni2491" unicode="&#x2491;" 
d="M859 -65q0 -21 -14.5 -35.5t-35.5 -14.5t-35.5 14.5t-14.5 35.5t14.5 35.5t35.5 14.5t35.5 -14.5t14.5 -35.5zM248 -127h-79v589l-82 -76l-54 58l135 124h80v-695zM522 -139q-53 0 -95.5 25t-72 71.5t-45.5 112.5t-16 149q0 73 13.5 134.5t39.5 109.5q31 56 76 85t100 29
q53 0 95.5 -25t72 -71.5t45.5 -112.5t16 -149q0 -80 -16.5 -146t-46.5 -113t-72.5 -73t-93.5 -26zM522 498q-39 0 -67.5 -24t-46.5 -63.5t-27 -89.5t-9 -102q0 -51 8 -100.5t25.5 -89.5t46 -64.5t70.5 -24.5q39 0 67 24.5t46.5 64.5t27.5 90t9 100q0 51 -8 100.5t-26 89.5
t-46.5 64.5t-69.5 24.5z" />
    <glyph glyph-name="uni2492" unicode="&#x2492;" 
d="M775 -65q0 -21 -14.5 -35.5t-35.5 -14.5t-35.5 14.5t-14.5 35.5t14.5 35.5t35.5 14.5t35.5 -14.5t14.5 -35.5zM314 -127h-78v589l-83 -76l-53 58l135 124h79v-695zM586 -127h-79v589l-82 -76l-54 58l135 124h80v-695z" />
    <glyph glyph-name="uni2493" unicode="&#x2493;" 
d="M921 -65q0 -21 -15 -35.5t-35 -14.5q-21 0 -35.5 14.5t-14.5 35.5t14.5 35.5t35.5 14.5q20 0 35 -14.5t15 -35.5zM234 -127h-79v589l-82 -76l-54 58l135 124h80v-695zM761 -118h-460v86l313 300q23 23 35 51t11 57q0 54 -41 92q-39 36 -94 33q-29 -2 -55 -14.5t-45 -33.5
q-10 -12 -18 -28.5t-14 -33t-10 -30.5t-5 -22l-78 14q1 4 4.5 20.5t11.5 39t20 47.5t30 45q29 33 69.5 52.5t85.5 21.5q43 2 82 -11.5t69 -41.5q32 -29 49 -67.5t18 -80.5q1 -45 -17 -88t-53 -78h-1l-261 -251h354v-79z" />
    <glyph glyph-name="uni2494" unicode="&#x2494;" 
d="M922 -65q0 -21 -14.5 -35.5t-35.5 -14.5t-35.5 14.5t-14.5 35.5t14.5 35.5t35.5 14.5t35.5 -14.5t14.5 -35.5zM271 -127h-78v589l-83 -76l-53 58l135 124h79v-695zM513 214v78q38 0 64 7t45 21q41 31 44 76q3 43 -31 77q-18 18 -42 28t-50 11.5t-52 -5.5t-47 -23
q-32 -24 -41 -60l-76 19q15 63 70 104q32 24 70.5 35.5t80.5 8.5q42 -2 78.5 -18.5t64.5 -44.5q59 -59 53 -138q-3 -39 -22 -73t-53 -60q-19 -15 -40 -23.5t-41 -13t-39.5 -5.5t-35.5 -1zM534 -133q-42 0 -80 12.5t-70 35.5q-39 29 -61.5 69t-24.5 85l78 4q3 -58 55 -95
q25 -19 56 -27t61.5 -5.5t59 15t49.5 35.5q40 40 35 93q-5 54 -55 90q-23 17 -54.5 26t-69.5 9h-80v78h80q51 0 94.5 -12.5t76.5 -36.5q38 -28 60 -65.5t26 -81.5q4 -43 -10.5 -83t-45.5 -72q-30 -32 -71 -50.5t-88 -22.5q-5 -1 -10.5 -1h-10.5z" />
    <glyph glyph-name="uni2495" unicode="&#x2495;" 
d="M913 -65q0 -21 -14.5 -35.5t-35.5 -14.5t-35.5 14.5t-14.5 35.5t14.5 35.5t35.5 14.5t35.5 -14.5t14.5 -35.5zM241 -127h-79v589l-82 -76l-53 58l134 124h80v-695zM667 -127h-79v145h-318v84l304 478h93v-483h95v-79h-95v-145zM360 97h228v359z" />
    <glyph glyph-name="uni2496" unicode="&#x2496;" 
d="M916 -65q0 -21 -14.5 -35.5t-35.5 -14.5t-35.5 14.5t-14.5 35.5t14.5 35.5t35.5 14.5t35.5 -14.5t14.5 -35.5zM253 -127h-79v589l-82 -76l-54 58l135 124h80v-695zM522 -130q-38 0 -73.5 11.5t-66.5 36.5q-35 29 -56 68.5t-23 84.5l78 3q2 -28 14.5 -52.5t35.5 -42.5
q22 -18 49.5 -25.5t54.5 -5.5t52 14.5t44 33.5q19 22 28 50.5t7 59.5q-2 29 -15 54t-35 43q-18 15 -48 25.5t-85 1.5l-92 -48l-60 49l71 337h307v-79h-243l-43 -201l35 18l6 1q64 11 113 0.5t89 -43.5q35 -29 54.5 -68t23.5 -84q4 -47 -10.5 -90.5t-43.5 -77.5
q-32 -37 -76.5 -55.5t-91.5 -18.5z" />
    <glyph glyph-name="uni2497" unicode="&#x2497;" 
d="M898 -65q0 -21 -14.5 -35.5t-35.5 -14.5t-35.5 14.5t-14.5 35.5t14.5 35.5t35.5 14.5t35.5 -14.5t14.5 -35.5zM258 -127h-78v589l-83 -76l-53 58l135 124h79v-695zM389 165l-69 37l209 382l69 -38zM519 -131q-46 0 -86.5 18t-70.5 49.5t-47.5 74t-17.5 90.5t17.5 90
t47.5 73.5t70.5 49.5t86.5 18t86.5 -18t70.5 -49.5t47.5 -73.5t17.5 -90t-17.5 -90.5t-47.5 -74t-70.5 -49.5t-86.5 -18zM519 254q-30 0 -56 -12t-45.5 -33t-30.5 -49t-11 -59q0 -32 11 -59.5t30.5 -48.5t45.5 -33t56 -12t56 12t45.5 33t30.5 48.5t11 59.5q0 31 -11 59
t-30.5 49t-45.5 33t-56 12z" />
    <glyph glyph-name="uni2498" unicode="&#x2498;" 
d="M877 -65q0 -21 -14.5 -35.5t-35.5 -14.5t-35.5 14.5t-14.5 35.5t14.5 35.5t35.5 14.5t35.5 -14.5t14.5 -35.5zM272 -127h-79v589l-82 -76l-53 58l134 124h80v-695zM532 -124l-72 30l-1 -1q1 4 10.5 31.5t24 72t33 102t39 120.5t41.5 128.5t41 125.5h-308v79h416l-16 -52
q-19 -58 -41.5 -127t-45 -139t-44 -135.5t-38.5 -117t-27.5 -83.5t-11.5 -34z" />
    <glyph glyph-name="uni2499" unicode="&#x2499;" 
d="M899 -65q0 -21 -14.5 -35.5t-35.5 -14.5t-35.5 14.5t-14.5 35.5t14.5 35.5t35.5 14.5t35.5 -14.5t14.5 -35.5zM248 -127h-78v589l-83 -76l-53 58l135 124h79v-695zM526 235q-38 0 -71.5 14t-58.5 38t-39.5 56t-14.5 68t14.5 68t39.5 56t58.5 38t71.5 14t71.5 -14
t58.5 -38t39.5 -56t14.5 -68t-14.5 -68t-39.5 -56t-58.5 -38t-71.5 -14zM526 508q-22 0 -41 -7.5t-33.5 -20.5t-23 -31t-8.5 -38t8.5 -38t23 -31.5t33.5 -21t41 -7.5t41 7.5t33 21t22.5 31.5t8.5 38q0 41 -30.5 69t-74.5 28zM526 -131q-48 0 -91 17.5t-74.5 47.5t-50 70.5
t-18.5 86.5t18.5 86.5t50 70.5t74.5 47.5t91 17.5t90.5 -17.5t74 -47.5t50 -70.5t18.5 -86.5t-18.5 -86.5t-50 -70.5t-74 -47.5t-90.5 -17.5zM526 235q-32 0 -60.5 -11.5t-49.5 -31t-33 -45.5t-12 -56t12 -56t33 -45.5t49.5 -30.5t60.5 -11t60 11t49 30.5t33 45.5t12 56
t-12 56t-33 45.5t-49 31t-60 11.5z" />
    <glyph glyph-name="uni249A" unicode="&#x249a;" 
d="M853 -65q0 -21 -15 -35.5t-35 -14.5q-21 0 -36 14.5t-15 35.5t15 35.5t36 14.5q20 0 35 -14.5t15 -35.5zM273 -127h-79v589l-82 -76l-53 58l134 124h80v-695zM534 -138l-70 36l214 426l71 -36zM543 140q-45 0 -85 18t-70 49t-47 73t-17 89t17 88.5t47 72.5t70 49t85 18
t84.5 -18t69.5 -49t47 -72.5t17 -88.5t-17 -89t-47 -73t-69.5 -49t-84.5 -18zM543 518q-29 0 -55 -12t-45 -32t-30 -47t-11 -58t11 -58.5t30 -47.5t45 -32t55 -12t54.5 12t44.5 32t30 47.5t11 58.5t-11 58t-30 47t-44.5 32t-54.5 12z" />
    <glyph glyph-name="uni249B" unicode="&#x249b;" 
d="M1000 -65q0 -21 -15 -35.5t-35 -14.5q-21 0 -35.5 14.5t-14.5 35.5q0 20 14.5 35t35.5 15q20 0 35 -15t15 -35zM486 -127h-458v85l311 299q23 24 35.5 51.5t11.5 56.5q-2 55 -42 92q-18 17 -42.5 25.5t-50.5 6.5q-61 -3 -99 -47q-11 -12 -19 -28.5t-14 -33t-10 -30.5
t-5 -22l-77 15q1 3 4.5 19.5t11.5 39t20 47t30 44.5q29 33 69 53t85 22q88 5 151 -54q31 -29 48 -67t18 -80q1 -45 -17 -87.5t-53 -77.5v-1l-261 -250h353v-78zM697 -136q-53 0 -95 24.5t-71.5 71t-45.5 112t-16 148.5q0 73 13.5 134.5t39.5 109.5q30 55 75 84t100 29
q52 0 94.5 -25t72 -71t45.5 -112.5t16 -148.5q0 -80 -16.5 -145.5t-46.5 -112.5t-72 -72.5t-93 -25.5zM697 499q-39 0 -67.5 -24t-46.5 -63.5t-27 -89.5t-9 -102q0 -50 8 -100t25.5 -89.5t46 -64t70.5 -24.5q38 0 66 24.5t46.5 64t27.5 89.5t9 100q0 51 -8 100.5t-25.5 89.5
t-46 64.5t-69.5 24.5z" />
    <glyph glyph-name="uni3001" unicode="&#x3001;" 
d="M300 -101l-180 151l52 63l181 -151l-53 -63v0z" />
    <glyph glyph-name="uni3002" unicode="&#x3002;" 
d="M244 -82q-19 0 -36 7t-29.5 19.5t-19.5 29.5t-7 36t7 36t19.5 29.5t29.5 20t36 7.5t36 -7.5t29.5 -20t20 -29.5t7.5 -36t-7.5 -36t-20 -29.5t-29.5 -19.5t-36 -7zM244 49q-16 0 -27.5 -11t-11.5 -28q0 -16 11.5 -27.5t27.5 -11.5q17 0 28 11.5t11 27.5q0 17 -11 28
t-28 11z" />
    <glyph glyph-name="uni3003" unicode="&#x3003;" 
d="M165 403l-75 24l52 163l75 -24l-52 -163v0zM280 400l-74 24l52 162l75 -24l-53 -162v0z" />
    <glyph glyph-name="uni3005" unicode="&#x3005;" 
d="M673 316h-305v78h305v-78zM300 191l-55 56q42 42 76.5 90.5t58.5 90t37 69.5t13 29l73 -31q-1 -3 -15.5 -33.5t-40.5 -75.5t-63.5 -97t-83.5 -98zM590 -42q-39 44 -78.5 81t-71.5 63t-52.5 41t-21.5 15l44 65q2 -2 24 -17.5t56 -43.5t76 -66.5t83 -85.5zM532 95l-57 54
q46 49 80.5 97.5t58 87t35.5 63l12 24.5l72 -32q-1 -2 -14 -28.5t-38 -68t-62.5 -93t-86.5 -104.5z" />
    <glyph glyph-name="uni3006" unicode="&#x3006;" 
d="M239 -63l-35 21q-27 51 15 163q17 43 40.5 86t47.5 75q9 11 19.5 23t23 21t26.5 14t29 2q6 -2 14 -5.5t19.5 -13t28 -26t39.5 -44.5q6 7 12 13.5t13 13.5q46 49 88 95.5t74.5 83.5t52 59.5l19.5 22.5l60 -51l-20.5 -23.5t-54 -62t-77.5 -87t-91 -98.5q-7 -7 -13 -13.5
t-13 -13.5q18 -23 34.5 -44.5t29 -38.5t20 -27.5l7.5 -10.5l-64 -46q-20 28 -41 56t-41 54q-31 -31 -58 -57t-50 -47q-35 -31 -60 -49.5t-43 -28.5t-30 -13t-21 -3zM393 260q-9 -8 -22 -24.5t-27.5 -40.5t-29 -53t-25.5 -60q-10 -25 -13 -46q23 17 65 54t110 107
q-18 22 -33 38.5t-25 24.5z" />
    <glyph glyph-name="uni3008" unicode="&#x3008;" 
d="M742 -100l-182 333l182 333l60 -33l-164 -300l164 -300l-60 -33v0z" />
    <glyph glyph-name="uni3009" unicode="&#x3009;" 
d="M215 -100l-59 33l164 300l-164 300l59 33l183 -333l-183 -333v0z" />
    <glyph glyph-name="uni300A" unicode="&#x300a;" 
d="M763 -96l-145 342l182 346l60 -32l-167 -317l133 -313l-63 -26v0zM648 -96l-146 342l183 346l60 -32l-168 -317l133 -313l-62 -26v0z" />
    <glyph glyph-name="uni300B" unicode="&#x300b;" 
d="M199 -98l-63 26l133 313l-167 317l60 32l182 -346l-145 -342v0zM315 -98l-63 26l133 313l-167 317l60 32l182 -346l-145 -342v0z" />
    <glyph glyph-name="uni300C" unicode="&#x300c;" 
d="M672 193h-68v408h185v-68h-117v-340v0z" />
    <glyph glyph-name="uni300D" unicode="&#x300d;" 
d="M360 -123h-185v68h117v340h68v-408v0z" />
    <glyph glyph-name="uni300E" unicode="&#x300e;" 
d="M726 127h-123v445h195v-124h-72v-321v0zM646 170h37v321h72v38h-109v-359v0z" />
    <glyph glyph-name="uni300F" unicode="&#x300f;" 
d="M373 -85h-194v124h72v321h122v-445v0zM222 -42h108v359h-36v-321h-72v-38v0z" />
    <glyph glyph-name="uni3010" unicode="&#x3010;" 
d="M706 234q0 -96 28.5 -182.5t80.5 -158.5h-205v683h205q-52 -72 -80.5 -158.5t-28.5 -183.5z" />
    <glyph glyph-name="uni3011" unicode="&#x3011;" 
d="M273 234q0 97 -29 183.5t-81 158.5h205v-683h-205q52 72 81 158.5t29 182.5z" />
    <glyph glyph-name="uni3013" unicode="&#x3013;" 
d="M703 313h-418v78h418v-78v0zM703 127h-418v79h418v-79v0z" />
    <glyph glyph-name="uni3014" unicode="&#x3014;" 
d="M785 -102l-109 109v446l106 134l62 -49l-90 -112v-387l87 -86l-56 -55v0z" />
    <glyph glyph-name="uni3015" unicode="&#x3015;" 
d="M202 -102l-55 55l86 86v387l-89 112l61 49l106 -134v-446l-109 -109v0z" />
    <glyph glyph-name="uni3220" unicode="&#x3220;" 
d="M142 -67q-51 96 -67 204t5 223q7 43 17.5 78t20.5 60t17 39.5t7 15.5l60 -32l-30 16l30 -16q-10 -22 -21 -49q-9 -23 -18.5 -55.5t-16.5 -71.5q-36 -206 56 -380zM856 -67l-60 32q37 69 51.5 136.5t14.5 129.5t-10 114.5t-22.5 91.5t-23 61t-10.5 23l60 32q1 -1 8 -15.5
t16.5 -39.5t20 -60t18.5 -78q20 -115 4 -223t-67 -204zM784 231h-561v68h561v-68z" />
    <glyph glyph-name="uni3221" unicode="&#x3221;" 
d="M141 -67q-51 96 -66.5 204t4.5 223q7 43 17.5 78t20.5 60t17 39.5t7 15.5l60 -32l-30 16l30 -16q-10 -22 -21 -49q-9 -23 -18.5 -55.5t-16.5 -71.5q-36 -206 56 -380zM855 -67l-60 32q37 69 51.5 136.5t14.5 129.5t-10 114.5t-22.5 91.5t-23 61t-10.5 23l60 32
q1 -1 8 -15.5t16.5 -39.5t20 -60t18.5 -78q20 -115 4 -223t-67 -204zM728 392h-463v67h463v-67zM777 16h-561v68h561v-68z" />
    <glyph glyph-name="uni3222" unicode="&#x3222;" 
d="M142 -67q-51 96 -67 204t5 223q7 43 17.5 78t20.5 60t17 39.5t7 15.5l60 -32l-30 16l30 -16q-10 -22 -21 -49q-9 -23 -18.5 -55.5t-16.5 -71.5q-36 -206 56 -380zM856 -67l-60 32q37 69 51.5 136.5t14.5 129.5t-10 114.5t-22.5 91.5t-23 61t-10.5 23l60 32q1 -1 8 -15.5
t16.5 -39.5t20 -60t18.5 -78q20 -115 4 -223t-67 -204zM728 420h-463v68h463v-68zM685 231h-377v68h377v-68zM777 9h-561v68h561v-68z" />
    <glyph glyph-name="uni3223" unicode="&#x3223;" 
d="M142 -67q-51 96 -67 204t5 223q7 43 17.5 78t20.5 60t17 39.5t7 15.5l60 -32q-10 -22 -21 -49q-9 -23 -18.5 -55.5t-16.5 -71.5q-36 -206 56 -380zM856 -67l-60 32q37 69 51.5 136.5t14.5 129.5t-10 114.5t-22.5 91.5t-23 61t-10.5 23l60 32q1 -1 8 -15.5t16.5 -39.5
t20 -60t18.5 -78q20 -115 4 -223t-67 -204zM707 -1h-481v479h498v17h68v-412q0 -17 -6.5 -32.5t-18 -27t-27 -18t-33.5 -6.5zM294 67h413q7 0 12 4.5t5 11.5v327h-430v-343zM351 130l-38 56l19 -28l-19 28q9 6 24.5 19.5t30 30.5t25 37.5t10.5 41.5v129h68v-129
q0 -39 -18 -72t-40 -58t-41 -39.5t-21 -15.5zM695 136h-145v316h67v-248h78v-68z" />
    <glyph glyph-name="uni3224" unicode="&#x3224;" 
d="M148 -67q-51 96 -67 204t4 223q8 43 18.5 78t20 60t16.5 39.5t8 15.5l60 -32l-30 16l30 -16l-6.5 -12.5t-15 -36t-18 -56t-16.5 -71.5q-38 -206 56 -380zM861 -67l-59 32q37 69 51 136.5t14.5 129.5t-10 114.5t-22.5 91.5t-22.5 61t-10.5 23l59 32q1 -1 8 -15.5
t16.5 -39.5t20 -60t18.5 -78q20 -115 4.5 -223t-67.5 -204zM745 420h-474v68h474v-68zM777 9h-539v68h539v-68zM459 37l-66 13l78 410l67 -13zM688 53h-68v187h-291v68h359v-255z" />
    <glyph glyph-name="uni3225" unicode="&#x3225;" 
d="M142 -67q-51 96 -67 204t5 223q7 43 17.5 78t20.5 60t17 39.5t7 15.5l60 -32q-10 -22 -21 -49q-9 -23 -18.5 -55.5t-16.5 -71.5q-36 -206 56 -380zM856 -67l-60 32q37 69 51.5 136.5t14.5 129.5t-10 114.5t-22.5 91.5t-23 61t-10.5 23l60 32q1 -1 8 -15.5t16.5 -39.5
t20 -60t18.5 -78q20 -115 4 -223t-67 -204zM784 308h-561v68h561v-68zM274 -27l-50 46q42 46 72.5 91.5t50 81.5t29.5 58.5l10 22.5l63 -23q-1 -2 -11 -27t-31.5 -64t-54 -87.5t-78.5 -98.5zM712 -26l-155 273l59 33l155 -273zM492 397l-58 102l59 33l58 -101z" />
    <glyph glyph-name="uni3226" unicode="&#x3226;" 
d="M142 -67q-51 96 -67 204t5 223q7 43 17.5 78t20.5 60t17 39.5t7 15.5l60 -32l-30 16l30 -16q-10 -22 -21 -49q-9 -23 -18.5 -55.5t-16.5 -71.5q-36 -206 56 -380zM856 -67l-60 32q37 69 51.5 136.5t14.5 129.5t-10 114.5t-22.5 91.5t-23 61t-10.5 23l60 32q1 -1 8 -15.5
t16.5 -39.5t20 -60t18.5 -78q20 -115 4 -223t-67 -204zM228 236l-9 68l561 75l9 -67zM669 -38h-301v550h68v-482h233q7 0 12 4.5t5 12.5v74h68v-74q0 -35 -25 -60t-60 -25z" />
    <glyph glyph-name="uni3227" unicode="&#x3227;" 
d="M153 -67q-51 96 -67 204t5 223q7 43 17.5 78t20.5 60t17 39.5t7 15.5l60 -32l-30 16l30 -16q-10 -22 -21 -49q-9 -23 -18.5 -55.5t-16.5 -71.5q-36 -206 56 -380zM867 -67l-60 32q37 69 51 136.5t14.5 129.5t-10 114.5t-22.5 91.5t-22.5 61t-10.5 23l60 32q0 -1 7 -15.5
t17 -39.5t20 -60t18 -78q21 -115 5 -223t-67 -204zM255 -14l-44 51l22 -25l-22 25q0 1 21 22.5t46 61t46 96.5t21 128v173h68v-173q0 -83 -24 -149t-53 -112t-54 -71zM758 -14q-3 2 -28 27t-54 71t-53 112t-24 149v173h68v-173q0 -71 21 -128t46 -96.5t46 -61t22 -22.5z" />
    <glyph glyph-name="uni3228" unicode="&#x3228;" 
d="M142 -67q-51 96 -67 204t5 223q7 43 17.5 78t20.5 60t17 39.5t7 15.5l60 -32l-30 16l30 -16q-10 -22 -21 -49q-9 -23 -18.5 -55.5t-16.5 -71.5q-36 -206 56 -380zM856 -67l-60 32q37 69 51.5 136.5t14.5 129.5t-10 114.5t-22.5 91.5t-23 61t-10.5 23l60 32q1 -1 8 -15.5
t16.5 -39.5t20 -60t18.5 -78q20 -115 4 -223t-67 -204zM613 353h-360v68h360v-68zM699 -24h-119v459h67v-391h52q7 0 11.5 5t4.5 12v60h68v-60q0 -18 -6.5 -33.5t-18 -27t-27 -18t-32.5 -6.5zM276 -49l-52 43q0 1 11 14.5t27 37t34.5 54t34.5 65t26.5 71.5t10.5 72v227h68
v-227q0 -42 -11.5 -84t-28.5 -81t-37.5 -73t-38 -60t-30 -41.5t-14.5 -17.5zM250 -27l-26 21z" />
    <glyph glyph-name="uni3229" unicode="&#x3229;" 
d="M140 -67q-52 96 -67.5 204t4.5 223q7 43 17.5 78t20.5 60t17 39.5t8 15.5l59 -32q-10 -22 -21 -49q-9 -23 -18.5 -55.5t-16.5 -71.5q-36 -206 56 -380zM853 -67l-60 32q37 69 51.5 136.5t14.5 129.5t-10 114.5t-22.5 91.5t-23 61t-10.5 23l60 32q1 -1 8 -15.5t16.5 -39.5
t20 -60t18.5 -78q20 -115 4 -223t-67 -204zM537 -63h-68v606h68v-606zM782 238h-561v68h561v-68z" />
    <glyph glyph-name="uni3231" unicode="&#x3231;" 
d="M742 -22l-89 246h-10v-271h-61v271h-13q-5 -17 -13.5 -46.5t-21 -65t-29.5 -75t-39 -76.5l-52 30q18 31 32.5 64.5t26 64.5t20 58t13.5 46h-47v61h123v98h-69q-5 -16 -11.5 -33t-13.5 -36l-57 22q16 40 27 74t18 58.5t10 38.5l3 14l59 -12q0 -2 -4 -19t-12 -47h50v80h61
v-80h103v-60h-103v-98h124v-61h-50l65 -181q21 61 26.5 120t1.5 111.5t-14.5 97t-21.5 76.5t-19.5 50.5t-8.5 19.5l53 28q1 -1 8 -15.5t16.5 -39.5t19.5 -60t18 -77q20 -115 4.5 -222t-66.5 -202l-53 28l13 26zM444 403h-72v-40l31 5l43 -283l-57 -8l-17 114v-230h-61v239
q-6 -61 -13 -123t-14 -113l-37 5l6 -11l-54 -28q-51 95 -66.5 202t4.5 222q7 42 17.5 77t20 60t16.5 39.5t8 15.5l54 -28l-6.5 -13t-15.5 -36.5t-18.5 -56t-16.5 -71.5q-31 -182 35 -339q7 50 13.5 108.5t11.5 114t9.5 102.5t6.5 76h-33v61h72v59h61v-59h72v-61z" />
    <glyph glyph-name="uni32A3" unicode="&#x32a3;" 
d="M492 -78q-67 0 -125.5 25.5t-102.5 69t-69.5 102t-25.5 125.5t25.5 125.5t69.5 102.5t102.5 69.5t125.5 25.5t125.5 -25.5t102.5 -69.5t69.5 -102.5t25.5 -125.5t-25.5 -125.5t-69.5 -102t-102.5 -69t-125.5 -25.5zM492 531q-59 0 -111.5 -22.5t-91.5 -61.5t-61.5 -91.5
t-22.5 -111.5t22.5 -111.5t61.5 -91.5t91.5 -61.5t111.5 -22.5t111.5 22.5t91.5 61.5t61.5 91.5t22.5 111.5t-22.5 111.5t-61.5 91.5t-91.5 61.5t-111.5 22.5zM643 218h-108v-113h153v-57h-391v57h56v209h57v-209h68v265h-162v57h352v-57h-133v-95h108v-57z" />
    <glyph glyph-name="uni338E" unicode="&#x338e;" 
d="M702 -389q-28 0 -51 10q-49 20 -69 72q-18 45 -9 92t34 80q-14 17 -21 43q-11 40 1 72.5t31 56.5q-23 26 -35.5 61.5t-12.5 78.5q0 39 11 73t30 59t45 39.5t56 14.5q26 0 48.5 -10.5t41.5 -29.5h61v-81h-17q9 -30 9 -65q0 -39 -11 -73t-30.5 -59t-45.5 -39.5t-56 -14.5
q-12 0 -24 3q-10 -11 -19 -27.5t-4 -37.5q2 -8 4.5 -13t9.5 -7.5t18.5 -3t31.5 0.5q7 1 14 1h14q57 0 92 -33t36 -87q0 -29 -12 -55t-30.5 -47.5t-40 -37.5t-39.5 -24q-30 -12 -61 -12zM203 -100h-86v287v7v75h-14v86h100v-4q19 7 37 7q47 0 81 -39q33 39 81 39
q27 0 49.5 -13t39 -35.5t25.5 -54t9 -68.5v-287h-86v287q0 39 -13 62t-24 23q-12 0 -25 -23t-13 -62v-287h-86v287q0 39 -13 62t-25 23q-11 0 -23 -21t-14 -57v-294zM712 282q-22 0 -41.5 -29t-19.5 -76t19.5 -76t41.5 -29q23 0 42.5 29t19.5 76t-19.5 76t-42.5 29z
M679 -174q-7 -7 -13.5 -18.5t-10.5 -25t-4 -29t6 -29.5q7 -22 25 -28q12 -5 25.5 -4t24.5 6q11 4 23.5 14t23.5 22.5t18 26t7 26.5q0 39 -47 39h-11t-13 -1q-13 0 -26.5 -0.5t-27.5 1.5z" />
    <glyph glyph-name="uni338F" unicode="&#x338f;" 
d="M629 -388q-29 0 -52 10q-47 19 -69 72q-18 45 -9 92t34 80q-14 18 -20 43q-11 40 0.5 72.5t30.5 56.5q-22 26 -35 61.5t-13 78.5q0 39 11 73t30.5 59t45.5 39.5t56 14.5q26 0 48.5 -10.5t40.5 -29.5h61v-81h-17q9 -30 9 -65q0 -39 -11 -73t-30 -59t-45 -39.5t-56 -14.5
q-13 0 -25 3q-10 -11 -19 -27.5t-4 -37.5q2 -8 4.5 -13t9.5 -7.5t18.5 -3t31.5 0.5q7 1 14 1h14q57 0 92 -33t36 -87q0 -29 -12 -55t-30 -47.5t-39.5 -37.5t-40.5 -24q-29 -12 -60 -12zM241 -113h-78v603h-18v79h96v-431l187 207l59 -53l-131 -144l135 -220l-67 -41
l-123 201l-60 -67v-134zM639 283q-23 0 -42.5 -29t-19.5 -76t19.5 -76t42.5 -29q22 0 41.5 29t19.5 76t-19.5 76t-41.5 29zM605 -173q-7 -7 -13.5 -18.5t-10.5 -25t-4 -29t6 -29.5q9 -22 25 -28q12 -5 26 -4t24 6q11 4 23.5 14t23.5 22.5t18 26t7 26.5q0 39 -47 39h-11
t-13 -1q-13 0 -26.5 -0.5t-27.5 1.5z" />
    <glyph glyph-name="uni339C" unicode="&#x339c;" 
d="M171 -127h-86v287v7v75h-9v86h95v-4q19 7 36 7q23 0 43 -10t36 -27q16 17 36 27t43 10q27 0 49 -13t38.5 -35.5t25.5 -54t9 -68.5v-287h-86v287q0 43 -13 64t-23 21t-23 -21t-13 -64v-287h-86v287v7q-2 39 -14.5 58.5t-21.5 19.5q-10 0 -22 -19t-14 -58v-295zM617 -127
h-86v369h-9v86h95v-4q19 7 36 7q23 0 43 -10t36 -27q16 17 36 27t43 10q27 0 49 -13t38.5 -35.5t25.5 -54t9 -68.5v-287h-86v287q0 43 -13 64t-23 21t-22 -19.5t-14 -58.5v-7v-287h-86v287q0 43 -13 64t-23 21t-23 -21t-13 -64v-287z" />
    <glyph glyph-name="uni339D" unicode="&#x339d;" 
d="M587 -127h-86v369h-10v86h96v-5q19 8 38 8q47 0 80 -38q33 38 81 38q27 0 49.5 -13t39 -35.5t25.5 -54t9 -68.5v-287h-85v287q0 40 -13 62.5t-25 22.5t-24 -20.5t-14 -57.5v-7v-287h-86v287q0 40 -13 62.5t-24 22.5t-23.5 -20.5t-14.5 -56.5v-295zM300 -130
q-43 0 -80.5 18t-65.5 48.5t-44 72t-16 88.5t16 88.5t44 72.5t65.5 49t80.5 18q49 0 92 -23.5t72 -67.5l-65 -44q-18 27 -44 41.5t-55 14.5q-26 0 -49.5 -12t-40.5 -32t-27 -47t-10 -58t10 -58t27 -47t40.5 -31.5t49.5 -11.5q29 0 55 14.5t44 41.5l65 -45q-29 -43 -72 -66.5
t-92 -23.5z" />
    <glyph glyph-name="uni339E" unicode="&#x339e;" 
d="M613 -123h-86v365h-10v86h96v-5q19 8 38 8q47 0 80 -39q33 39 81 39q27 0 49.5 -13t39 -35.5t26 -54t9.5 -68.5v-283h-86v283q0 40 -13 62.5t-25 22.5t-24 -20.5t-14 -57.5v-7v-283h-85v283q0 40 -13 62.5t-25 22.5q-11 0 -23.5 -20.5t-14.5 -56.5v-291zM231 -117h-78
v603h-18v79h96v-431l187 207l58 -53l-130 -144l135 -220l-67 -41l-123 200l-60 -66v-134z" />
    <glyph glyph-name="uni33A1" unicode="&#x33a1;" 
d="M362 -123h-86v283v7v75h-10v86h96v-5q19 8 38 8q47 0 80 -38q33 38 81 38q27 0 49.5 -13t39 -35.5t26 -54t9.5 -68.5v-283h-86v283q0 40 -13 62.5t-25 22.5t-24 -20.5t-14 -57.5v-7v-283h-86v283v7q-2 37 -14 57.5t-23 20.5t-23.5 -20.5t-14.5 -56.5v-291zM699 249v33
l64 61q5 7 5 12q0 6 -4 10q-3 3 -9 3h-1q-7 0 -10 -5q-2 -2 -4 -7.5t-3 -8.5l-2 -11l-38 7l2 10q1 3 4.5 14.5t11.5 20.5q15 18 37 18h3q22 0 35 -13q15 -15 17 -37q0 -23 -17 -40l-30 -28h50v-39h-111z" />
    <glyph glyph-name="uni33C4" unicode="&#x33c4;" 
d="M335 -130q-43 0 -80.5 18t-65.5 48.5t-44 72t-16 88.5t16 88.5t44 72.5t65.5 49t80.5 18q49 0 92 -23.5t72 -67.5l-65 -44q-18 27 -44 41.5t-55 14.5q-26 0 -49.5 -12t-41 -32t-27.5 -47t-10 -58t10 -58t27.5 -47t41 -31.5t49.5 -11.5q29 0 55 14.5t44 41.5l65 -45
q-29 -43 -72 -66.5t-92 -23.5zM694 -130q-43 0 -80.5 18t-65.5 48.5t-44 72t-16 88.5t16 88.5t44 72.5t65.5 49t80.5 18q49 0 92 -23.5t72 -67.5l-65 -44q-18 27 -44 41.5t-55 14.5q-26 0 -49.5 -12t-40.5 -32t-27 -47t-10 -58t10 -58t27 -47t40.5 -31.5t49.5 -11.5
q29 0 55 14.5t44 41.5l65 -45q-29 -43 -72 -66.5t-92 -23.5z" />
    <glyph glyph-name="uni33CE" unicode="&#x33ce;" 
d="M885 -123h-79v539l-91 -340h-72l-91 340v-539h-79v610h-10v79h130l86 -322l86 322h120v-689zM181 -123h-79v603h-13v78h92v-293l196 293l65 -44l-183 -274l187 -320l-68 -39l-167 286l-30 -44v-246z" />
    <glyph glyph-name="uni33D1" unicode="&#x33d1;" 
d="M827 -110h-86v268q0 21 -9 39.5t-24 32.5t-34.5 22.5t-41.5 8.5q-21 0 -40.5 -8t-34.5 -21.5t-24 -31.5t-10 -38v-272h-86v368h-30v86h116v-30q23 16 51 24.5t58 8.5q40 0 75.5 -15t62 -41t42 -60t15.5 -73v-268zM343 -131q-2 1 -17.5 11.5t-33.5 30.5t-32.5 48.5
t-14.5 64.5v457h-26v82h109v-539q0 -19 9 -34.5t19.5 -26.5t19.5 -17l9 -6z" />
    <glyph glyph-name="uni33D2" unicode="&#x33d2;" 
d="M742 -399q-29 0 -52 10q-48 20 -69 72q-18 45 -9 92t34 80q-13 18 -20 43q-11 39 0.5 72t30.5 56q-23 26 -35.5 62t-12.5 79q0 39 11 73t30.5 59t45.5 39.5t56 14.5q26 0 48.5 -10.5t41.5 -29.5h60v-81h-16q9 -30 9 -65q0 -39 -11 -73t-30.5 -59t-45.5 -39.5t-56 -14.5
q-13 0 -25 3q-10 -11 -19 -27.5t-4 -37.5q2 -8 5 -13t10 -7.5t18.5 -3t31.5 0.5q7 1 13.5 1h14.5q56 0 91.5 -33t35.5 -87q0 -29 -12 -55t-30 -47.5t-39.5 -37.5t-39.5 -24q-30 -12 -61 -12zM427 -121q-33 0 -61.5 18t-50 49.5t-33.5 73.5t-12 91t12 91t33.5 73.5t50 49.5
t61.5 18t62 -18t50.5 -49.5t33.5 -73.5t12 -91t-12 -91t-33.5 -73.5t-50.5 -49.5t-62 -18zM237 -131q-2 1 -17.5 11.5t-33.5 30.5t-32.5 48.5t-14.5 64.5v457h-26v82h108v-539q0 -18 9 -33.5t19.5 -27t19.5 -18l9 -6.5zM427 259q-13 0 -26 -11t-23.5 -31t-17 -47t-6.5 -59
t6.5 -59t17 -47t23.5 -31t26 -11t26.5 11t24 31t17 47t6.5 59t-6.5 59t-17 47t-24 31t-26.5 11zM752 272q-22 0 -42 -29t-20 -76t20 -76t42 -29t42 29t20 76t-20 76t-42 29zM718 -184q-13 -14 -23 -43.5t1 -58.5q9 -22 25 -28q13 -5 26.5 -4t23.5 6q11 4 23.5 14t23.5 22.5
t18 26t7 26.5q0 39 -46 39h-12t-12 -1q-13 0 -27 -0.5t-28 1.5z" />
    <glyph glyph-name="uni33D5" unicode="&#x33d5;" 
d="M212 -96h-86v286v7v75h-9v86h95v-4q15 7 36 7q45 0 78 -38q33 38 80 38q26 0 48.5 -13t39 -35.5t25.5 -54t9 -68.5v-286h-86v286q0 43 -13 64t-23 21t-22 -19.5t-14 -58.5v-7v-286h-86v286q0 43 -13 64t-23 21t-23 -21t-13 -64v-286zM838 -103q-2 1 -17.5 12t-33.5 31
t-32.5 48.5t-14.5 64.5v456h-26v82h108v-538q0 -19 8.5 -34.5t19.5 -26.5q12 -13 29 -24zM672 -96h-82v416h82v-416zM672 395h-82v89h82v-89z" />
    <glyph glyph-name="uni4E00" unicode="&#x4e00;" 
d="M905 213h-815v79h815v-79v0z" />
    <glyph glyph-name="uni4E01" unicode="&#x4e01;" 
d="M55 608h892v-78h-389v-586q0 -37 -26.5 -63.5t-63.5 -26.5h-126v79h126q11 0 11 11v586h-424v78z" />
    <glyph glyph-name="uni4E03" unicode="&#x4e03;" 
d="M942 435l9 -78l-545 -64v-361h436q9 0 15.5 6.5t6.5 15.5v74h78v-74q0 -42 -29 -71t-71 -29h-514v430l-270 -31l-9 78l279 32v267h78v-258z" />
    <glyph glyph-name="uni4E07" unicode="&#x4e07;" 
d="M73 610h860v-79h-579v-154h409v25h79v-440q0 -42 -29 -71t-71 -29h-244v79h244q9 0 15 6t6 15v336h-414q-9 -63 -28.5 -119.5t-44 -105t-50 -87t-47.5 -66t-37 -43t-17 -17.5l-55 56q0 1 14.5 16t35.5 42t46.5 65.5t48 86t39 103t21.5 116.5v186h-202v79z" />
    <glyph glyph-name="uni4E08" unicode="&#x4e08;" 
d="M549 443h-474v78h474v109h79v-109h318v-78h-318v-48q0 -13 -2 -39t-9.5 -61t-22.5 -76.5t-40 -84.5l368 -211l-39 -68l-374 214q-72 -91 -178.5 -144t-242.5 -67l-8 78q235 24 360 172l-274 158l39 68l281 -161q22 37 34.5 72.5t19 65t8 51.5t1.5 33v48z" />
    <glyph glyph-name="uni4E09" unicode="&#x4e09;" 
d="M884 -95h-780v78h780v-78v0zM858 488h-729v79h729v-79v0zM808 227h-628v79h628v-79v0z" />
    <glyph glyph-name="uni4E0A" unicode="&#x4e0a;" 
d="M486 -55h461v-78h-893v78h354v677h78v-220h393v-79h-393v-378v0z" />
    <glyph glyph-name="uni4E0B" unicode="&#x4e0b;" 
d="M54 619h892v-79h-453v-686h-79v686h-360v79zM521 257l39 69l323 -186l-39 -68z" />
    <glyph glyph-name="uni4E0C" unicode="&#x4e0c;" 
d="M53 629h893v-78h-232v-697h-79v697h-259v-208q0 -64 -16 -124.5t-39.5 -113.5t-52 -97.5t-53 -76.5t-42 -51t-19.5 -21l-56 56l15 16.5t37.5 45.5t48 68.5t47.5 87t36.5 101t14.5 109.5v208h-244v78z" />
    <glyph glyph-name="uni4E0D" unicode="&#x4e0d;" 
d="M933 606v-79h-398q-13 -28 -44 -82t-83 -120.5t-126.5 -140t-175.5 -140.5l-43 66q82 54 145.5 113.5t110.5 116t78.5 105.5t49.5 82h-385v79h871zM461 359h78v-504h-78v504zM635 380l288 -274l-54 -57l-288 274z" />
    <glyph glyph-name="uni4E0E" unicode="&#x4e0e;" 
d="M671 38h-614v78h614v-78zM292 453l-20 -152h535v25h79v-379q0 -38 -26 -64t-64 -26h-285v78h285q11 0 11 12v275h-625l55 413l78 -11l-12 -92h633v-79h-644z" />
    <glyph glyph-name="uni4E10" unicode="&#x4e10;" 
d="M61 610h871v-79h-396v-105h336v-78h-336v-144h270v22h79v-277q0 -38 -26.5 -64t-63.5 -26h-421v78h421q11 0 11 12v177h-688v85l147 264l69 -38l-129 -233h252v327h-396v79z" />
    <glyph glyph-name="uni4E11" unicode="&#x4e11;" 
d="M946 -65v-78h-892v78h245l31 267h-174v79h183l26 234h-241v79h733l-68 -659h157zM444 515l-26 -234h328l24 234h-326zM409 202l-31 -267h332l28 267h-329z" />
    <glyph glyph-name="uni4E13" unicode="&#x4e13;" 
d="M936 291h-616l-59 -95h582v-87l-226 -140l186 -34l-15 -78l-613 113l15 77l312 -57l206 127h-551v61l70 113h-163v79h212l62 101h-212v79h261l55 89l67 -41l-30 -48h394v-79h-442l-63 -101h568v-79v0z" />
    <glyph glyph-name="uni4E14" unicode="&#x4e14;" 
d="M946 -65v-78h-892v78h131v659h544v18h78v-677h139zM729 175v132h-465v-132h465zM729 515h-465v-130h465v130zM264 96v-161h465v161h-465z" />
    <glyph glyph-name="uni4E15" unicode="&#x4e15;" 
d="M575 298l42 67l328 -206l-42 -67zM55 165q225 84 354 262q24 32 40.5 60.5t26.5 50.5h-422v79h892v-79h-384q-10 -24 -31 -65t-56 -90q-1 -2 -2 -2.5t-2 -2.5h71v-390h-79v379q-26 -33 -61 -70t-82 -73.5t-106 -71t-131 -61.5zM949 -66v-78h-893v78h893z" />
    <glyph glyph-name="uni4E16" unicode="&#x4e16;" 
d="M241 600v-158h161v190h79v-190h223v190h79v-190h166v-79h-166v-263q0 -37 -26 -63t-64 -26h-291v352h-161v-429h651v-78h-729v507h-107v79h107v158h78zM481 363v-274h212q11 0 11 11v263h-223z" />
    <glyph glyph-name="uni4E18" unicode="&#x4e18;" 
d="M252 511v-167h614v-78h-132v-332h204v-78h-882v78h117v655h516q27 0 51 6t42.5 13.5t30 13.5l11.5 6l42 -66q-2 -1 -16 -9t-38 -17.5t-55.5 -17t-67.5 -7.5h-437zM252 266v-332h403v332h-403z" />
    <glyph glyph-name="uni4E19" unicode="&#x4e19;" 
d="M54 608h892v-78h-403v-84h265v29h79v-530q0 -38 -26 -64t-64 -26h-112v79h112q11 0 11 11v423h-269q-9 -54 -32.5 -101t-54.5 -85.5t-65 -68.5t-62.5 -51t-48.5 -33t-23 -13l-37 70l16 9t40 26.5t53 42t55.5 55.5t48 68.5t30.5 80.5h-268v-517h-78v595h351v84h-410v78z
M726 20l-198 193l55 56l198 -193z" />
    <glyph glyph-name="uni4E1A" unicode="&#x4e1a;" 
d="M275 121l-74 -26l-126 360l74 26zM933 454l-123 -359l-74 26l122 358zM687 -65h262v-78h-893v78h270v693h79v-693h203v693h79v-693z" />
    <glyph glyph-name="uni4E1B" unicode="&#x4e1b;" 
d="M949 -65v-78h-893v78h893zM435 18l15.5 17.5t38.5 48.5t49.5 74.5t49 97t37.5 114.5t15 128v123h79v-123q0 -67 -14 -131l214 -357l-67 -40l-176 293q-24 -66 -55.5 -120.5t-59.5 -93.5t-48 -61.5t-22 -24.5l-28 27zM312 261q-21 -59 -52.5 -112t-61.5 -93.5t-52.5 -65
t-25.5 -27.5l-56 55q1 1 15.5 17t36.5 43.5t47 64.5t46.5 78.5t35.5 87t14 89.5v223h79v-223q0 -19 -3 -37l165 -221l-63 -47z" />
    <glyph glyph-name="uni4E1C" unicode="&#x4e1c;" 
d="M930 539v-78h-554l-146 -190h245v140h79v-140h325v-78h-325v-247q0 -37 -26 -63.5t-64 -26.5h-120v79h120q11 0 11 11v247h-356v63l158 205h-198v78h258l82 107l62 -48l-45 -59h494zM70 -77q1 0 22.5 18t52 49t64 73t59.5 92l70 -36q-29 -56 -66 -102.5t-70.5 -80.5
t-57.5 -54t-26 -21zM740 157l184 -249l-64 -47l-183 249z" />
    <glyph glyph-name="uni4E1D" unicode="&#x4e1d;" 
d="M64 -139v79h871v-79h-871zM465 74v-79h-369v70l176 214h-173v77l192 264l63 -46l-156 -216h139l65 79l61 -50l-258 -313h260zM889 74v-79h-369v70l176 214h-173v77l192 264l63 -46l-156 -216h139l65 79l61 -50l-258 -313h260z" />
    <glyph glyph-name="uni4E1E" unicode="&#x4e1e;" 
d="M940 -63v-78h-882v78h882zM688 542h-524v79h660v-105l-215 -94q21 -48 46.5 -90t51.5 -78l167 157l54 -57l-170 -161q32 -36 62 -62.5t53 -44.5t37 -27.5t15 -9.5l-40 -68q-2 1 -19 12t-43 31.5t-59.5 50.5t-69 70t-71 90.5t-65.5 111.5v-281q0 -38 -26.5 -64t-63.5 -26
h-149v79h149q11 0 11 11v386zM55 48q63 41 112.5 86t86 87t60.5 77t37 56h-274v79h284v19h78v-100l-4 -8q-2 -3 -22.5 -39t-61.5 -89t-104 -115t-149 -119z" />
    <glyph glyph-name="uni4E22" unicode="&#x4e22;" 
d="M460 242v104h-343v79h343v91h-361v79h602q42 0 77 7.5t61 16.5t41 16.5l15 7.5l40 -68l-20 -10t-49 -20t-73 -20t-92 -9h-162v-91h344v-79h-344v-104h406v-79h-517l-201 -205l508 33l-66 83l62 48l172 -217l-62 -49l-47 60l-684 -44v80l207 211h-262v79h405z" />
    <glyph glyph-name="uni4E24" unicode="&#x4e24;" 
d="M338 559h-283v78h893v-78h-261v-104h143v25h78v-520q0 -21 -8 -39t-21.5 -31.5t-31.5 -21.5t-39 -8h-91v79h91q9 0 15.5 6t6.5 15v416h-145q-2 -25 -6.5 -50t-11.5 -50l138 -217l-66 -42l-106 166q-20 -45 -42 -83t-41 -66t-32 -45t-15 -19l-60 50q0 1 12 16.5t30 41.5
l-39 -25l-83 130q-20 -45 -41.5 -83t-40.5 -66t-32 -45t-15 -19l-60 50v-164h-79v599h243v104zM174 21q3 4 26.5 36t51.5 81.5t53.5 111.5t31.5 126h-163v-355zM504 108q16 26 32.5 57t31 65.5t25 71.5t13.5 74h-190q-2 -25 -7 -50t-12 -50zM608 559h-191v-104h191v104z" />
    <glyph glyph-name="uni4E25" unicode="&#x4e25;" 
d="M95 615h829v-78h-271v-230h245v-79h-685v-66q0 -69 -15.5 -126t-34 -98.5t-35 -64.5t-17.5 -25l-61 50l13.5 19.5t29.5 54.5t29 83t13 107v145h210v230h-250v78zM574 537h-151v-230h151v230zM711 360l81 158l70 -36l-81 -158zM292 360l-70 -36l-81 158l69 36z" />
    <glyph glyph-name="uni4E27" unicode="&#x4e27;" 
d="M946 214h-430q23 -29 57 -66t78 -75l183 94l36 -70l-151 -77q42 -29 89.5 -52.5t99.5 -36.5l-19 -77q-62 15 -117.5 43.5t-104 62.5t-89.5 72t-72.5 73t-54 63.5t-34.5 45.5h-165v-247l197 57l22 -75l-325 -94l-22 75l49 15v269h-112v79h402v203h-377v78h377v54h79v-54
h365v-78h-365v-203h404v-79zM359 347l-59 -52l-124 140l59 52zM646 347l124 140l59 -52l-124 -140z" />
    <glyph glyph-name="uni4E28" unicode="&#x4e28;" 
d="M542 630v-776h-79v776h79v0z" />
    <glyph glyph-name="uni4E2A" unicode="&#x4e2a;" 
d="M463 386h79v-532h-79v532zM57 268q63 73 104 135.5t64.5 109t33 73l9.5 26.5l76 -19q-1 -3 -11 -32.5t-35.5 -80t-69 -118t-112.5 -145.5zM941 280l-66 -43l-191 296h-312v79h355z" />
    <glyph glyph-name="uni4E2B" unicode="&#x4e2b;" 
d="M94 553l47 63l401 -300v-456h-79v417zM880 623l48 -63l-310 -236l-48 62z" />
    <glyph glyph-name="uni4E2C" unicode="&#x4e2c;" 
d="M623 630v-770h-79v222l-224 -170l-48 63l272 206v449h79zM446 336q-26 35 -50.5 67.5t-43.5 57t-31 39.5l-12 15l61 50l12 -15.5t31.5 -40.5t45 -58.5t51.5 -69.5z" />
    <glyph glyph-name="uni4E2D" unicode="&#x4e2d;" 
d="M539 630v-171h292v22h79v-368q0 -37 -26 -63.5t-64 -26.5h-281v-163h-79v163h-371v436h371v171h79zM460 102v279h-292v-279h292zM539 381v-279h281q11 0 11 11v268h-292z" />
    <glyph glyph-name="uni4E30" unicode="&#x4e30;" 
d="M539 215v-159h407v-79h-407v-117h-78v117h-407v79h407v159h-339v79h339v149h-385v78h385v109h78v-109h385v-78h-385v-149h339v-79h-339v0z" />
    <glyph glyph-name="uni4E32" unicode="&#x4e32;" 
d="M900 224v-198q0 -37 -26.5 -63.5t-63.5 -26.5h-276v-86h-79v86h-362v270h362v68h-319v291h319v65h79v-65h241v21h78v-222q0 -37 -26 -63.5t-64 -26.5h-229v-68h287v18h79zM534 353h229q12 0 12 11v122h-241v-133zM455 127h-284v-112h284v112zM455 486h-241v-133h241v133z
M821 127h-287v-112h276q11 0 11 11v101z" />
    <glyph glyph-name="uni4E34" unicode="&#x4e34;" 
d="M224 630h79v-777h-79v777zM81 519h79v-605h-79v605zM860 232h78v-288q0 -38 -26 -64t-64 -26h-475v364h487v14zM623 139h-171v-206h171v206zM860 139h-158v-206h146q12 0 12 11v195zM944 524v-78h-452q-19 -35 -38 -63t-35 -48t-26.5 -31.5t-11.5 -12.5l-56 55l19.5 22.5
t45 61t52.5 91t42 114.5l76 -18q-12 -50 -30 -93h414zM735 298l-57 -55l-134 137l56 55z" />
    <glyph glyph-name="uni4E36" unicode="&#x4e36;" 
d="M448 361l203 -232l-60 -52l-202 232l59 52v0z" />
    <glyph glyph-name="uni4E38" unicode="&#x4e38;" 
d="M949 25v-77q0 -38 -26 -64t-64 -26h-164v573h-305v-77v-2q-5 -53 -18.5 -101t-30.5 -92l164 -137l-50 -60l-148 123q-27 -51 -56 -92.5t-53 -70.5t-40.5 -46t-18.5 -19l-27 29l-26 29l15.5 16t38.5 45t51 69.5t53 91.5l-118 99l50 60l101 -84q12 34 21 70.5t14 75.5v73
h-168v79h168v120h78v-120h305v19h78v-593h86q11 0 11 12v77h79z" />
    <glyph glyph-name="uni4E39" unicode="&#x4e39;" 
d="M939 251v-79h-113v-223q0 -37 -26.5 -63.5t-63.5 -26.5h-105v79h105q11 0 11 11v223h-471q-10 -63 -29 -119t-37.5 -99.5t-33 -69.5t-16.5 -29l-67 41l12.5 22.5t29.5 60.5t34 88t27 105h-132v79h141q1 5 1 9v9v328h541v22h79v-368h113zM747 518h-463v-249v-18h463v267z
M538 264l-130 176l63 47l131 -176z" />
    <glyph glyph-name="uni4E3A" unicode="&#x4e3a;" 
d="M901 485v-539q0 -38 -26.5 -64t-63.5 -26h-170v79h170q11 0 11 11v437h-393v-40q0 -69 -14.5 -126t-37.5 -103.5t-51.5 -82.5t-55.5 -62q-29 -28 -57 -48t-50.5 -33t-36.5 -19.5t-15 -7.5l-29 73l12 6t31 17t43.5 29t49.5 42q132 127 132 315v40h-242v79h139l-110 103
l54 57l123 -116l-42 -44h78v168h79v-168h393v23h79zM694 40l-204 201l55 56l204 -201z" />
    <glyph glyph-name="uni4E3B" unicode="&#x4e3b;" 
d="M541 193v-259h402v-79h-882v79h401v259h-332v79h332v193h-375v78h349l-39 54l64 45l71 -99h385v-78h-376v-193h332v-79h-332v0z" />
    <glyph glyph-name="uni4E3D" unicode="&#x4e3d;" 
d="M53 607h889v-79h-889v79zM391 485h79v-537q0 -38 -26.5 -64t-63.5 -26h-105v78h105q5 0 8 3.5t3 8.5v437h-230v-527h-79v606h309v21zM294 54l-116 216l69 37l116 -216zM831 485h79v-537q0 -38 -26.5 -64t-63.5 -26h-105v78h105q5 0 8 3.5t3 8.5v437h-230v-527h-79v606
h309v21zM734 54l-116 216l69 37l116 -216z" />
    <glyph glyph-name="uni4E3E" unicode="&#x4e3e;" 
d="M543 55h334v-79h-334v-121h-79v121h-335v79h335v129h-188v79h188v77h79v-77h188v-79h-188v-129zM214 455l-92 116l62 49l91 -116zM943 173l-60 -52l-221 253h-343q-9 -21 -25.5 -52.5t-42.5 -67t-63.5 -72.5t-88.5 -71l-43 65q36 24 64.5 50.5t50 53t37 50.5t25.5 44
h-135v79h565l153 167l58 -54l-104 -113h132v-79h-135zM476 455l-92 116l62 49l92 -116z" />
    <glyph glyph-name="uni4E3F" unicode="&#x4e3f;" 
d="M273 -85q78 54 123 107t67.5 106t28.5 105t6 105v292h79v-292q0 -59 -7 -119t-33 -121.5t-77.5 -123.5t-141.5 -124l-45 65v0z" />
    <glyph glyph-name="uni4E43" unicode="&#x4e43;" 
d="M144 628h709v-137l-177 -141h155v26h78v-432q0 -38 -26 -64t-63 -26h-136v79h136q11 0 11 11v327h-294v68l237 190v20h-374v-179q0 -69 -12 -128t-30.5 -108t-41.5 -88.5t-45 -68.5q-24 -32 -47 -55.5t-41.5 -39.5t-30.5 -24t-13 -9l-20 33l-22 34l10 7t26 20.5t36 34.5
t41 49q111 147 111 343v179h-177v79z" />
    <glyph glyph-name="uni4E45" unicode="&#x4e45;" 
d="M71 -68q1 1 39.5 20t98 52.5t133.5 81t147 105t137.5 124t105.5 138.5v19h-444q-24 -42 -56.5 -89.5t-75.5 -94.5l-58 53q46 51 80 103t56 94t33 69t11 28l74 -26q-1 -2 -7 -17t-17 -41h404v15h79v-133l-5 -8q-40 -74 -101 -141t-132 -127l371 -229l-41 -67l-395 244
q-72 -54 -142 -98.5t-126.5 -76t-93.5 -49.5t-42 -20l-17 36l-16 35v0z" />
    <glyph glyph-name="uni4E47" unicode="&#x4e47;" 
d="M496 207v-277h353q5 0 8.5 3.5t3.5 8.5v84h78v-84q0 -38 -26 -64t-64 -26h-432v347l-348 -38l-8 78l356 39v215q-67 -7 -140 -12.5t-151 -10.5l-5 78q153 9 286 22.5t231.5 26t155.5 21t58 8.5l13 -77q-1 0 -27.5 -4.5t-75 -11.5t-116 -15t-150.5 -17v-215l443 47l8 -78z
" />
    <glyph glyph-name="uni4E48" unicode="&#x4e48;" 
d="M800 122l143 -218l-66 -43l-44 67l-732 -64v79l580 528l53 -59l-503 -457l553 48l-50 76zM543 571l-423 -385l-53 58l423 385z" />
    <glyph glyph-name="uni4E49" unicode="&#x4e49;" 
d="M532 376l-132 213l66 42l133 -213zM935 -83l-50 -60l-351 293q-88 -75 -195.5 -151t-235.5 -142l-36 70q118 61 219.5 131.5t186.5 142.5l-374 312l51 60l383 -320q75 67 133 127.5t97.5 106.5t60.5 74t22 29l64 -46q-1 -2 -15.5 -21t-41.5 -52t-66.5 -77t-90.5 -96
q-23 -22 -48 -46t-54 -50z" />
    <glyph glyph-name="uni4E4B" unicode="&#x4e4b;" 
d="M929 -68v-70h-571q-30 0 -57 5.5t-49.5 13.5t-40.5 17.5t-30 17.5l-75 -65l-46 54l120 102l23 -20l3 -3q3 -3 9 -6q12 7 46.5 26t83 49t106.5 70t118.5 87.5t119 101.5t107.5 113v21h-669v70h363l-71 74l57 55l101 -105l-25 -24h244v18h70v-134l-8 -9q-65 -81 -145 -152
t-158.5 -129t-148 -101t-112.5 -68q14 -4 30.5 -6.5t33.5 -2.5h571z" />
    <glyph glyph-name="uni4E4C" unicode="&#x4e4c;" 
d="M907 270v-324q0 -37 -26 -63.5t-64 -26.5h-278v79h278q11 0 11 11v229h-641v381h190l42 94l72 -32l-28 -62h289v14h78v-182q0 -38 -26 -64t-64 -26h-154v79h154q12 0 12 11v89h-486v-224h562v17h79zM784 11h-697v79h697v-79z" />
    <glyph glyph-name="uni4E4D" unicode="&#x4e4d;" 
d="M480 452v-139h401v-79h-401v-126h432v-79h-432v-174h-79v597h-125q-25 -41 -59.5 -86t-81.5 -90l-54 56q53 52 90 105t60.5 96t34 70t10.5 28l75 -24q-1 -2 -8 -22.5t-24 -53.5h600v-79h-439z" />
    <glyph glyph-name="uni4E4E" unicode="&#x4e4e;" 
d="M935 191v-78h-401v-168q0 -38 -26 -64t-64 -26h-146v78h146q12 0 12 12v168h-391v78h391v322h-336v79h549q41 0 76.5 7.5t61.5 16.5t41 16.5l15 7.5l40 -68l-20 -10t-49 -20t-73.5 -20t-91.5 -9h-135v-322h401zM338 270l-65 -44l-127 187l65 44zM652 270l127 187l65 -44
l-127 -187z" />
    <glyph glyph-name="uni4E4F" unicode="&#x4e4f;" 
d="M307 -64q23 -5 45 -5h571v-71h-571q-31 0 -58.5 6.5t-51 16t-42.5 21t-32 20.5l-78 -73l-48 51l124 116l24 -22q0 -2 24 -18q12 4 47 16.5t84.5 32.5t108.5 47t120 60t119.5 71.5t106.5 81.5h-690v71h373l-80 102l53 41h-369v78h623q41 0 76.5 7.5t61.5 16.5t41 16.5
l15 7.5l40 -67q-2 -1 -20 -10.5t-49 -20t-73.5 -19.5t-91.5 -9h-239l84 -108l-44 -35h289v14h71v-115l-11 -10q-60 -57 -135.5 -106t-152 -88.5t-146.5 -69t-119 -47.5z" />
    <glyph glyph-name="uni4E50" unicode="&#x4e50;" 
d="M876 224h-335v-278q0 -37 -26 -63.5t-64 -26.5h-113v79h113q12 0 12 11v278h-354l41 362h508q42 0 78 6.5t62 14.5t41.5 14.5l15.5 6.5l35 -70q-2 -1 -19.5 -9t-48.5 -17t-73 -16.5t-91 -7.5h-438l-23 -206h266v120h78v-120h335v-78zM915 -98l-67 -41l-176 286l67 41z
M68 -73q47 43 81 88t56.5 81.5t34 60t11.5 24.5l72 -30q-1 -3 -13 -29t-37 -66t-62.5 -89t-88.5 -97z" />
    <glyph glyph-name="uni4E52" unicode="&#x4e52;" 
d="M246 77l55 -56l-160 -157l-55 56zM923 171v-79h-859v79h111v425h481q41 0 73 6t53.5 12.5t33.5 12.5l12 6l41 -67q-1 -1 -16 -8.5t-42 -16.5t-66 -16.5t-89 -7.5h-402v-97h622v-78h-148v-171h195zM649 342h-395v-171h395v171z" />
    <glyph glyph-name="uni4E53" unicode="&#x4e53;" 
d="M729 66l146 -146l-56 -56l-146 146zM922 171v-79h-859v79h111v425h481q41 0 73 6t53.5 12.5t33.5 12.5l12 6l41 -67q-1 -1 -16 -8.5t-42 -16.5t-66 -16.5t-89 -7.5h-402v-97h622v-79h-148v-170h195zM648 341h-395v-170h395v170z" />
    <glyph glyph-name="uni4E54" unicode="&#x4e54;" 
d="M524 426q-2 -4 -5 -7.5t-6 -8.5h427v-78h-239l220 -156l-46 -64l-152 108v-366h-79v371h72l-152 107h-121q-34 -32 -70.5 -58.5t-73.5 -49.5h71v-125l-1 -4q-9 -42 -38.5 -83t-62 -75t-60.5 -57t-34 -28l-24 32l-24 31q15 11 40 33t50.5 49t46.5 56t28 55v112
q-40 -25 -77.5 -44t-66.5 -32.5t-47.5 -21t-21.5 -8.5l-28 74q1 0 25.5 10t63 28.5t86 45t94.5 60.5h-260v78h352q23 25 41 50v59h-318v79h517q41 0 73 6t53.5 12.5t33.5 12.5l12 6l41 -67q-1 -1 -16 -8.5t-42 -16.5t-66 -16.5t-89 -7.5h-120v-83l-7 -10v0z" />
    <glyph glyph-name="uni4E56" unicode="&#x4e56;" 
d="M273 330h78v-420h-78v77l-177 -61l-26 75l203 69v107h-164v78h164v75zM920 363h-381v-509h-78v509h-382v79h382v76h-326v79h516q42 0 78 5.5t62 13.5q31 9 57 20l34 -71q-2 -1 -19.5 -8.5t-48.5 -16t-72.5 -15.5t-90.5 -7h-112v-76h381v-79zM921 85v-82
q0 -37 -26.5 -63.5t-63.5 -26.5h-196v417h78v-120l152 50l25 -74l-177 -59v-135h118q11 0 11 11v82h79z" />
    <glyph glyph-name="uni4E58" unicode="&#x4e58;" 
d="M721 213v-69h91q12 0 12 12v33h78v-33q0 -38 -26 -64t-64 -26h-169v282h78v-55l167 38l18 -77zM276 174v54h-174v79h174v41h79v-290h-79v36l-174 -39l-17 77zM931 385h-392v-280l390 -166l-31 -73l-359 153v-165h-78v165q-27 -16 -64.5 -36t-83 -41t-99 -42t-112.5 -39
l-23 75q70 21 131.5 47t111 50.5t85.5 45.5t54 32v274h-392v78h392v55h-336v79h516q42 0 77.5 7.5t61.5 16.5t41 16.5l15 7.5l39 -68l-20 -10t-49 -20t-73 -20t-92 -9h-102v-55h392v-78z" />
    <glyph glyph-name="uni4E59" unicode="&#x4e59;" 
d="M118 41q128 61 236 131.5t192 136t142 120t87 84.5h-671v78h687v15h78v-107l-9 -11q-3 -3 -25.5 -27.5t-64 -64t-101 -90t-134.5 -106t-166 -112.5t-195 -108v-30h647q11 0 11 12v84h79v-84q0 -38 -26.5 -64t-63.5 -26h-725v158l22 11v0z" />
    <glyph glyph-name="uni4E5C" unicode="&#x4e5c;" 
d="M936 -56q0 -38 -26 -64t-64 -26h-629v458l-139 -32l-17 77l156 36v237h79v-219l559 130v-317q0 -42 -29 -71t-71 -29h-125v79h125q9 0 15.5 6t6.5 15v218l-481 -111v-399h550q5 0 8.5 3.5t3.5 8.5v84h78v-84z" />
    <glyph glyph-name="uni4E5D" unicode="&#x4e5d;" 
d="M869 37h78v-87q0 -37 -26 -63t-64 -26h-178v555h-294v-36q0 -73 -19.5 -139.5t-49 -123.5t-64 -103.5t-65 -80t-51.5 -53t-24 -21.5l-25 30l-25 30q0 1 18.5 17.5t45.5 46.5t58.5 72t58.5 93t45 109.5t18 122.5v36h-203v79h203v125h79v-125h294v19h78v-575h100q5 0 8.5 3
t3.5 8v87z" />
    <glyph glyph-name="uni4E5E" unicode="&#x4e5e;" 
d="M278 607q-1 -2 -6.5 -14.5t-16.5 -32.5h659v-79h-706q-22 -32 -49.5 -65.5t-61.5 -62.5l-51 60q37 31 66.5 70t50.5 73.5t32 58l11 23.5zM821 68h79v-117q0 -37 -26.5 -63.5t-63.5 -26.5h-643v139l25 10q100 40 189.5 84.5t161.5 86.5t125 77t82 55h-572v79h586v19h79
v-127l-16 -12q-4 -3 -48.5 -35t-121.5 -79.5t-182 -103.5t-229 -107v-7h564q11 0 11 11v117z" />
    <glyph glyph-name="uni4E5F" unicode="&#x4e5f;" 
d="M936 28v-84q0 -38 -26 -64t-64 -26h-672v465l-106 -18l-13 78l119 20v148h79v-135l204 35v183h79v-170l336 57v-324q0 -38 -26 -64t-64 -26h-135v78h135q12 0 12 12v231l-258 -44v-338h-79v325l-204 -35v-400h593q5 0 8.5 3.5t3.5 8.5v84h78z" />
    <glyph glyph-name="uni4E60" unicode="&#x4e60;" 
d="M895 621v-672q0 -38 -26 -64t-64 -26h-225v78h225q11 0 11 12v575h-710v79h710v18h79zM500 316l-36 -70l-263 138l37 69zM724 172l-566 -271l-34 71l566 271z" />
    <glyph glyph-name="uni4E61" unicode="&#x4e61;" 
d="M919 259v-110l-15 -12q-70 -57 -156 -100t-174.5 -74.5t-172.5 -52.5t-151 -34t-109.5 -18.5t-47.5 -5.5l-8 78q1 0 30.5 3.5t79 12t114 23t136.5 35t146 49t142 65.5h-616v77l311 135h-286v72l352 241l44 -65l-248 -170h320l200 87l31 -72l-523 -227h522v63h79z" />
    <glyph glyph-name="uni4E66" unicode="&#x4e66;" 
d="M827 230h78v-264q0 -38 -26 -64t-63 -26h-172v79h172q11 0 11 11v172h-362v-285h-78v285h-320v78h320v198h-260v79h260v137h78v-137h247v16h79v-293h36v14zM712 414h-247v-198h247v198zM871 449l-127 123l55 57l127 -124z" />
    <glyph glyph-name="uni4E69" unicode="&#x4e69;" 
d="M306 502h214v-79h-214v-179h119v19h78v-321q0 -38 -26 -64t-64 -26h-331v392h145v378h79v-120zM161 166v-236h252q12 0 12 12v224h-264zM930 17v-75q0 -37 -26 -63.5t-64 -26.5h-254v770h79v-691h175q11 0 11 11v75h79z" />
    <glyph glyph-name="uni4E70" unicode="&#x4e70;" 
d="M817 543h-703v78h782v-107l-119 -175l-65 45l105 154v5zM933 -73l-43 -65l-317 209l29 45h-116q-33 -38 -73 -71t-81 -60.5t-80 -49t-70 -37t-51.5 -24t-23.5 -9.5l-14 37l-15 36q1 0 30.5 13t73.5 36t96 55.5t98 73.5h-283v79h356q17 24 29 50t17 53v211h79v-217l-1 -3
q-8 -50 -32 -94h381v-79h-274zM182 395l207 -102l-35 -71l-206 102zM421 346l-207 101l35 71l207 -102z" />
    <glyph glyph-name="uni4E71" unicode="&#x4e71;" 
d="M360 398h219v-78h-219v-115h110v15h79v-271q0 -38 -26.5 -64t-63.5 -26h-367v346h189v115h-219v78h219v115h-191v78h291q31 0 58.5 5t48.5 12q25 7 45 17l35 -70q-1 -1 -16.5 -7.5t-41 -14t-59 -14t-70.5 -6.5h-21v-115zM171 126v-189h288q5 0 8 3.5t3 8.5v177h-299z
M948 24v-75q0 -37 -26 -63.5t-64 -26.5h-225v774h79v-695h146q11 0 11 11v75h79z" />
    <glyph glyph-name="uni4E73" unicode="&#x4e73;" 
d="M925 20v-74q0 -38 -26 -64t-64 -26h-225v770h79v-691h146q12 0 12 11v74h78zM347 602q43 0 77 5t57.5 11.5t36.5 12l13 5.5l36 -70q-1 -1 -16.5 -7.5t-44 -14.5t-68.5 -14.5t-91 -6.5h-258v79h258zM159 516l91 -105l-59 -52l-92 105zM328 359l-91 105l59 52l91 -105z
M557 145l9 -78l-203 -22v-100q0 -38 -26 -64t-64 -26h-139v78h139q5 0 8 3.5t3 8.5v92l-199 -22l-9 79l208 22v72l158 83h-347v78h280l117 165l64 -46l-84 -119h72v-114l-181 -95v-16z" />
    <glyph glyph-name="uni4E7E" unicode="&#x4e7e;" 
d="M312 16h178v-79h-178v-83h-79v83h-179v79h179v58h-153v378h153v43h-168v78h168v57h79v-57h168v-78h-168v-43h71v16h79v-304q0 -38 -26.5 -64t-63.5 -26h-60v-58zM159 310h224v64h-224v-64zM372 153q11 0 11 11v68h-224v-79h213zM596 474q-11 -23 -24 -45.5t-30 -43.5
l-63 46q24 33 41.5 68.5t29.5 65t18 49l6 19.5l76 -19q-1 -2 -5.5 -18.5t-14.5 -42.5h300v-79h-334zM940 70v-126q0 -38 -26 -64t-64 -26h-297v110l12 12q1 0 27 26.5t65 71.5t83.5 104t82.5 124h-249v79h249v14h79v-112l-5 -9q-34 -60 -73.5 -115t-76 -100t-67 -77.5
t-46.5 -48.5h216q11 0 11 11v126h79z" />
    <glyph glyph-name="uni4E86" unicode="&#x4e86;" 
d="M124 614h770v-119l-337 -197v-348q0 -38 -26.5 -64t-63.5 -26h-169v79h169q11 0 11 11v394l329 191h-683v79z" />
    <glyph glyph-name="uni4E88" unicode="&#x4e88;" 
d="M924 292v-100l-76 -129l-68 39l65 111v1h-279v-268q0 -38 -26 -64t-64 -26h-140v78h140q12 0 12 12v268h-396v78h386l-124 125l56 56l98 -99l236 158h-567v79h677v-100l-290 -194l25 -25h335z" />
    <glyph glyph-name="uni4E89" unicode="&#x4e89;" 
d="M864 245h75v-78h-75v-75q0 -37 -26 -63.5t-64 -26.5h-243v-58q0 -37 -26 -63.5t-64 -26.5h-148v79h148q11 0 11 11v58h-293v79h293v86h-392v78h392v84h-297v79h426l94 74h-454q-22 -26 -48.5 -52.5t-56.5 -51.5l-50 61q40 33 72.5 69.5t55.5 67t35.5 50.5l12.5 20l68 -40
q-1 -2 -8 -13.5t-21 -31.5h533v-69l-106 -84h78v18h78v-181zM531 245h255v84h-255v-84zM786 167h-255v-86h243q5 0 8.5 3t3.5 8v75z" />
    <glyph glyph-name="uni4E8B" unicode="&#x4e8b;" 
d="M447 -66q12 0 12 11v26h-340v79h340v32h-397v78h397v31h-340v78h340v29h-303v189h303v27h-374v79h374v37h78v-37h376v-79h-376v-27h202v14h79v-113q0 -38 -26.5 -64t-63.5 -26h-191v-29h254v18h78v-127h59v-78h-59v-21q0 -38 -26 -64t-64 -26h-242v-26q0 -38 -26 -64
t-64 -26h-122v79h122zM537 408v-32h191q5 0 8 3.5t3 8.5v20h-202zM459 376v32h-224v-32h224zM537 160h254v31h-254v-31zM537 50h242q12 0 12 11v21h-254v-32z" />
    <glyph glyph-name="uni4E8C" unicode="&#x4e8c;" 
d="M908 -28h-814v78h814v-78v0zM855 417h-707v79h707v-79v0z" />
    <glyph glyph-name="uni4E8D" unicode="&#x4e8d;" 
d="M867 536h-730v78h730v-78zM937 378v-78h-391v-356q0 -38 -26 -64t-64 -26h-140v78h140q12 0 12 12v356h-403v78h872z" />
    <glyph glyph-name="uni4E8E" unicode="&#x4e8e;" 
d="M537 320h402v-78h-402v-295q0 -38 -26.5 -64t-63.5 -26h-170v78h170q11 0 11 12v295h-403v78h403v211h-315v79h707v-79h-313v-211z" />
    <glyph glyph-name="uni4E8F" unicode="&#x4e8f;" 
d="M849 524h-704v79h704v-79zM64 399h865v-78h-580l-106 -141h525v21h79v-250q0 -38 -26.5 -64t-63.5 -26h-386v78h386q11 0 11 12v150h-608v99l91 121h-187v78z" />
    <glyph glyph-name="uni4E91" unicode="&#x4e91;" 
d="M831 606v-78h-663v78h663zM501 292l-298 -340l530 57l-73 106l65 44l181 -262l-65 -45l-57 84l-681 -74v96l293 334h-329v79h866v-79h-432z" />
    <glyph glyph-name="uni4E92" unicode="&#x4e92;" 
d="M815 314l-168 -368h286v-79h-869v79h497l72 158h-451v105l153 323h-241v79h808v-79h-480l-54 -114h447v-104zM261 183h408l67 148v8h-405l-70 -148v-8z" />
    <glyph glyph-name="uni4E93" unicode="&#x4e93;" 
d="M79 353h854v-78h-194v-414h-78v414h-310v-81q0 -54 -17 -99t-42.5 -81.5t-55.5 -64.5t-56.5 -47t-45.5 -29.5t-21 -11.5l-17 36l-17 35q1 0 15 8t35.5 23.5t46.5 37.5t46.5 51.5t35.5 64.5t14 77v81h-193v78zM854 528h-697v79h697v-79z" />
    <glyph glyph-name="uni4E94" unicode="&#x4e94;" 
d="M805 388v-443h141v-79h-889v79h182l72 341h-163v78h179l36 171h-256v78h788v-78h-452l-36 -171h320v24h78zM391 286l-72 -341h408v341h-336z" />
    <glyph glyph-name="uni4E95" unicode="&#x4e95;" 
d="M758 202h188v-78h-188v-259h-78v259h-356q-18 -64 -45.5 -114t-54.5 -85t-47.5 -54t-22.5 -21l-25 30l-25 30l15.5 15t37 42.5t45 67t40.5 89.5h-188v78h207q2 16 3.5 32t1.5 33v147h-182v79h182v137h78v-137h336v137h78v-137h158v-79h-158v-212zM680 202v212h-336v-147
q0 -17 -1 -33t-3 -32h340z" />
    <glyph glyph-name="uni4E98" unicode="&#x4e98;" 
d="M919 533h-838v79h838v-79zM63 -60h874v-79h-874v79zM753 452v19h78v-357q0 -38 -26 -64t-64 -26h-572v428h584zM247 374v-92h506v92h-506zM741 103q12 0 12 11v90h-506v-101h494z" />
    <glyph glyph-name="uni4E9A" unicode="&#x4e9a;" 
d="M666 537v-594h279v-79h-889v79h280v594h-249v79h828v-79h-249zM415 537v-594h172v594h-172zM178 408l111 -314l-74 -26l-111 314zM787 68l-74 26l111 314l74 -26z" />
    <glyph glyph-name="uni4E9B" unicode="&#x4e9b;" 
d="M151 80h698v-78h-698v78zM936 -65v-78h-872v78h872zM82 115l-11 78l52 7v376h79v-364l93 13v405h79v-164h111v-79h-111v-150l136 20l11 -78zM932 231q0 -38 -26 -64t-64 -26h-291v489h78v-207q48 16 91 40.5t75 47.5t51 39.5t20 17.5l54 -57q-2 -2 -26 -23t-63 -48
t-91 -55t-111 -45v-120h213q11 0 11 11v77h79v-77z" />
    <glyph glyph-name="uni4E9F" unicode="&#x4e9f;" 
d="M948 -67v-78h-894v78h894zM722 544h-599v79h739v-109l-319 -122v-337q0 -37 -26.5 -63t-63.5 -26h-112v78h112q11 0 11 11v391zM402 146q0 -38 -26.5 -64t-63.5 -26h-217v367h228v19h79v-296zM173 134h139q5 0 8 3.5t3 8.5v198h-150v-210zM910 292q0 -2 -4.5 -12
t-14.5 -26.5t-26.5 -38t-40.5 -45.5l109 -75l-45 -65l-126 87q-31 -23 -70.5 -46.5t-90.5 -44.5l-31 73q38 16 68 32.5t55 33.5l-92 64l44 64l113 -77q36 34 53.5 60t22.5 37v19h-222v79h222v19h78v-132z" />
    <glyph glyph-name="uni4EA0" unicode="&#x4ea0;" 
d="M550 503l-63 -47l-89 118l63 47zM54 435h892v-79h-892v79z" />
    <glyph glyph-name="uni4EA1" unicode="&#x4ea1;" 
d="M946 413h-691v-478h616v-78h-695v556h-122v79h453l-74 104l64 46l89 -125l-34 -25h394v-79v0z" />
    <glyph glyph-name="uni4EA2" unicode="&#x4ea2;" 
d="M939 531v-78h-871v78h409l-39 69l69 38l60 -107h372zM842 21h79v-74q0 -38 -26.5 -64t-63.5 -26h-167v443h-347v-91q0 -51 -13 -97t-33 -84.5t-43 -69t-43.5 -52.5t-34.5 -34.5t-16 -13.5l-49 62l12 10t29 28t36.5 44t36.5 58t28 69.5t11 79.5v169h426v18h78v-461h89
q11 0 11 12v74z" />
    <glyph glyph-name="uni4EA4" unicode="&#x4ea4;" 
d="M939 544v-79h-875v79h399l-36 53l66 43l64 -96h382zM324 395q-1 -2 -14 -20t-36 -46t-55 -63t-71 -69l-52 58q36 32 66 65t51.5 59t33.5 43l12 17zM845 204l-163 191l60 51l162 -191zM753 273q-4 -5 -48 -44t-119 -96l323 -211l-43 -66l-348 227q-84 -60 -187 -120.5
t-218 -106.5l-29 73q101 41 193 93.5t170 106.5l-186 121l43 66l211 -138q42 31 76 58.5t58 48t37 32.5t13 13z" />
    <glyph glyph-name="uni4EA5" unicode="&#x4ea5;" 
d="M932 535v-79h-501l-185 -165h200q53 32 105.5 67.5t101.5 77.5l51 -60q-62 -52 -129 -96.5t-132 -81.5t-124 -65.5t-104.5 -48t-74 -30.5t-31.5 -12l-13 37l-13 37q1 0 18 6.5t46 19t69 30t86 40.5h-188v66l199 178h-250v79h416l-42 64l66 43l67 -102l-9 -5h371zM854 276
q-60 -56 -122.5 -103t-122.5 -85l282 -165l-39 -68l-319 186q-49 -29 -93.5 -51.5t-82.5 -39.5q-53 -25 -98 -42.5t-77.5 -29t-51.5 -17.5t-20 -6l-21 76q1 0 32.5 10t84 30t122.5 52t149 77t162 103t162 131z" />
    <glyph glyph-name="uni4EA6" unicode="&#x4ea6;" 
d="M938 510v-79h-240v-487q0 -38 -26 -64t-64 -26h-111v79h111q12 0 12 11v487h-236v-151q0 -61 -15.5 -115.5t-39 -100.5t-51.5 -82.5t-52.5 -62.5t-41.5 -40.5t-19 -16.5l-24 31l-24 31l14.5 12.5t35.5 34.5t45.5 54t45 71.5t34.5 85.5t14 98v151h-243v79h413l-70 92
l63 48l92 -122l-24 -18h401zM140 52l-70 36l119 226l69 -37zM806 314l118 -226l-69 -36l-119 225z" />
    <glyph glyph-name="uni4EA7" unicode="&#x4ea7;" 
d="M931 565v-79h-852v79h378l-26 40l66 42l53 -82h381zM699 325h199v-78h-687v-83q0 -55 -14.5 -110t-31.5 -99t-32.5 -72.5t-16.5 -31.5l-68 40l13.5 25t29 64.5t28.5 88t13 95.5v161h170l-58 108l69 37l68 -125l-37 -20h268l67 143l71 -33z" />
    <glyph glyph-name="uni4EA8" unicode="&#x4ea8;" 
d="M943 560v-79h-882v79h387l-23 31l64 46l56 -77h398zM827 328q0 -38 -26.5 -64t-63.5 -26h-556v200h567v14h79v-124zM748 359h-489v-42h478q11 0 11 11v31zM99 196h759v-72l-323 -130v-52q0 -37 -26 -63.5t-64 -26.5h-151v79h151q11 0 11 11v105l175 70h-532v79z" />
    <glyph glyph-name="uni4EA9" unicode="&#x4ea9;" 
d="M940 549v-78h-882v78h391l-29 49l68 40l53 -89h399zM773 433h79v-492q0 -38 -26 -64t-64 -26h-632v567h643v15zM461 103h-252v-174h252v174zM461 339h-252v-157h252v157zM773 103h-234v-174h223q5 0 8 3.5t3 8.5v162zM773 339h-234v-157h234v157z" />
    <glyph glyph-name="uni4EAB" unicode="&#x4eab;" 
d="M557 44h381v-79h-381v-23q0 -37 -26.5 -63.5t-63.5 -26.5h-112v79h112q11 0 11 11v23h-421v79h421v58l139 47h-496v79h755v-74l-319 -108v-2zM944 571v-79h-886v79h402l-21 33l65 43l50 -76h390zM849 346q0 -38 -26.5 -64t-63.5 -26h-592v199h603v15h79v-124zM770 377
h-525v-43h514q5 0 8 3.5t3 8.5v31z" />
    <glyph glyph-name="uni4EAC" unicode="&#x4eac;" 
d="M935 563v-78h-870v78h388l-29 44l66 43l57 -87h388zM854 244q0 -38 -26.5 -64t-63.5 -26h-226v-210q0 -38 -26 -64t-64 -26h-104v79h104q5 0 8.5 3t3.5 8v210h-302v273h617v13h79v-196zM764 232q5 0 8 3.5t3 8.5v104h-539v-116h528zM717 137l181 -228l-61 -49l-182 228z
M74 -84l20 18.5t49 48.5t62 68.5t60 80.5l66 -42q-29 -45 -64 -86.5t-66 -74t-52 -52t-23 -21.5l-26 30z" />
    <glyph glyph-name="uni4EAD" unicode="&#x4ead;" 
d="M943 567v-79h-885v79h400l-21 40l69 37l41 -77h396zM834 356q0 -37 -26 -63t-64 -26h-570v185h582v15h78v-111zM756 373h-504v-28h492q5 0 8.5 3t3.5 8v17zM852 243h79v-167h-79v74h-702v-74h-79v152h781v15zM203 115h598v-79h-248v-90q0 -37 -26 -63.5t-64 -26.5h-126
v79h126q5 0 8.5 3t3.5 8v90h-272v79z" />
    <glyph glyph-name="uni4EAE" unicode="&#x4eae;" 
d="M923 553v-79h-849v79h372l-26 35l64 46l59 -81h380zM808 339q0 -38 -26.5 -64t-63.5 -26h-531v199h542v15h79v-124zM729 370h-464v-43h453q11 0 11 12v31zM91 218h731v10h79v-152h-79v63h-652v-63h-79v142zM829 -11h79v-46q0 -38 -26.5 -64t-63.5 -26h-169v173h-322v-4
q0 -29 -14.5 -52.5t-36 -42t-48 -31.5t-50 -22t-41.5 -14t-23 -6l-18 77q24 5 50.5 15t49 22t37.5 26t15 28v83h401v10h79v-183h90q11 0 11 11v46z" />
    <glyph glyph-name="uni4EB2" unicode="&#x4eb2;" 
d="M723 85l190 -171l-52 -58l-191 171zM64 -74q1 0 22 13.5t50.5 36t62 52t56.5 62.5l64 -45q-27 -39 -63.5 -72.5t-69.5 -58.5t-56.5 -40t-25.5 -16zM908 478h-816v78h365l-30 48l67 42l56 -90h358v-78zM946 354v-79h-408v-86h366v-79h-366v-166q0 -38 -26 -64t-64 -26h-83
v79h83q5 0 8.5 3t3.5 8v166h-365v79h365v86h-406v79h206l-39 68l68 39l62 -107h280l65 109l68 -40l-41 -69h223z" />
    <glyph glyph-name="uni4EB3" unicode="&#x4eb3;" 
d="M905 578v-79h-811v79h354l-17 26l66 43l45 -69h363zM823 374q0 -37 -26 -63.5t-64 -26.5h-560v186h571v11h79v-107zM744 391h-492v-28h481q11 0 11 11v17zM114 261h688v14h78v-174h-78v81h-610v-88h-78v167zM540 -38v-30h246q11 0 11 11v21h79v-21q0 -37 -26.5 -63.5
t-63.5 -26.5h-325v105l-352 -20l-4 79l356 20v25h-208v78h322q24 0 50 4t47.5 9.5t35.5 9.5l14 4l25 -75q-2 0 -18 -5t-40.5 -10.5t-54.5 -10t-59 -4.5h-35v-21l350 20l4 -79z" />
    <glyph glyph-name="uni4EB5" unicode="&#x4eb5;" 
d="M946 495h-889v78h397l-15 26l68 40l39 -66h400v-78zM281 350v-37l67 5l5 -78l-72 -5v-72q0 -26 -19 -44.5t-45 -18.5h-110v79h95v50l-111 -8l-5 79l116 8v42h-110v79h110v41h79v-41h72v-79h-72zM966 270v-36q0 -38 -26.5 -64t-63.5 -26h-94v217h-128q-3 -23 -11 -44
t-19 -39l90 -44l-34 -71l-112 54q-24 -20 -49.5 -34t-46.5 -23.5t-35 -14.5t-16 -6l-12 38l-11 37l8 3t20.5 8t28 13t32.5 18l-41 20l34 71l72 -35q18 24 22 49h-144v78h146v31h78v-31h128v19h78v-236h16q5 0 8 3.5t3 8.5v36h79zM744 -31q39 -11 84 -19.5t98 -12.5l-6 -79
q-117 9 -203 36.5t-144.5 59t-91.5 60t-43 39.5q-40 -11 -85 -22.5t-96 -22.5v-55l160 28l14 -78l-276 -47l-14 77l37 7v54q-27 -4 -54.5 -7.5t-56.5 -5.5l-7 78q103 9 197.5 30t167 42.5t116 38.5t44.5 17l30 -73q-3 -1 -26.5 -10.5t-64.5 -23.5q19 -16 51.5 -37t79.5 -42
l150 111l47 -63z" />
    <glyph glyph-name="uni4EB6" unicode="&#x4eb6;" 
d="M875 268q0 -18 -7 -34t-18.5 -27.5t-27 -18.5t-33.5 -7h-643v321h658v11h71v-245zM804 431h-586v-178h571q6 0 10.5 4.5t4.5 10.5v163zM786 328q0 -26 -19 -45t-46 -19h-482v153h475v6h72v-95zM714 345h-404v-10h404v10zM784 177h71v-158q0 -18 -7 -34t-18.5 -27.5
t-27 -18.5t-33.5 -7h-615v235h630v10zM225 95v-10h559v10h-559zM769 4q9 0 14 9h-558v-9h544zM539 591h381v-72h-833v72h373l-9 18l65 31zM90 -78h838v-71h-838v71z" />
    <glyph glyph-name="uni4EBA" unicode="&#x4eba;" 
d="M554 432q-41 -208 -254 -412q-39 -37 -75 -66.5t-64 -50.5t-45.5 -32t-18.5 -12l-21 33l-20 33q1 1 28 19.5t69 52t92 80.5t96.5 104.5t83 123.5t51.5 139v174h79v-182zM592 288l353 -380l-57 -54l-353 381z" />
    <glyph glyph-name="uni4EBB" unicode="&#x4ebb;" 
d="M437 -146v502q-19 -20 -40 -39.5t-44 -36.5l-47 63q34 26 63.5 56.5t53.5 61.5t42.5 60.5t31 52t19 36t6.5 14.5l72 -32q-1 -3 -20.5 -42.5t-57.5 -94.5v-601h-79z" />
    <glyph glyph-name="uni4EBF" unicode="&#x4ebf;" 
d="M319 591q-1 -3 -23 -42.5t-64 -98.5h17v-596h-78v515q-32 -39 -69 -78l-57 55q49 51 87 100.5t64 89.5t39.5 65l13.5 25zM937 37v-86q0 -37 -26 -63.5t-64 -26.5h-510v140l16 11q107 77 188 152.5t137.5 138.5t90 108.5t44.5 63.5v31h-453v79h453v17h80v-148l-6 -9
q-2 -4 -30.5 -46.5t-86 -110t-145.5 -153t-209 -174.5v-21h431q5 0 8.5 3t3.5 8v86h78z" />
    <glyph glyph-name="uni4EC0" unicode="&#x4ec0;" 
d="M310 594q-2 -3 -19 -43t-50 -98v-599h-79v479q-15 -20 -32 -40.5t-36 -40.5l-57 54q48 51 85 106t62.5 101.5t38.5 77t13 31.5zM925 334v-78h-271v-402h-78v402h-271v78h271v285h78v-285h271z" />
    <glyph glyph-name="uni4EC1" unicode="&#x4ec1;" 
d="M313 592q-2 -4 -21.5 -42t-56.5 -93v-603h-78v500q-17 -18 -34.5 -36.5t-36.5 -35.5l-53 59q48 43 86.5 92.5t65.5 92t42 70.5t15 29zM865 435h-530v78h530v-78zM929 13v-79h-658v79h658z" />
    <glyph glyph-name="uni4EC2" unicode="&#x4ec2;" 
d="M311 594q-2 -4 -19 -41.5t-49 -92.5v-606h-79v494q-16 -20 -33 -39t-37 -37l-54 57q48 46 85 97t62 94.5t38 72.5t13 30zM924 501v-549q0 -38 -26 -64t-64 -26h-145v79h145q12 0 12 11v446h-315v-121q0 -56 -13.5 -108t-34.5 -97.5t-45 -83.5t-45.5 -65.5t-36 -43.5
t-16.5 -18l-28 28l-28 28l13 14t31.5 38t40.5 57.5t40.5 73.5t31 84.5t12.5 92.5v121h-133v79h133v137h78v-137h315v24h78z" />
    <glyph glyph-name="uni4EC3" unicode="&#x4ec3;" 
d="M32 308q50 47 90.5 102t69 102.5t44.5 79t16 32.5l71 -32q-1 -2 -6.5 -13.5t-15 -30.5t-24 -44.5t-32.5 -54.5v-595h-78v484q-19 -23 -39 -45t-42 -42zM919 583v-78h-218v-562q0 -37 -26 -63.5t-64 -26.5h-147v79h147q5 0 8.5 3t3.5 8v562h-273v78h569z" />
    <glyph glyph-name="uni4EC4" unicode="&#x4ec4;" 
d="M918 615v-79h-679v-307q0 -80 -18.5 -147.5t-41 -117t-42 -78t-21.5 -31.5l-62 49l17 25t36.5 68.5t36 102.5t16.5 129v386h758zM588 307q0 -64 -24 -122t-60.5 -108t-79.5 -90.5t-80.5 -69.5t-64 -45.5t-29.5 -18.5l-20 34l-19 34q1 0 23 14.5t55.5 39.5t72 60.5t71 78
t54.5 91.5t22 102v190h79v-190zM632 173l280 -261l-54 -58l-280 261z" />
    <glyph glyph-name="uni4EC5" unicode="&#x4ec5;" 
d="M329 595q-2 -3 -21 -39t-57 -87v-615h-79v521q-35 -38 -79 -73l-49 62q52 41 91.5 87t66.5 85.5t41.5 65.5t14.5 27zM936 -88l-55 -56l-236 230q-57 -56 -130 -114t-165 -118l-42 67q88 56 157 111.5t123 108.5l-231 225l54 57l232 -226q44 48 76 90t53 75t33 56t16 33
v46h-447v79h447v17h79v-158l-3 -6q-1 -3 -11.5 -26t-33.5 -61.5t-60 -89.5t-92 -110z" />
    <glyph glyph-name="uni4EC6" unicode="&#x4ec6;" 
d="M337 593q-2 -3 -19.5 -41t-49.5 -92h1v-606h-79v494q-36 -47 -81 -87l-53 58q48 42 86 94.5t65 99t42 78t15 32.5zM911 209l-47 -63l-243 179v-475h-78v769h78v-261l31 42z" />
    <glyph glyph-name="uni4EC7" unicode="&#x4ec7;" 
d="M304 594q-1 -3 -17 -37.5t-51 -87.5v-615h-79v512q-31 -36 -70 -73l-54 58q53 49 90.5 97.5t61 87t35 62.5t11.5 25zM944 4v-54q0 -38 -26 -64t-63 -26h-128v559h-213v-71q0 -62 -13.5 -122t-33.5 -114.5t-43.5 -100.5t-44 -80t-35 -54.5t-16.5 -22.5l-32 24l-31 24
q0 1 13 18.5t32 48.5t41 73.5t41 92t31.5 103.5t12.5 110v71h-108v79h108v121h78v-121h213v19h78v-578h50q11 0 11 11v54h78z" />
    <glyph glyph-name="uni4EC9" unicode="&#x4ec9;" 
d="M290 592q0 -2 -5 -12.5t-14 -28.5t-21.5 -41t-27.5 -50h1v-606h-79v490q-16 -22 -33 -42t-36 -40l-56 56q28 29 54 63t48 67.5t40 65t31 56t20 39t7 15.5zM937 27v-82q0 -37 -26 -63.5t-64 -26.5h-137v647h-263v-234q0 -89 -20 -162.5t-44 -127.5t-44.5 -84.5
t-22.5 -33.5l-31 24l-31 24q0 1 18 28t39.5 75t39.5 113.5t18 143.5v313h341v18h79v-665h58q11 0 11 11v82h79z" />
    <glyph glyph-name="uni4ECA" unicode="&#x4eca;" 
d="M603 362l-55 -56l-125 124l55 56zM180 281h640v-132l-336 -298l-52 59l310 274v18h-562v79zM944 332l-68 -41l-148 249h-383v78h428zM320 598q-22 -60 -57.5 -116t-69.5 -100t-59.5 -71.5t-27.5 -30.5l-28 28l-28 28l11 11.5t28.5 32t39.5 48t43.5 59.5t41 67t32.5 71z
" />
    <glyph glyph-name="uni4ECB" unicode="&#x4ecb;" 
d="M935 324l-66 -43l-163 253h-362v79h404zM330 593q-25 -69 -62 -128.5t-72.5 -103.5t-61 -70t-28.5 -28l-53 58l23.5 23.5t55.5 64t66.5 95t57.5 116.5zM661 360h78v-509h-78v509zM283 360h78v-184v-2q-5 -40 -18.5 -78.5t-31 -73.5t-36.5 -65t-35.5 -52.5t-28 -35.5
t-12.5 -15l-29 26l-30 26q1 1 21 25t44.5 63t47.5 88t30 99v179z" />
    <glyph glyph-name="uni4ECD" unicode="&#x4ecd;" 
d="M161 331q-33 -44 -70 -78l-53 59q29 26 54.5 59t47.5 67.5t39.5 68t29.5 60t19 42.5t7 17l73 -29q-1 -2 -5.5 -14t-13.5 -31.5t-21 -45t-28 -53.5v-596h-79v474zM823 -66q15 0 15 11v307h-209v67l143 197h-244v-248v-2q-6 -54 -20.5 -105t-33.5 -95.5t-39.5 -82t-38 -65
t-29.5 -43.5t-14 -18l-61 49l10.5 14t26 38.5t34.5 58.5t36.5 74.5t31 86.5t19.5 94v244h-95v78h501v-97l-121 -166h103v16h79v-402q0 -19 -7.5 -35.5t-20 -28.5t-30 -19t-36.5 -7h-78v79h78z" />
    <glyph glyph-name="uni4ECE" unicode="&#x4ece;" 
d="M656 118q-26 -61 -56 -108q-23 -38 -45 -67.5t-39.5 -50t-29 -31t-12.5 -11.5l-26 29l-26 30q17 15 35 37q16 18 36.5 45t41.5 62q19 32 39 73.5t36 91t26 107.5t10 123v169h79v-169q0 -69 -10.5 -130t-27.5 -115l243 -289l-60 -51zM90 -118l-28 28l9.5 10t24 28t33 44.5
t37.5 61.5q17 31 35 72.5t33 91t24.5 107.5t9.5 123v169h79v-169q0 -44 -4 -84.5t-11 -78.5l176 -176l-56 -56l-142 142q-24 -80 -56 -142t-61.5 -105.5t-51 -67t-24.5 -26.5z" />
    <glyph glyph-name="uni4ED1" unicode="&#x4ed1;" 
d="M799 277q-75 -44 -155 -82t-149.5 -67.5t-122.5 -49t-75 -26.5v-119h473q5 0 8 3.5t3 8.5v116h79v-116q0 -38 -26 -64t-64 -26h-552v488h79v-208q31 12 83 32t115 47t131.5 60t132.5 71zM769 613l178 -287l-67 -41l-155 249h-380v79h424zM46 339l24 22.5t56.5 60.5t67 90
t56.5 111l74 -27q-24 -67 -62 -124t-74 -99t-62.5 -67t-29.5 -27l-25 30z" />
    <glyph glyph-name="uni4ED3" unicode="&#x4ed3;" 
d="M691 137q11 0 11 11v127h-397v-339h493q12 0 12 11v106h78v-106q0 -37 -26 -63.5t-64 -26.5h-572v497h476v14h79v-220q0 -37 -26 -63.5t-64 -26.5h-135v79h135zM776 615l167 -287l-68 -39l-144 248h-391v78h436zM73 301l-28 27q1 1 22 24.5t51.5 64t64.5 94t60 113.5
l72 -31q-29 -65 -65 -122.5t-68 -100t-55 -68.5t-25 -28z" />
    <glyph glyph-name="uni4ED4" unicode="&#x4ed4;" 
d="M160 352q-31 -45 -71 -89l-58 53q46 51 83 107t63 102.5t40 77t14 31.5l72 -30q-2 -4 -18.5 -41t-48.5 -92h3v-617h-79v498zM581 -71q12 0 12 11v216h-292v78h292v101l190 183h-424v79h531v-85l-219 -210v-68h272v-78h-272v-216q0 -37 -26 -63.5t-64 -26.5h-120v79h120z
" />
    <glyph glyph-name="uni4ED5" unicode="&#x4ed5;" 
d="M138 343q-17 -21 -35 -41t-38 -40l-55 56q49 48 88 103.5t65.5 102.5t41 78t14.5 32l73 -30q-2 -4 -21 -45t-55 -101v-604h-78v489zM648 393h284v-78h-284v-382h239v-78h-556v78h239v382h-284v78h284v234h78v-234z" />
    <glyph glyph-name="uni4ED6" unicode="&#x4ed6;" 
d="M306 603q-2 -4 -19 -42t-49 -95v-607h-79v487q-27 -38 -60 -75l-59 53q46 51 82 105t60.5 99t37.5 74t13 30zM866 6h79v-56q0 -37 -26 -63.5t-64 -26.5h-491v488l-66 -12l-14 78l80 14v107h79v-94l145 25v159h78v-145l239 41v-340q0 -38 -26.5 -64t-63.5 -26h-75v79h75
q11 0 11 11v246l-160 -27v-353h-78v339l-145 -25v-422h412q11 0 11 11v56z" />
    <glyph glyph-name="uni4ED7" unicode="&#x4ed7;" 
d="M152 340q-17 -21 -34.5 -42t-37.5 -41l-56 55q51 52 91.5 108.5t69 104t44.5 78.5t16 32l71 -33l-7 -14t-16.5 -32.5t-26 -47.5t-35.5 -58v-596h-79v486zM788 389q-10 -73 -38.5 -140t-75.5 -128l280 -201l-46 -64l-285 205q-45 -45 -97 -84q-42 -31 -80.5 -53t-69 -36.5
t-49.5 -21.5t-21 -8l-25 75l17.5 6.5t45.5 20t64 34t74 48.5q21 16 40 32t36 33l-226 163l45 64l234 -168q81 105 99 231v28h-394v79h394v116h79v-116h137v-79h-137v-34z" />
    <glyph glyph-name="uni4ED8" unicode="&#x4ed8;" 
d="M45 312q51 52 92 108.5t69.5 104t44 78.5t15.5 32l71 -33l-7 -14t-16.5 -32.5t-26 -47.5t-35.5 -58v-596h-78v486q-17 -21 -35 -42t-38 -41zM817 -52q0 -38 -26 -64t-63 -26h-130v78h130q11 0 11 12v456h-417v78h417v140h78v-140h122v-78h-122v-456zM657 90l-63 -46
l-177 241l64 46z" />
    <glyph glyph-name="uni4ED9" unicode="&#x4ed9;" 
d="M148 331q-14 -19 -29.5 -37.5t-32.5 -35.5l-57 54q48 51 83.5 106.5t58.5 102.5t34.5 78t11.5 32l75 -24q-1 -2 -5.5 -14.5t-12.5 -33t-20.5 -48t-28.5 -58.5h1v-599h-78v477zM840 -142v21h-534v58v510h78v-490h187v663h79v-663h190v490h78v-589h-78z" />
    <glyph glyph-name="uni4EDD" unicode="&#x4edd;" 
d="M468 -67v293h-278v79h634v-79h-278v-293h357v-78h-791v78h356zM944 336l-67 -40l-148 245h-380v79h424zM75 313l-24 31l22 19.5t52.5 55.5t63 88t54.5 118l75 -25q-25 -74 -61.5 -132.5t-71 -99t-59.5 -63t-27 -23.5z" />
    <glyph glyph-name="uni4EDE" unicode="&#x4ede;" 
d="M310 606q-1 -2 -6 -16t-14.5 -37t-23.5 -52.5t-32 -62.5v-584h-79v463q-27 -35 -59 -65l-54 58q30 28 56 62.5t47.5 70t38.5 69t28.5 60t17.5 42.5t6 17zM931 604v-659q0 -37 -26 -63.5t-64 -26.5h-110v79h110q12 0 12 11v560h-250v-255q0 -50 -18.5 -98.5t-46 -91.5
t-60 -79t-61 -63t-49 -42.5t-22.5 -17.5l-24 32l-23 31l17 13.5t42 36.5t54 54.5t54 68t41.5 76t16.5 80.5v255h-164v79h493v20h78zM367 124l-71 34l106 226l71 -33z" />
    <glyph glyph-name="uni4EDF" unicode="&#x4edf;" 
d="M324 604q-1 -2 -6.5 -15t-16.5 -34.5t-26.5 -50t-36.5 -59.5v-591h-79v489q-31 -36 -72 -70l-50 60q53 44 93 96t66.5 97t40 75.5t13.5 31.5zM945 218v-78h-287v-286h-79v286h-288v78h288v278h-229v79h334q42 0 75.5 6.5t57 14.5t36 14.5l12.5 6.5l43 -66
q-2 -1 -17.5 -9.5t-44 -18.5t-69.5 -18.5t-93 -8.5h-26v-278h287z" />
    <glyph glyph-name="uni4EE1" unicode="&#x4ee1;" 
d="M279 607q-2 -3 -17.5 -46t-50.5 -108h2v-599h-79v475q-13 -18 -26.5 -36t-29.5 -37l-60 51q50 60 85.5 118t57.5 103.5t32.5 73.5l10.5 28zM915 547v-79h-525q-29 -64 -53.5 -99t-26.5 -37l-60 51l12.5 17t29.5 48t36 76.5t32 102.5l77 -17q-4 -17 -8 -32.5t-9 -30.5h495
zM830 72h78v-121q0 -38 -26 -64t-64 -26h-482v116l21 11q84 44 153.5 89t122.5 84.5t89.5 71t55.5 49.5h-414v79h423v15h78v-117l-11 -11q-2 -3 -30.5 -30.5t-81.5 -71t-131 -98t-179 -109.5h386q12 0 12 12v121z" />
    <glyph glyph-name="uni4EE3" unicode="&#x4ee3;" 
d="M311 606q0 -2 -5 -15t-14.5 -34.5t-23.5 -49.5t-33 -59v-594h-78v483q-32 -39 -71 -74l-53 58q52 47 90.5 101.5t63.5 100.5t37.5 77l12.5 31zM953 -9l-64 -134l-32 9q-1 0 -16 5.5t-38.5 17t-53.5 30.5t-61 46q-26 22 -52 52.5t-48.5 70.5t-39.5 90t-24 111l-223 -29
l-11 78l230 30v254h79v-244l330 44l11 -78l-338 -45q18 -170 138 -275q31 -27 59.5 -44t48.5 -26l35 71zM811 440l-147 123l51 60l147 -123z" />
    <glyph glyph-name="uni4EE4" unicode="&#x4ee4;" 
d="M610 374l-52 -59l-136 121l53 59zM178 288h630v-86l-239 -231l124 -40l-24 -75l-386 124l24 75l177 -57l218 211h-524v79zM757 618l185 -293l-67 -42l-162 256h-376v79h420zM318 592q-29 -67 -66.5 -123t-71 -97t-58 -64.5t-26.5 -25.5l-26 29l-27 29l22 22t53.5 59.5
t66.5 89.5t61 112z" />
    <glyph glyph-name="uni4EE5" unicode="&#x4ee5;" 
d="M732 449q-5 -75 -28 -147t-54 -136t-66.5 -118.5t-66 -94.5t-51.5 -64t-24 -27l-28 27l-29 27q0 1 19 22t47 58t61.5 88t63 110t51 125t26.5 134v177h79v-179v-2zM755 199l204 -309l-65 -43l-205 309zM353 505l160 -203l-62 -48l-160 202zM404 -10l-303 -133l-31 72
l56 25v674h79v-640l168 74z" />
    <glyph glyph-name="uni4EE8" unicode="&#x4ee8;" 
d="M292 606q-2 -3 -18 -43t-48 -98v-611h-78v491q-17 -22 -35 -42.5t-38 -40.5l-55 56q49 48 86 103t62 101.5t37 77.5t12 32zM902 490h-572v79h572v-79zM365 217v79h502v-79h-502zM287 -63h658v-78h-658v78z" />
    <glyph glyph-name="uni4EEA" unicode="&#x4eea;" 
d="M505 562l61 50l142 -174l-61 -49zM782 313q-19 -27 -42 -57t-50 -63l239 -280l-60 -51l-231 271q-60 -67 -134.5 -136.5t-166.5 -135.5l-46 63q91 66 164.5 134.5t131.5 134.5l-261 307l60 51l252 -297q23 28 42 54t36 49q33 47 57.5 87.5t41 69.5t24.5 46l8 17l72 -32
q-1 -2 -9.5 -19.5t-25 -48t-42 -72.5t-60.5 -92zM298 606q-2 -3 -17.5 -43t-47.5 -98v-611h-79v491q-17 -22 -35 -42.5t-38 -40.5l-55 56q49 48 86 103t62 101.5t37.5 77.5t12.5 32z" />
    <glyph glyph-name="uni4EEB" unicode="&#x4eeb;" 
d="M303 606q-2 -3 -17.5 -43t-47.5 -98v-611h-79v491q-17 -22 -35 -42.5t-38 -40.5l-55 56q49 48 86 103t62 101.5t37.5 77.5t12.5 32zM817 114l133 -221l-67 -41l-32 54l-561 -36v80l472 548l59 -51l-423 -492l407 26l-55 92zM322 194l-60 50l305 365l60 -50z" />
    <glyph glyph-name="uni4EEC" unicode="&#x4eec;" 
d="M308 464h79v-609h-79v609zM290 596q-2 -4 -21 -42.5t-54 -92.5h15v-607h-79v517q-15 -20 -31.5 -39t-33.5 -37l-56 55q42 43 77 92t59.5 90t38.5 68.5t14 28.5zM848 583h79v-636q0 -38 -26.5 -64t-63.5 -26h-135v78h135q5 0 8 3.5t3 8.5v543h-300v79h300v14zM411 625
l117 -155l-63 -47l-117 155z" />
    <glyph glyph-name="uni4EF0" unicode="&#x4ef0;" 
d="M310 596q-2 -3 -20 -38.5t-52 -86.5h11v-617h-78v527q-17 -20 -36 -39.5t-39 -37.5l-52 58q45 40 81 86.5t61 86t38.5 66.5l13.5 27zM413 477v-472l149 53l27 -74l-258 -92l-27 74l30 10v579h139q7 0 19.5 5.5t26.5 14t28.5 19.5t26.5 22l53 -59q-6 -5 -22 -18t-38 -27
t-46.5 -24.5t-47.5 -10.5h-60zM852 574h78v-558q0 -37 -26 -63t-64 -26h-96v78h96q5 0 8.5 3t3.5 8v465h-138v-626h-79v704h217v15z" />
    <glyph glyph-name="uni4EF2" unicode="&#x4ef2;" 
d="M298 606q-2 -3 -17.5 -43t-47.5 -98v-611h-79v491q-17 -22 -35 -42.5t-38 -40.5l-55 56q49 48 86 103t62 101.5t37.5 77.5t12.5 32zM832 468h79v-355q0 -37 -26.5 -63.5t-63.5 -26.5h-169v-169h-79v169h-258v430h258v170h79v-170h180v15zM573 102v273h-180v-273h180z
M832 375h-180v-273h169q11 0 11 11v262z" />
    <glyph glyph-name="uni4EF3" unicode="&#x4ef3;" 
d="M310 606q-2 -3 -17.5 -43t-47.5 -98v-611h-79v491q-17 -22 -35 -42.5t-38 -40.5l-55 56q49 48 86 102.5t61.5 101.5t37 78t12.5 32zM576 28l25 -75l-284 -96l-25 74l41 14v674h78v-204h171v-79h-171v-364zM862 74h78v-124q0 -37 -26 -63.5t-64 -26.5h-213v759h79v-217
l178 112l42 -67l-220 -138v-370h134q5 0 8.5 3t3.5 8v124z" />
    <glyph glyph-name="uni4EF5" unicode="&#x4ef5;" 
d="M673 162h274v-78h-274v-223h-78v223h-275v78h275v266h-174q-31 -56 -56 -92t-27 -39l-63 47q0 1 18 26t41.5 65.5t48 91.5t38.5 103l76 -21q-7 -26 -16.5 -51.5t-20.5 -50.5h447v-79h-234v-266zM312 607q-2 -4 -18 -46t-48 -102v-605h-78v481q-17 -22 -35 -43t-38 -41
l-55 57q49 48 86 104t61.5 104.5t37 81.5l12.5 33z" />
    <glyph glyph-name="uni4EF6" unicode="&#x4ef6;" 
d="M683 127h262v-79h-262v-187h-79v187h-283v79h283v272h-177q-13 -29 -28 -57t-33 -54l-65 44q28 41 49.5 89t36 89t22 69l7.5 28l77 -19q-1 -2 -9.5 -33.5t-24.5 -76.5h145v152h79v-152h221v-79h-221v-272zM318 606q-2 -3 -18 -43t-48 -98v-611h-78v491q-17 -22 -35 -42.5
t-38 -40.5l-55 56q49 48 86 102.5t61.5 101.5t37 78t12.5 32z" />
    <glyph glyph-name="uni4EF7" unicode="&#x4ef7;" 
d="M818 -138h-78v506h78v-506zM305 -92l8.5 12.5t21.5 34.5t28.5 51.5t29 63t23.5 70.5t12 74v154h78v-157q-3 -64 -24.5 -125.5t-45.5 -110.5t-44.5 -79.5t-22.5 -33.5zM838 614l124 -239l-70 -36l-102 197h-290v78h338zM270 377l16.5 20t39 53.5t46 77.5t37.5 92l76 -22
q-17 -54 -42.5 -103t-50 -86t-43 -59.5t-20.5 -24.5zM145 404q-32 -29 -68 -53l-43 65q43 29 78.5 66t61 70t39.5 56l14 23l68 -38q-1 -1 -6 -10t-15 -24t-23.5 -34.5t-31.5 -41.5h5v-630h-79v551z" />
    <glyph glyph-name="uni4EFB" unicode="&#x4efb;" 
d="M590 482h-227v78h369q33 0 59 6t43.5 13.5t26.5 14t10 7.5h-1l52 -59q-1 -1 -14 -10.5t-37 -20.5t-59 -20t-80 -9h-63v-210h272v-79h-272v-256h255v-78h-589v78h255v256h-272v79h272v210zM156 407q-19 -15 -38.5 -29.5t-40.5 -27.5l-41 67q47 29 88 66.5t71 71t47.5 56.5
t17.5 24l65 -45q-2 -3 -26 -34.5t-65 -74.5v-628h-78v554z" />
    <glyph glyph-name="uni4EFD" unicode="&#x4efd;" 
d="M765 538h-233v78h278l142 -244l-67 -40zM274 380l19 19t44.5 51.5t51.5 77t40 97.5l76 -20q-17 -62 -46 -113t-58 -88.5t-51.5 -59t-24.5 -23.5zM299 -78l20.5 18t46.5 49t51 73t35 92v90h-90v79h408v14h78v-388q0 -37 -26 -63t-63 -26h-149v78h149q11 0 11 11v295h-239
v-97l-1 -4q-11 -61 -40.5 -112t-60 -88.5t-55.5 -59t-27 -23.5zM164 403q-33 -30 -67 -52l-44 65q44 29 82 66.5t66 71t44.5 56.5t16.5 24l66 -43q-2 -3 -24.5 -34.5t-60.5 -74.5v-629h-79v550z" />
    <glyph glyph-name="uni4EFF" unicode="&#x4eff;" 
d="M610 516l-51 76l65 44l72 -107l-19 -13h268v-78h-432v-146h308v14h79v-360q0 -37 -26.5 -63t-63.5 -26h-86v79h86q11 0 11 10v268h-309q-5 -71 -30.5 -135t-55 -113.5t-54 -80t-26.5 -33.5l-59 53l11.5 13.5t28 36.5t35.5 55t35 69.5t27 78.5t11 84v196h-124v78h299z
M154 403q-16 -14 -33 -27.5t-35 -24.5l-44 65q44 29 82 66.5t66 71t44.5 56.5t16.5 24l66 -43q-2 -3 -24.5 -34.5t-60.5 -74.5v-629h-78v550z" />
    <glyph glyph-name="uni4F01" unicode="&#x4f01;" 
d="M758 534h-459v79h503l148 -241l-67 -42zM280 588q-23 -53 -50.5 -100.5t-52 -84.5t-41.5 -59.5t-18 -24.5l-62 49q0 1 16 22t39 55.5t49 80t47 94.5zM326 309v-371h192v488h78v-177h246v-79h-246v-232h348v-79h-882v79h185v371h79z" />
    <glyph glyph-name="uni4F09" unicode="&#x4f09;" 
d="M585 513l-52 75l64 45l75 -107l-19 -13h276v-79h-613v79h269zM864 2h79v-59q0 -37 -26 -63t-64 -26h-113v446h-264v-178q0 -56 -23 -105t-51 -86t-52.5 -59t-26.5 -24l-50 61l9.5 8.5t23 23t29.5 34.5t30 43.5t23 49.5t9 54v257h343v15h79v-461h34q11 0 11 10v59z
M157 403q-16 -14 -33 -27.5t-35 -24.5l-43 65q44 29 82 66.5t66 71t44.5 56.5t16.5 24l66 -43q-2 -3 -24.5 -34.5t-60.5 -74.5v-629h-79v550z" />
    <glyph glyph-name="uni4F0A" unicode="&#x4f0a;" 
d="M537 511h-182v78h430v15h78v-211h71v-79h-71v-112q0 -37 -26 -63t-63 -26h-210q-31 -61 -70 -108.5t-74 -80.5t-59.5 -51t-27.5 -20l-43 66q1 0 19 13t45.5 38t59.5 61t60 82h-119v78h159q16 39 23 80v43h-234v79h234v118zM785 314h-169v-51l-1 -4q-6 -35 -18 -68h177
q11 0 11 11v112zM785 511h-169v-118h169v118zM161 403q-17 -14 -33.5 -27.5t-34.5 -24.5l-44 65q44 29 82 66.5t66 71t44.5 56.5t16.5 24l66 -43q-2 -3 -24.5 -34.5t-60.5 -74.5v-629h-78v550z" />
    <glyph glyph-name="uni4F0D" unicode="&#x4f0d;" 
d="M154 397q-17 -14 -33.5 -27t-34.5 -25l-44 65q44 29 82 66.5t66 71t44.5 57l16.5 23.5l66 -43q-1 -1 -7 -10t-17 -24t-26.5 -34.5t-34.5 -40.5v-622h-78v543zM526 496h-192v79h570v-79h-298l-37 -170h207v14h78v-395h82v-79h-656v79h123l68 302h-112v79h129zM551 247
l-67 -302h292v302h-225z" />
    <glyph glyph-name="uni4F0E" unicode="&#x4f0e;" 
d="M166 397q-16 -14 -33 -27t-35 -25l-43 65q44 29 82 66.5t66 71t44 57l16 23.5l66 -43q-1 -1 -7 -10t-17 -24t-26 -34.5t-34 -40.5v-622h-79v543zM588 474h-253v78h253v69h78v-69h253v-78h-253v-112h141v14h79v-97l-4 -8q-1 -2 -11 -19.5t-31 -45t-55.5 -64t-85.5 -76.5
l240 -145l-40 -67l-269 161q-60 -40 -136 -79t-173 -75l-27 74q81 29 145 61t115 64l-195 118l40 67l227 -136q25 19 45 36t36 32q36 34 58 61.5t33 44.5h-441v79h231v112z" />
    <glyph glyph-name="uni4F0F" unicode="&#x4f0f;" 
d="M173 397q-16 -14 -33 -27t-35 -25l-43 65q43 29 81 66.5t66.5 71t45 57l16.5 23.5l66 -43q-1 -1 -7.5 -10t-17.5 -24t-26 -34.5t-34 -40.5v-622h-79v543zM566 428v190h79v-190h290v-78h-290v-29l-1 -3q-9 -57 -35 -112t-60.5 -105t-72.5 -93t-70.5 -75t-54.5 -51t-25 -21
l-49 61l19.5 17t49 45.5t64 67t66.5 83.5t56.5 94t33.5 98v23h-244v78h244zM867 -142l-234 323l64 46l233 -323zM805 442l-92 115l62 49l91 -114z" />
    <glyph glyph-name="uni4F10" unicode="&#x4f10;" 
d="M511 411v208h78v-198l302 38l10 -78l-312 -39v-45q0 -103 43 -179q48 35 86.5 66.5t64.5 55.5t40.5 38.5t14.5 15.5l58 -54q-2 -2 -17.5 -18t-43 -41t-67.5 -58t-90 -69q25 -26 57 -48q32 -21 61.5 -34t51.5 -19l21 87l76 -18l-38 -162l-36 6q-2 0 -17.5 3.5t-41 12
t-57 22.5t-64.5 37q-19 14 -39 30.5t-39 37.5q-54 -35 -116 -69.5t-132 -65.5l-31 72q66 29 124 61.5t109 65.5q-25 43 -40.5 98.5t-15.5 125.5v35l-191 -24l-10 78zM782 458l-139 98l46 64l138 -98zM164 393q-17 -14 -33.5 -27.5t-34.5 -25.5l-43 66q43 29 81.5 67.5
t67.5 73t46 59t17 25.5l66 -43q-2 -3 -25.5 -36.5t-63.5 -78.5v-619h-78v539z" />
    <glyph glyph-name="uni4F11" unicode="&#x4f11;" 
d="M576 468v152h79v-152h288v-79h-288v-529h-79v529h-51q-21 -104 -52 -197.5t-60 -165t-51 -114.5t-24 -47l-69 37q0 1 20 40.5t47.5 106.5t57.5 154.5t50 185.5h-138v79h270zM168 397q-17 -15 -34.5 -29t-36.5 -26l-44 65q44 29 82 66.5t66 71t44.5 56.5t16.5 24l66 -43
q-2 -3 -24 -34.5t-60 -73.5h3v-620h-79v543zM785 344l159 -451l-74 -26l-159 451z" />
    <glyph glyph-name="uni4F17" unicode="&#x4f17;" 
d="M81 -101l-22 32l13 10.5t33 30t43.5 49t45.5 67.5t39 85t23 103v149h79v-154l-1 -2q-7 -68 -29 -128l51 37l127 -175l-63 -46l-121 166q-25 -62 -57.5 -109t-62.5 -79.5t-51.5 -49.5t-23.5 -19zM707 270q-2 -27 -8 -53t-14 -51l36 25l193 -280l-65 -44l-179 260
q-25 -58 -58 -106t-63 -83t-51.5 -55.5t-24.5 -22.5l-25 31l-26 30l14.5 13t35.5 36t46.5 55.5t48.5 71.5t40 84t22 94v150h78v-153v-2zM749 543h-439v79h481l155 -233l-66 -43zM94 350l-29 26l18 21t42.5 55t52 79t47.5 93l73 -29q-22 -54 -51 -102.5t-56 -85.5
t-46.5 -59.5t-21.5 -24.5z" />
    <glyph glyph-name="uni4F18" unicode="&#x4f18;" 
d="M165 396q-17 -14 -34.5 -28t-37.5 -27l-42 66q48 31 86 70t64.5 73.5t41 58t14.5 24.5l69 -38q-1 -2 -7 -12t-16.5 -26.5t-26 -37.5t-35.5 -45h3v-620h-79v542zM516 446v176h79v-176h340v-78h-342q-5 -59 -18 -111.5t-30.5 -98t-38 -83.5t-39.5 -68q-24 -36 -46.5 -64
t-40.5 -47t-29.5 -29t-12.5 -11l-51 61l10.5 9t26.5 26.5t37 42.5t42 58q96 148 111 315h-212v78h214zM717 283v-340h126q10 0 10 11v83h79v-83q0 -37 -26 -63t-63 -26h-205v418h79zM802 448l-111 125l59 52l111 -125z" />
    <glyph glyph-name="uni4F19" unicode="&#x4f19;" 
d="M168 401q-18 -17 -38 -34.5t-42 -34.5l-48 63q51 39 91.5 80.5t68.5 76t43 57l15 22.5l67 -41q-2 -3 -27.5 -40.5t-72.5 -89.5h22v-606h-79v547zM947 -94l-59 -53l-242 274l58 52zM297 -83q1 0 20 15.5t48.5 44t64 68.5t66 90t55 108t30.5 123v246h79v-250l-1 -2
q-7 -74 -32.5 -139.5t-59.5 -121t-72 -100t-71 -76.5t-55.5 -50t-25.5 -20zM315 454l67 40l138 -236l-67 -40zM764 215l-64 46l165 229l64 -46z" />
    <glyph glyph-name="uni4F1A" unicode="&#x4f1a;" 
d="M803 618l147 -245l-67 -41l-125 207h-451v79h496zM290 596q-23 -49 -51.5 -95t-54 -81.5t-44 -58t-20.5 -24.5l-59 52q0 1 17 21.5t41.5 54t51.5 76.5t47 88zM235 409h541v-78h-541v78zM78 236h855v-79h-532l-158 -208l482 40l-47 76l67 42l138 -224l-66 -41l-45 72
l-628 -52v87l159 208h-225v79z" />
    <glyph glyph-name="uni4F1B" unicode="&#x4f1b;" 
d="M55 417q43 29 81 66.5t66 70.5t44.5 56.5l16.5 23.5l66 -43q-1 -1 -7 -10t-17 -24t-26 -34.5t-34 -40.5v-626h-79v548q-32 -29 -68 -53zM900 530h-461v-599h472v-79h-550v757h539v-79zM464 55q54 40 98 81t81 82l-162 195l60 50l153 -184q31 39 53.5 73.5t37.5 59.5
t22.5 40l7.5 15l72 -32l-10 -20t-26 -47t-43.5 -68t-62.5 -83l153 -184l-60 -51l-145 174q-37 -41 -82 -82t-99 -82z" />
    <glyph glyph-name="uni4F1E" unicode="&#x4f1e;" 
d="M539 456v-379h382v-78h-382v-143h-78v143h-384v78h384v379h78zM775 621l159 -232l-65 -44l-136 198h-420v78h462zM54 394q1 1 18.5 20t43.5 50.5t55.5 73.5t53.5 89l70 -36q-27 -51 -58.5 -96.5t-59 -79t-46.5 -54t-21 -22.5l-28 28zM246 394l134 -217l-68 -42l-133 218z
M819 353l-134 -218l-67 42l133 217z" />
    <glyph glyph-name="uni4F1F" unicode="&#x4f1f;" 
d="M166 -144v548q-32 -29 -68 -53l-43 66q43 29 81 66.5t66 70.5t44.5 56.5l16.5 23.5l66 -43q-1 -1 -7 -10t-17 -24t-26 -34.5t-34 -40.5v-626h-79zM867 184h79v-217q0 -37 -26.5 -63t-63.5 -26h-89v78h89q11 0 11 11v126h-230v-239h-79v239h-262v78h262v105h-211v79h211
v90h-262v79h262v101h79v-101h282v-79h-282v-90h231v-79h-231v-105h230v13z" />
    <glyph glyph-name="uni4F20" unicode="&#x4f20;" 
d="M503 295l-51 -93h441v-97l-184 -147l160 -32l-15 -77l-478 95l16 78l216 -44l182 145h-424v86l48 86h-117v79h160l53 96h-159v78h202l46 84l69 -38l-25 -46h266v-78h-310l-52 -96h399v-79h-443zM166 403q-17 -14 -33.5 -27t-34.5 -25l-44 66q44 29 82 66.5t66 70.5
t44.5 56.5l16.5 23.5l66 -43q-1 -1 -7 -10t-17 -24t-26.5 -34.5t-34.5 -40.5v-626h-78v547z" />
    <glyph glyph-name="uni4F22" unicode="&#x4f22;" 
d="M154 403q-33 -29 -67 -52l-44 66q43 29 81 66.5t66.5 70.5t45 56.5l16.5 23.5l66 -43q-1 -1 -7.5 -10t-17 -24t-26 -34.5t-34.5 -40.5v-626h-79v547zM290 -75q50 38 90 78.5t70 79.5t51 73.5t35 61.5h-191v81l117 197l68 -40l-95 -160h308v227h-392v79h562v-79h-91v-227
h102v-78h-102v-271q0 -37 -26 -63t-63 -26h-117v78h117q10 0 10 11v271h-119q-11 -26 -33 -66t-57 -88t-83.5 -100.5t-113.5 -101.5z" />
    <glyph glyph-name="uni4F24" unicode="&#x4f24;" 
d="M946 494h-503v4q-19 -32 -46 -68t-65 -71l-54 58q40 37 67 75.5t43.5 69.5t24 51l7.5 20l75 -22q0 -4 -14 -38h465v-79zM310 607q-2 -3 -21 -39.5t-55 -84.5h10v-627h-78v550q-16 -15 -33 -29t-35 -26l-44 66q43 28 77 66.5t58 73t37 59l13 24.5zM302 -80q47 43 81.5 90
t58.5 91.5t38 83t22 64.5h-133v78h142v118h79v-118h248v21h79v-401q0 -37 -26 -63t-63 -26h-128v78h128q10 0 10 11v302h-255q-6 -26 -20.5 -69.5t-41.5 -96.5t-67.5 -110.5t-98.5 -110.5z" />
    <glyph glyph-name="uni4F25" unicode="&#x4f25;" 
d="M946 259h-274q14 -30 36 -71.5t51.5 -87.5t67 -92t81.5 -85l-52 -59q-56 49 -101 107t-79 113.5t-57 102t-34 72.5h-134v-283l152 67l32 -72l-283 -124l-31 72l51 23v317h-81v79h81v289h79v-289h495v-79zM157 -144v548q-32 -29 -68 -53l-43 66q43 29 81 66.5t66.5 70.5
t45 56.5l16.5 23.5l66 -43q-1 -1 -7.5 -10t-17.5 -24t-26 -34.5t-34 -40.5v-626h-79zM826 588q-2 -2 -20.5 -22.5t-54 -52.5t-86.5 -71t-118 -77l-39 68q62 36 109.5 72t80.5 65.5t50 48.5l17 19z" />
    <glyph glyph-name="uni4F26" unicode="&#x4f26;" 
d="M166 404q-32 -29 -68 -53l-43 66q44 29 82 66.5t66 70.5t44 56.5l16 23.5l66 -43q-1 -1 -7 -10t-17 -24t-26 -34.5t-34 -40.5v-626h-79v548zM848 307q-3 -3 -32.5 -34.5t-78.5 -76.5t-113.5 -96.5t-137.5 -93.5v-70h359v110h79v-131q0 -24 -17 -40.5t-41 -16.5h-458v496
h78v-256q62 40 117 86t96.5 84.5t65.5 64t24 26.5zM826 620l139 -241l-68 -39l-117 201h-253v79h299zM276 379l19 22t44.5 56.5t51.5 78t40 87.5l75 -24q-16 -50 -44.5 -98.5t-56.5 -86.5t-49 -62.5t-23 -26.5l-29 27z" />
    <glyph glyph-name="uni4F27" unicode="&#x4f27;" 
d="M743 94q11 0 11 11v166h-295v-335h387q11 0 11 11v81h78v-81q0 -37 -26 -63t-63 -26h-466v492h374v12h78v-257q0 -38 -26 -64t-63 -26h-103v79h103zM163 404q-31 -28 -67 -53l-44 66q44 29 82 66.5t66 70.5t44.5 56.5l16.5 23.5l66 -43q-1 -1 -7.5 -10t-17 -24t-26 -34.5
t-34.5 -40.5v-626h-79v548zM810 621l140 -244l-68 -39l-117 205h-246v78h291zM264 377l17 20t41 54.5t51 80.5t47 99l73 -28q-22 -58 -51 -108t-55 -87.5t-45 -59.5t-20 -24z" />
    <glyph glyph-name="uni4F2A" unicode="&#x4f2a;" 
d="M867 476h78v-529q0 -37 -26 -63t-63 -26h-150v78h150q11 0 11 11v434h-234v-44v-2q-10 -72 -35 -134.5t-57 -114t-67 -92t-65 -68.5t-50.5 -43.5t-23.5 -17.5l-44 64q0 1 17.5 14t44 38t58.5 61t61 82t51.5 100.5t31.5 117.5v39h-209v78h107l-97 100l56 55l116 -118
l-37 -37h64v161h78v-161h234v17zM164 -144v548q-32 -29 -68 -53l-43 66q43 29 81 66.5t66 70.5t44.5 56.5l16.5 23.5l66 -43q-1 -1 -7 -10t-17 -24t-26 -34.5t-34 -40.5v-626h-79zM782 24l-142 185l63 48l141 -186z" />
    <glyph glyph-name="uni4F2B" unicode="&#x4f2b;" 
d="M307 -46h636v-78h-636v78zM164 413q-18 -17 -37.5 -32.5t-40.5 -29.5l-44 66q44 29 82 66t66 69.5t44.5 55.5l16.5 23l66 -44q-2 -2 -24 -32.5t-59 -71.5h9v-627h-79v557zM314 520h273l-40 69l68 40l62 -106l-5 -3h184v18h78v-216h-78v120h-463v-120h-79v198z" />
    <glyph glyph-name="uni4F2F" unicode="&#x4f2f;" 
d="M325 590q-1 -1 -7.5 -10t-17 -24t-26 -34t-34.5 -41v-626h-79v548q-31 -28 -67 -53l-44 66q44 29 82 66.5t66 70.5t44.5 56.5l16.5 23.5zM839 533h78v-589q0 -37 -26 -63t-63 -26h-476v656h127l102 125l61 -50l-61 -75h258v22zM431 433v-207h408v207h-408zM828 -67
q11 0 11 11v204h-408v-215h397z" />
    <glyph glyph-name="uni4F30" unicode="&#x4f30;" 
d="M163 -144v547q-17 -14 -33.5 -27t-34.5 -25l-44 66q44 29 82 66.5t66 70.5t44.5 56.5l16.5 23.5l66 -43q-1 -1 -7 -10t-17 -24t-26.5 -34.5t-34.5 -40.5v-626h-78zM667 508h280v-78h-280v-162h158v17h78v-342q0 -37 -26 -63t-63 -26h-461v414h236v162h-280v78h280v117h78
v-117zM825 189h-393v-257h382q11 0 11 11v246z" />
    <glyph glyph-name="uni4F32" unicode="&#x4f32;" 
d="M844 20h79v-76q0 -38 -26 -64t-64 -26h-342v426h79v-186q57 30 103.5 62.5t80.5 60t53 46l19 18.5l57 -54q-2 -2 -25.5 -25t-64.5 -55.5t-98 -70.5t-125 -70v-73h263q11 0 11 11v76zM46 417q43 28 80 65.5t63.5 70.5t42 56.5l15.5 23.5l67 -40q-2 -3 -22.5 -34.5
t-57.5 -75.5h16v-627h-78v561q-19 -17 -39.5 -34t-42.5 -32zM285 -107q32 55 49 114.5t24.5 116t8 105.5t0.5 85q-1 9 -1 16.5v14.5v254h79h393v15h79v-191q0 -38 -26 -64t-64 -26h-382v-18q1 -39 0 -92.5t-9 -114.5t-27.5 -126.5t-55.5 -127.5zM445 520v-108h382
q11 0 11 11v97h-393z" />
    <glyph glyph-name="uni4F34" unicode="&#x4f34;" 
d="M160 -144v548q-31 -28 -67 -53l-44 66q43 29 81 66.5t66.5 70.5t45 56.5l16.5 23.5l66 -43q-1 -1 -7.5 -10t-17 -24t-26 -34.5t-34.5 -40.5v-626h-79zM584 -144v146h-273v79h273v174h-227v78h227v297h79v-297h237v-78h-237v-174h283v-79h-283v-146h-79zM456 382l-110 178
l67 41l110 -178zM908 560l-111 -178l-66 41l110 178z" />
    <glyph glyph-name="uni4F36" unicode="&#x4f36;" 
d="M62 417q43 29 81 67.5t66 74t44.5 60t16.5 25.5l67 -41q-1 -2 -7.5 -12t-17.5 -26.5t-27 -37.5t-36 -44h3v-627h-79v548q-32 -29 -68 -53zM950 380l-69 -37l-110 200h-256v79h303zM281 377l16 20.5t39 55t48 80.5t43 98l74 -27q-20 -57 -47 -107t-52 -87.5t-42.5 -59.5
t-19.5 -24zM732 355l-48 -62l-158 123l48 62zM339 266h531v-104l-213 -179l146 -54l-27 -74l-378 141l28 74l146 -55l205 172h-438v79z" />
    <glyph glyph-name="uni4F38" unicode="&#x4f38;" 
d="M179 417q-36 -34 -76 -64l-48 62q46 36 86.5 74.5t70 71t46.5 54l17 21.5l62 -47q-2 -2 -25.5 -32t-64.5 -74h11v-627h-79v561zM591 -14h-243v521h243v116h79v-116h164v15h78v-447q0 -37 -26 -63t-63 -26h-153v-130h-79v130zM823 65q11 0 11 10v150h-164v-160h153z
M670 429v-125h164v125h-164zM427 429v-125h164v125h-164zM591 65v160h-164v-160h164z" />
    <glyph glyph-name="uni4F3A" unicode="&#x4f3a;" 
d="M51 417q44 29 82 66.5t66 70.5t44.5 56.5l16.5 23.5l66 -43q-1 -1 -7.5 -10t-17 -24t-26 -34.5t-34.5 -40.5v-626h-79v548q-31 -28 -67 -53zM865 618h79v-674q0 -37 -26 -63t-64 -26h-215v79h215q11 0 11 10v581h-502v79h502v14zM339 441h483v-79h-483v79zM801 74
q0 -38 -26 -64t-64 -26h-342v310h353v17h79v-237zM448 63h263q11 0 11 11v141h-274v-152z" />
    <glyph glyph-name="uni4F3B" unicode="&#x4f3b;" 
d="M350 607h545v-79h-237v-363h281v-79h-281v-229h-79v229h-273v79h273v363h-229v79zM161 342q-14 -21 -29.5 -41.5t-32.5 -40.5l-60 51q43 51 78 106t60 101.5t39 77l14 30.5l72 -30q-1 -2 -7.5 -17t-18.5 -39t-28.5 -55.5t-37.5 -66.5h30v-557h-79v481zM552 265l-62 -49
l-150 194l63 48zM835 458l62 -48l-149 -194l-63 49z" />
    <glyph glyph-name="uni4F3C" unicode="&#x4f3c;" 
d="M151 396q-26 -26 -58 -50l-48 63q42 31 78.5 70t63.5 73t42.5 57t15.5 24l66 -41q-2 -3 -23 -35t-58 -77v-624h-79v540zM420 569v-565l94 72l48 -63l-215 -163l-47 63l41 32v624h79zM577 255l-103 279l74 27l103 -279zM829 155l135 -261l-70 -36l-135 260zM790 318
q-5 -61 -23 -118t-42 -108t-51 -93.5t-50.5 -73.5t-39.5 -49.5t-18 -20.5l-57 54q1 0 14.5 16t34.5 44.5t46 67t47.5 84t39 97t21.5 105.5v288h78v-291v-2z" />
    <glyph glyph-name="uni4F3D" unicode="&#x4f3d;" 
d="M546 -61q10 0 10 10v493h-91v-105v-1q-3 -56 -13 -113t-23 -109t-27.5 -97t-26.5 -79t-20.5 -55t-9.5 -23l-72 31q0 1 7.5 19.5t19 51t25.5 75.5t26.5 93t22 103.5t12.5 106.5v102h-80v78h80v99h79v-99h91v14h79v-585q0 -37 -26 -63t-63 -26h-105v79h105zM54 415
q36 28 70.5 65.5t62 71.5t44.5 58t17 25l65 -44q-2 -3 -23 -33t-55 -71h1v-627h-79v541q-27 -27 -54 -48zM855 574h79v-630q0 -37 -26 -63t-63 -26h-174v710h184v9zM855 486h-106v-553h96q10 0 10 11v542z" />
    <glyph glyph-name="uni4F43" unicode="&#x4f43;" 
d="M66 417q44 29 82 66.5t66 70.5t44.5 56.5l16.5 23.5l66 -43q-1 -1 -7 -10t-17 -24t-26.5 -34.5t-34.5 -40.5v-626h-78v548q-17 -14 -33.5 -27.5t-34.5 -25.5zM848 591h78v-640q0 -37 -26 -63t-63 -26h-479v712h490v17zM848 495h-166v-202h166v202zM437 495v-202h166v202
h-166zM437 -60h166v274h-166v-274zM837 -60q11 0 11 11v263h-166v-274h155z" />
    <glyph glyph-name="uni4F46" unicode="&#x4f46;" 
d="M873 122q0 -38 -26 -64t-63 -26h-439v522h449v18h79v-450zM424 475v-125h370v125h-370zM784 111q10 0 10 11v150h-370v-161h360zM275 -49h668v-79h-668v79zM157 402q-18 -17 -38 -32.5t-40 -29.5l-44 66q44 29 84 67.5t70 72.5t48 58l18 24l65 -45q-2 -2 -24.5 -32.5
t-59.5 -70.5v-624h-79v546z" />
    <glyph glyph-name="uni4F4D" unicode="&#x4f4d;" 
d="M322 522h252l-29 84l74 26l38 -110h244v-78h-579v78zM165 404q-17 -14 -33.5 -27.5t-34.5 -25.5l-44 66q44 29 82 66.5t66 70.5t44.5 56.5l16.5 23.5l66 -43q-1 -1 -7 -10t-17 -24t-26.5 -34.5t-34.5 -40.5v-626h-78v548zM367 356l74 27l132 -366l-74 -27zM870 365
q-28 -77 -55 -144.5t-50 -123t-42 -97.5t-31 -68h254v-79h-650v79h309q4 9 21.5 46t43.5 97.5t58.5 141t67.5 175.5z" />
    <glyph glyph-name="uni4F4E" unicode="&#x4f4e;" 
d="M956 -27l-81 -111l-31 17q-3 1 -30.5 21.5t-60 65t-59.5 116t-28 175.5h-235v-238l137 100l46 -64l-273 -199l-46 64l58 42v621h374q22 0 46.5 4.5t48 10.5t42 12t28.5 10l29 -74q-2 0 -18 -6t-41.5 -13t-56.5 -13.5t-61 -8.5v-169h148v-79h-148q1 -62 13 -110t28.5 -83
t35.5 -58.5t34 -37.5l37 51zM431 336h234v168h-234v-168zM57 417q44 29 82 66.5t66 70.5t44 56.5l16 23.5l66 -43q-1 -1 -7 -10t-17 -24t-26 -34.5t-34 -40.5v-626h-79v548q-32 -29 -68 -53zM740 -99l-63 -48l-96 124l62 48z" />
    <glyph glyph-name="uni4F4F" unicode="&#x4f4f;" 
d="M949 -145h-636v78h278v253h-235v78h235v174h-260v79h244l-41 77l69 37l61 -114h267v-79h-262v-174h237v-78h-237v-253h280v-78zM164 -144v548q-32 -29 -68 -53l-43 66q43 29 81 66.5t66 70.5t44.5 56.5l16.5 23.5l66 -43q-1 -1 -7 -10t-17 -24t-26 -34.5t-34 -40.5v-626
h-79z" />
    <glyph glyph-name="uni4F50" unicode="&#x4f50;" 
d="M680 -63h265v-79h-608v79h265v277h-166q-22 -51 -52.5 -103t-72.5 -101l-59 52q43 49 72.5 103t49.5 106t31 99t16 83h-108v78h116v2v87h79v-88v-1h418v-78h-425q-5 -32 -13.5 -72.5t-22.5 -87.5h414v-79h-199v-277zM43 417q44 29 82 66.5t66 70.5t44.5 56.5l16.5 23.5
l66 -43q-1 -1 -7 -10t-17 -24t-26.5 -34.5t-34.5 -40.5v-626h-78v548q-17 -14 -33.5 -27.5t-34.5 -25.5z" />
    <glyph glyph-name="uni4F51" unicode="&#x4f51;" 
d="M150 404q-17 -14 -33.5 -27.5t-34.5 -25.5l-44 66q44 29 82 66.5t66 70.5t44.5 56.5l16.5 23.5l66 -43q-1 -1 -7 -10t-17 -24t-26.5 -34.5t-34.5 -40.5v-626h-78v548zM255 69q44 51 76 103.5t54 102t35 93.5t21 78h-122v78h134q0 5 1 6v86h78v-89v-3h401v-78h-412
q-7 -35 -19 -79t-33 -95h329v12h78v-340q0 -38 -26 -64t-63 -26h-386v283q-18 -29 -39.5 -59.5t-47.5 -59.5zM480 -67h307q11 0 11 11v249h-318v-260z" />
    <glyph glyph-name="uni4F53" unicode="&#x4f53;" 
d="M647 43h108v-78h-108v-106h-79v106h-109v78h109v384h-41l5 -1q-23 -107 -55.5 -205t-62.5 -174.5t-52 -123.5t-24 -51l-70 35q0 1 9.5 21t25 55.5t35 84t40 106t39.5 122t34 131.5h-152v79h269v120h79v-120h268v-79h-268v-384zM936 -98l-74 -25l-173 509l74 26zM325 593
q-2 -2 -22 -31.5t-57 -72.5h2v-632h-79v550q-31 -29 -65 -56l-49 62q46 35 83.5 74t64 72t41.5 54.5l15 21.5z" />
    <glyph glyph-name="uni4F55" unicode="&#x4f55;" 
d="M896 -56q0 -38 -26 -64t-63 -26h-198v79h198q10 0 10 11v566h-472v78h601v-78h-50v-566zM753 111q0 -37 -26 -63t-64 -26h-294v389h305v12h79v-312zM447 100h216q11 0 11 11v221h-227v-232zM172 -144v548q-17 -14 -33.5 -27.5t-34.5 -25.5l-44 66q44 29 82 66.5t66 70.5
t44.5 56.5l16.5 23.5l66 -43q-1 -1 -7 -10t-17 -24t-26.5 -34.5t-34.5 -40.5v-626h-78z" />
    <glyph glyph-name="uni4F57" unicode="&#x4f57;" 
d="M323 587q-2 -3 -24 -32t-60 -70v-633h-79v558q-33 -29 -67 -52l-44 66q44 29 82 65t66.5 67.5t44.5 53t16 22.5zM486 354v-219q77 34 134.5 70.5t96 66.5t57.5 49.5l19 19.5l60 -51q-2 -2 -25 -25.5t-68.5 -59t-113.5 -77t-160 -78.5v-117h333q10 0 10 10v85h79v-85
q0 -37 -26 -63t-63 -26h-412v500h79zM869 547h79v-204h-79v109h-479v-109h-79v187h280l-28 71l73 29l40 -100h193v17z" />
    <glyph glyph-name="uni4F58" unicode="&#x4f58;" 
d="M944 422l-64 -46l-117 160h-450v78h490zM66 428l17 17t41 44.5t51 63t47 74.5l70 -36q-23 -44 -52 -83t-55.5 -69t-45 -48.5t-19.5 -20.5zM234 422h564v-79h-564v79zM932 163h-391v-210q0 -20 -7.5 -36.5t-20 -29.5t-29.5 -20t-36 -7h-87v78h87q6 0 10 4.5t4 10.5v210
h-391v78h861v-78zM86 -67q43 32 76 66.5t55.5 63t33.5 47.5l11 19l70 -37q-1 -2 -14 -23t-37.5 -53.5t-62 -71t-86.5 -75.5zM662 76l60 52l174 -201l-60 -51z" />
    <glyph glyph-name="uni4F59" unicode="&#x4f59;" 
d="M312 621h492l141 -230l-68 -41l-117 193h-448v78zM281 594q-20 -48 -46.5 -92t-51 -78.5t-42.5 -56t-20 -23.5l-59 52q0 1 16.5 20.5t39.5 51t48 72.5t43 84zM479 163h-409v78h409v102h-246v79h564v-79h-239v-102h373v-78h-373v-214q0 -37 -26 -63t-63 -26h-91v78h91
q10 0 10 11v214zM334 99q-1 -2 -14.5 -24.5t-39 -56t-63 -73t-86.5 -76.5l-46 64q44 32 77.5 67.5t56 65.5t34.5 50l12 20zM910 -81l-61 -49l-175 218l62 49z" />
    <glyph glyph-name="uni4F5A" unicode="&#x4f5a;" 
d="M320 601q-1 -2 -7 -12t-16.5 -26.5t-25 -38t-33.5 -44.5h7v-628h-79v550q-16 -15 -33 -28.5t-35 -26.5l-43 66q43 28 79 67t62 74t40.5 59.5t14.5 25.5zM274 396q37 37 63.5 78t43.5 74.5t25 56l8 22.5l75 -24q-1 -2 -8.5 -23.5t-23.5 -53.5h129v104h78v-104h227v-79
h-227v-130v-3l-6 -30h273v-79h-300q-21 -50 -51 -94.5t-62.5 -82.5t-65 -68.5t-58.5 -52t-43.5 -34t-19.5 -14.5l-44 65q1 1 29.5 22t68.5 58t83.5 88.5t75.5 112.5h-235v79h267q3 10 5.5 19.5t4.5 20.5v123h-172q-17 -26 -37.5 -53t-46.5 -53zM945 -88l-58 -53l-241 261
l58 53z" />
    <glyph glyph-name="uni4F5B" unicode="&#x4f5b;" 
d="M756 630v-96h79v19h78v-175q0 -37 -26 -63t-63 -26h-68v-125h103v18h79v-195q0 -37 -26 -63t-63 -26h-49v78h49q10 0 10 11v98h-103v-233h-79v233h-164q-24 -52 -53 -93.5t-54.5 -70.5t-43 -45.5t-19.5 -18.5l-51 60l13 12t32.5 33.5t43 52.5t44.5 70h-123l34 283h146v87
h-161v79h161v96h79v-96h116v96h79zM561 368h116v87h-116v-87zM461 164q13 37 21 80v45h-76l-15 -125h70zM677 289h-116v-51l-1 -3q-3 -19 -7 -36.5t-9 -34.5h133v125zM756 455v-87h68q11 0 11 10v77h-79zM166 -148v548q-17 -14 -33.5 -27.5t-34.5 -25.5l-44 66
q44 29 82 66.5t66 71t44.5 56.5t16.5 24l66 -43q-2 -3 -24.5 -34.5t-60.5 -74.5v-627h-78z" />
    <glyph glyph-name="uni4F5C" unicode="&#x4f5c;" 
d="M321 595q-2 -3 -24.5 -34.5t-60.5 -74.5v-626h-78v547q-17 -14 -33.5 -27.5t-34.5 -24.5l-44 65q44 29 82 66.5t66 71t44.5 56.5t16.5 24zM571 458v-130h320v-79h-320v-167h337v-78h-337v-144h-79v598h-61q-20 -28 -43 -57.5t-52 -58.5l-57 55q40 42 70.5 83.5t51.5 75.5
t32 55t11 22l71 -33q-1 -2 -9 -19t-25 -44h468v-79h-378z" />
    <glyph glyph-name="uni4F5D" unicode="&#x4f5d;" 
d="M170 -148v548q-31 -28 -67 -53l-44 66q44 29 82 66.5t66 71t44.5 56.5t16.5 24l66 -43q-2 -3 -24.5 -34.5t-60.5 -74.5v-627h-79zM434 458q-20 -30 -44 -62t-53 -61l-57 55q37 37 66.5 79t50.5 77t32 58.5t11 24.5l72 -32q-1 -2 -9 -19t-23 -44h377v15h79v-604
q0 -37 -26.5 -63t-63.5 -26h-189v78h189q11 0 11 11v510h-423v3zM796 97q0 -37 -26 -63t-63 -26h-301v359h312v17h78v-287zM485 87h222q11 0 11 10v191h-233v-201z" />
    <glyph glyph-name="uni4F5E" unicode="&#x4f5e;" 
d="M54 413q44 29 82 66.5t66 71t44.5 56.5t16.5 24l66 -43q-2 -3 -24.5 -34.5t-60.5 -74.5v-627h-78v548q-17 -14 -33.5 -27.5t-34.5 -25.5zM891 595v-79h-529v79h529zM324 421h605v-78h-605v78zM835 108q-2 -2 -30 -28.5t-89 -64.5l207 -82l-29 -73l-268 106
q-60 -29 -139.5 -57.5t-182.5 -51.5l-18 76q72 17 130.5 35t106.5 38l-181 72l53 111h-89v79h127l31 67l71 -34l-15 -33h426v-79h-102v-70zM622 52q60 32 94.5 58t48.5 40v39h-283l-33 -69z" />
    <glyph glyph-name="uni4F5F" unicode="&#x4f5f;" 
d="M161 -148v542q-14 -13 -29 -24.5t-32 -22.5l-43 66q44 29 82 66.5t66 71t44.5 56.5t16.5 24l65 -43q-2 -3 -26 -37.5t-65 -79.5v-619h-79zM920 152l-303 121q-66 -29 -144.5 -59t-172.5 -56l-21 76q66 18 124.5 38.5t109.5 41.5l-117 46l29 74l189 -75q70 33 118.5 62
t75.5 47h-384q-22 -29 -48 -59t-57 -58l-53 58q37 34 68.5 72.5t54 71.5t35 55.5l12.5 22.5l70 -37q-1 -2 -8 -14.5t-20 -33.5h346v15h78v-121l-15 -12q-3 -3 -47 -33.5t-128 -74.5l237 -95zM826 99l-17 -77l-374 82l17 77zM363 49l509 -115l-18 -76l-508 115z" />
    <glyph glyph-name="uni4F60" unicode="&#x4f60;" 
d="M313 598q-2 -2 -22 -34.5t-56 -76.5v-633h-79v547q-27 -27 -62 -54l-48 63q44 33 80.5 72.5t63 74t41 57.5t14.5 24zM499 273q-19 -72 -44.5 -135.5t-49 -111t-41 -76t-18.5 -31.5l-66 43l16 26.5t38.5 71.5t46.5 105t42 127zM818 296l136 -363l-73 -27l-136 363z
M590 413h79v-469q0 -38 -26 -64t-64 -26h-123v79h123q11 0 11 11v469zM423 461q-18 -30 -41 -62.5t-52 -64.5l-59 52q37 41 65 84t47 78t28.5 57.5t9.5 23.5l74 -29q-1 -2 -8 -18.5t-20 -42.5h472v-53l-66 -145l-72 32l40 88h-418z" />
    <glyph glyph-name="uni4F63" unicode="&#x4f63;" 
d="M157 410q-16 -14 -33 -27t-35 -25l-43 66q44 29 82 65t66 67.5t44.5 53t16.5 22.5l64 -45q-2 -3 -24 -32t-60 -70v-633h-78v558zM257 -103l14 29.5t30.5 77.5t30 110.5t13.5 129.5v343h516v18h78v-656q0 -37 -26 -63t-63 -26h-108v78h108q11 0 11 11v152h-185v-241h-78
v241h-189q-10 -50 -23.5 -93.5t-26.5 -75.5t-22.5 -51l-10.5 -21l-35 18zM598 180v126h-174v-62q0 -33 -3 -64h177zM861 180v126h-185v-126h185zM861 509h-185v-125h185v125zM424 509v-125h174v125h-174z" />
    <glyph glyph-name="uni4F64" unicode="&#x4f64;" 
d="M43 413q44 29 82 66.5t66 71t44.5 56.5t16.5 24l66 -43q-2 -3 -24.5 -34.5t-60.5 -74.5v-627h-78v548q-17 -14 -33.5 -27.5t-34.5 -25.5zM868 21h78v-76q0 -37 -26 -63t-63 -26h-111v447h-277l-30 -342l154 41l20 -76l-283 -76l-21 76l50 13l48 563h-92v78h622v-78h-451
l-11 -120h271v14h79v-462h32q11 0 11 11v76zM590 236l121 -174l-65 -45l-121 175z" />
    <glyph glyph-name="uni4F65" unicode="&#x4f65;" 
d="M801 621l145 -218l-66 -44l-121 184h-438v78h480zM66 405l17 18t42 48t54.5 70.5t54.5 86.5l69 -38q-27 -50 -58.5 -93t-58 -75.5t-45 -51.5t-19.5 -20l-28 28zM221 408h564v-79h-564v79zM268 260l139 -273l-70 -36l-139 273zM510 -4l-116 257l72 33l116 -258zM824 257
q-1 -2 -11 -28.5t-28.5 -70.5t-44 -102t-58.5 -122h227v-78h-813v78h497q36 69 65 132t49 111t31.5 77t11.5 30z" />
    <glyph glyph-name="uni4F67" unicode="&#x4f67;" 
d="M56 413q44 29 82 66.5t66 71t44.5 56.5t16.5 24l66 -43q-2 -3 -24.5 -34.5t-60.5 -74.5v-627h-79v548q-32 -29 -68 -53zM481 -146v361h78v-361h-78zM946 249h-621v79h156v302h78v-107h309v-79h-309v-116h387v-79zM604 89l45 65l245 -174l-46 -64z" />
    <glyph glyph-name="uni4F69" unicode="&#x4f69;" 
d="M143 400q-32 -29 -68 -53l-43 66q44 29 82 66.5t66 71t44 56.5t16 24l66 -43q-2 -3 -24 -34.5t-60 -74.5v-627h-79v548zM571 329v69h-141v79h362v-79h-142v-69h59v17h79v-340q0 -37 -26 -63t-63 -26h-21v78h21q10 0 10 11v245h-59v-398h-79v398h-63v-332h-78v410h141z
M255 -105q27 46 42 81.5t21.5 66.5t7 61.5t0.5 67.5v40v386h492v18h78v-683h49v-78h-127v664h-413v-307v-39q0 -40 -1 -74.5t-8.5 -70.5t-24.5 -77.5t-48 -95.5z" />
    <glyph glyph-name="uni4F6C" unicode="&#x4f6c;" 
d="M49 414q44 29 82 66.5t66 70.5t44.5 56.5l16.5 23.5l66 -43q-1 -1 -7.5 -10t-17 -24t-26 -34.5t-34.5 -40.5v-626h-79v547q-33 -29 -67 -52zM559 357v109h-188v79h188v74h79v-74h175q11 14 16.5 22t6.5 9l65 -43q-1 -2 -11 -16.5t-29 -38t-47 -54.5t-65 -67h197v-79h-285
q-43 -35 -92.5 -71.5t-107.5 -71.5v-89l363 150l30 -73l-393 -162v-26h340q14 0 14 14v67h79v-67q0 -19 -7.5 -36t-20 -29.5t-29.5 -20t-36 -7.5h-419v234q-20 -11 -41.5 -21.5t-43.5 -21.5l-34 71q79 37 145.5 77.5t123.5 82.5h-231v79h258zM638 466v-104q65 57 107 104
h-107z" />
    <glyph glyph-name="uni4F6F" unicode="&#x4f6f;" 
d="M167 -147v547q-16 -14 -33 -27t-35 -25l-43 66q43 29 81 66.5t66 70.5t44.5 56.5l16.5 23.5l66 -43q-1 -1 -7 -10t-17 -24t-26 -34.5t-34 -40.5v-626h-79zM582 -147v107h-274v78h274v174h-234v79h234v121h-256v79h139l-57 99l68 39l66 -114l-42 -24h199l79 138l68 -39
l-56 -99h128v-79h-257v-121h234v-79h-234v-174h275v-78h-275v-107h-79z" />
    <glyph glyph-name="uni4F70" unicode="&#x4f70;" 
d="M154 401q-32 -29 -68 -53l-44 66q43 28 79.5 65.5t62.5 70.5t40.5 56l14.5 23l68 -39q-1 -1 -6.5 -10t-15.5 -24t-24 -34.5t-32 -41.5h3v-627h-78v548zM626 508l-44 -90h239v17h78v-492q0 -38 -26 -64t-63 -26h-445v565h129l44 90h-213v79h614v-79h-313zM810 -68
q11 0 11 11v182h-378v-193h367zM821 339h-378v-136h378v136z" />
    <glyph glyph-name="uni4F73" unicode="&#x4f73;" 
d="M329 588q-1 -1 -7 -10t-17 -24t-26 -34.5t-34 -40.5v-626h-79v547q-16 -14 -33 -27t-35 -25l-43 66q44 29 82 66.5t65.5 70.5t44 56.5l16.5 23.5zM939 282h-623v79h272v100h-237v78h237v91h79v-91h238v-78h-238v-100h272v-79zM952 -147h-649v79h285v153h-237v79h237v78
h79v-78h238v-79h-238v-153h285v-79z" />
    <glyph glyph-name="uni4F74" unicode="&#x4f74;" 
d="M166 409q-17 -14 -33.5 -27t-34.5 -25l-44 65q44 29 82 66.5t66 71t44.5 56.5t16.5 24l66 -43q-1 -1 -7 -10t-17 -24t-26.5 -34.5t-34.5 -40.5v-626h-78v547zM942 42l11 -78l-74 -10v-106h-78v95l-478 -66l-10 77l79 12v554h-56v79h593v-79h-50v-487zM471 206h330v119
h-330v-119zM471 520v-117h330v117h-330zM801 22v105h-330v-151z" />
    <glyph glyph-name="uni4F76" unicode="&#x4f76;" 
d="M54 414q44 29 82 66.5t66 70.5t44.5 56.5l16.5 23.5l66 -43q-1 -1 -7 -10t-17 -24t-26.5 -34.5t-34.5 -40.5v-626h-78v547q-16 -14 -33 -27t-35 -25zM663 622v-91h268v-79h-268v-106h247v-79h-573v79h248v106h-268v79h268v91h78zM818 190v16h78v-261q0 -37 -26 -63
t-63 -26h-455v334h466zM818 111h-388v-177h377q11 0 11 11v166z" />
    <glyph glyph-name="uni4F7B" unicode="&#x4f7b;" 
d="M160 402q-16 -14 -33 -28t-35 -26l-44 66q43 28 79.5 67t62.5 74t40.5 59.5l14.5 24.5l69 -37q-1 -2 -7 -12t-16.5 -26.5t-25 -38t-33.5 -45.5h6v-627h-78v549zM943 -48q0 -20 -7.5 -36.5t-20 -29.5t-29.5 -20t-36 -7h-205v769h79v-381l193 -120l-42 -67l-151 94v-217
h126q6 0 10 4.5t4 10.5v63h79v-63zM284 -77l7.5 5.5t19.5 16t27.5 25.5t31.5 35q51 65 70 133l-121 -81l-44 66l180 118v387h78v-390q0 -62 -15 -114t-37 -93.5t-48.5 -73.5t-49.5 -54t-39 -33.5t-18 -12.5zM272 484l65 44l99 -147l-66 -44zM908 481l-109 -136l-61 50
l108 136z" />
    <glyph glyph-name="uni4F7C" unicode="&#x4f7c;" 
d="M336 588q-2 -2 -24 -33.5t-60 -74.5h3v-627h-79v551q-34 -31 -71 -56l-44 66q44 29 82 66.5t66 70.5t44.5 56.5l16.5 23.5zM946 446h-627v79h267l-62 64l56 55l102 -105l-14 -14h278v-79zM301 266l19.5 16t46 40.5t53.5 55.5t44 61l69 -37q-20 -36 -50 -71t-59.5 -63
t-51 -45.5t-23.5 -18.5zM890 206l-174 171l56 56l173 -171zM621 153q29 27 52.5 50.5t40.5 41.5t26.5 29l9.5 11l60 -50q-2 -2 -11.5 -13t-26 -29t-39 -41.5t-50.5 -49.5l223 -183l-49 -61l-234 191q-63 -54 -139.5 -105.5t-158.5 -82.5l-27 74q71 26 138.5 71t124.5 94
l-139 114l50 60z" />
    <glyph glyph-name="uni4F7E" unicode="&#x4f7e;" 
d="M158 400q-17 -14 -33.5 -27t-34.5 -25l-44 66q44 29 82 66.5t66 70.5t44.5 56.5l16.5 23.5l66 -43q-1 -1 -7.5 -10t-17 -24t-26 -34.5t-34.5 -40.5v-626h-78v547zM785 615l171 -295l-68 -39l-59 101l5 -429q0 -45 -28.5 -71t-77.5 -26h-96v79h96q20 0 23.5 5t3.5 13v59
h-296l1 -158l-78 -1l-4 490l-28 -40t-31 -41l-62 48q48 63 81.5 119t54.5 99t31 68t10 26l75 -24q-2 -4 -21.5 -55t-67.5 -132h392l-72 125h-208v79h253zM456 333l1 -78h295l-1 78h-295zM754 90l-1 86h-295v-86h296z" />
    <glyph glyph-name="uni4F7F" unicode="&#x4f7f;" 
d="M161 400q-16 -14 -33 -27t-35 -25l-44 66q44 29 82 66.5t66 70.5t44.5 56.5l16.5 23.5l66 -43q-1 -1 -7 -10t-17 -24t-26.5 -34.5t-34.5 -40.5v-626h-78v547zM949 -65l-25 -74l-388 130q-36 -32 -74 -56.5t-69.5 -41t-53 -25t-24.5 -9.5l-27 73q1 0 15 6t36.5 17t51 27.5
t57.5 38.5l-128 43l25 74l170 -57q18 20 32.5 41t24.5 45h-224v268h241v53h-273v78h273v54h79v-54h268v-78h-268v-53h157v13h79v-191q0 -38 -26 -64t-63 -26h-159q-10 -32 -25 -60t-35 -53zM668 357v-108v-3h147q10 0 10 11v100h-157zM589 246v3v108h-162v-111h162z" />
    <glyph glyph-name="uni4F83" unicode="&#x4f83;" 
d="M154 400q-33 -29 -67 -52l-44 66q43 29 81 66.5t66.5 70.5t45 56.5l16.5 23.5l66 -43q-1 -1 -7.5 -10t-17 -24t-26 -34.5t-34.5 -40.5v-626h-79v547zM570 -145v366h79v-366h-79zM943 -56q0 -19 -7.5 -36t-20 -29.5t-29.5 -20t-36 -7.5h-107v380h78v-301h29q6 0 10 4.5
t4 9.5v73h79v-73zM879 374q0 -37 -26 -63t-64 -26h-435v309h446v13h79v-233zM433 363h356q11 0 11 11v141h-367v-152zM267 -81l16.5 11t38.5 32t43.5 52t32.5 73v144h79v-154l-1 -5q-14 -55 -41.5 -96t-55.5 -69t-50 -42t-24 -15z" />
    <glyph glyph-name="uni4F84" unicode="&#x4f84;" 
d="M174 -147v547q-17 -14 -33.5 -27t-34.5 -25l-44 66q44 29 82 66.5t66 70.5t44.5 56.5l16.5 23.5l66 -43q-1 -1 -7 -10t-17 -24t-26.5 -34.5t-34.5 -40.5v-626h-78zM947 -140h-610v78h266v170h-216v78h216v84h78v-84h216v-78h-216v-170h266v-78zM365 609h554v-79h-298
l-141 -166l321 24l-41 69l68 40l112 -188l-68 -40l-26 43l-477 -35v77l149 176h-153v79z" />
    <glyph glyph-name="uni4F88" unicode="&#x4f88;" 
d="M180 -147v547q-16 -14 -33 -27t-35 -25l-43 66q43 29 81 66.5t66 70.5t44.5 56.5l16.5 23.5l66 -43q-1 -1 -7 -10t-17 -24t-26 -34.5t-34 -40.5v-626h-79zM316 -69q67 5 126 16.5t111 27.5l-93 80l51 60l128 -110q88 35 144 70.5t78 52.5v19h-343v3q-32 -23 -69.5 -44.5
t-77.5 -37.5l-29 73q57 23 108.5 58t86.5 64q-48 -12 -101.5 -21t-112.5 -14l-7 78q60 5 113.5 14.5t101.5 21.5l-61 57l53 58l96 -89q79 26 132 52.5t76 40.5v22h-356q-23 -23 -49 -46.5t-57 -43.5l-43 66q37 24 67.5 53.5t53 56t35 44.5l12.5 18l66 -43q-1 -1 -5.5 -8
t-13.5 -19h290v16h78v-159l-17 -12q-2 -2 -22 -14t-56 -30.5t-87 -40t-116 -40.5l32 -33l-7 -7t-17 -15h246v16h79v-150l-13 -12q-2 -2 -21.5 -17.5t-55 -38t-86.5 -49.5t-117.5 -51.5t-148 -44t-176.5 -26.5z" />
    <glyph glyph-name="uni4F89" unicode="&#x4f89;" 
d="M167 -147v547q-16 -14 -33 -27t-35 -25l-43 66q44 29 82 66.5t66 70.5t44.5 56.5l16.5 23.5l66 -43q-1 -1 -7.5 -10t-17.5 -24t-26 -34.5t-34 -40.5v-626h-79zM820 487l131 -139l-57 -54l-72 77v-64h-374v57q-27 -23 -55.5 -44t-60.5 -38l-38 69q48 27 91.5 63t79.5 73
h-119v79h190q25 30 39 49.5t15 19.5l65 -44q-1 -2 -19 -25h293v-79h-109zM720 478l10 9h-157q-21 -23 -45.5 -49t-53.5 -52h333zM315 255h637v-79h-413l-61 -84h313v14h78v-164q0 -37 -26 -63t-63 -26h-311v78h311q11 0 11 11v71h-413v75l64 88h-127v79z" />
    <glyph glyph-name="uni4F8B" unicode="&#x4f8b;" 
d="M53 414q42 28 74.5 65.5t54.5 72t33 59l11 24.5l73 -29q-1 -3 -15 -32.5t-41 -71.5v-649h-78v551q-16 -15 -32.5 -29t-35.5 -27zM718 523h79v-497h-79v497zM713 -64h132q11 0 11 11v673h78v-673q0 -37 -26 -63t-63 -26h-132v78zM267 227q35 40 59.5 86t40 88.5t24 77.5
t11.5 54h-71v79h355v-79h-205q-2 -15 -8 -47.5t-20 -75.5h141v20h78v-181v-4q-14 -65 -45 -119.5t-69.5 -98t-80 -76.5t-76.5 -55t-59 -33.5t-27 -12.5l-32 72q1 0 22 10.5t53.5 31t70.5 50.5t73 70l-102 88l51 60l98 -84q15 25 26.5 52t18.5 58v73h-171q-17 -39 -41 -79
t-56 -77z" />
    <glyph glyph-name="uni4F8D" unicode="&#x4f8d;" 
d="M160 -144v548q-31 -28 -67 -53l-44 66q43 29 81 66.5t66.5 70.5t45 56.5l16.5 23.5l66 -43q-1 -1 -7.5 -10t-17 -24t-26 -34.5t-34.5 -40.5v-626h-79zM942 308h-646v78h284v95h-216v79h216v66h78v-66h216v-79h-216v-95h284v-78zM820 285v-60h110v-79h-110v-206
q0 -37 -26 -63t-64 -26h-137v78h137q11 0 11 11v206h-439v79h439v60h79zM575 -65l-195 125l42 66l195 -124z" />
    <glyph glyph-name="uni4F8F" unicode="&#x4f8f;" 
d="M167 -144v548q-32 -29 -68 -53l-43 66q43 29 81 66.5t66 70.5t44.5 56.5l16.5 23.5l66 -43q-1 -1 -7 -10t-17 -24t-26 -34.5t-34 -40.5v-626h-79zM278 -93q0 1 18 22.5t44 60.5t55.5 94t54.5 121h-121v79h264v145h-181q-16 -21 -34.5 -43t-39.5 -44l-56 55q40 40 68 81
t46 74t26 54l8 21l75 -25q-1 -2 -11 -28t-33 -66h132v114h79v-114h231v-79h-231v-145h264v-79h-264v-346h-79v346h-60q-26 -77 -59 -140.5t-63 -109.5t-51 -72t-23 -28zM949 -107l-70 -35l-145 285l70 35z" />
    <glyph glyph-name="uni4F91" unicode="&#x4f91;" 
d="M163 -142v533q-16 -16 -33 -29.5t-35 -26.5l-44 66q43 28 78 67.5t59.5 75.5t37.5 61.5t13 26.5l72 -34q-2 -3 -20 -36.5t-50 -78.5v-625h-78zM415 273q-22 -33 -49 -69t-62 -73l-58 53q45 49 77.5 95t55 85.5t36 70.5t20.5 49h-113v79h119v59h79v-59h426v-79h-429
q-2 -9 -11 -34.5t-26 -62.5h341v19h78v-463q0 -37 -26 -63t-63 -26h-84v79h84q11 0 11 10v60h-327v-144h-79v414zM821 81v82h-327v-82h327zM821 309h-327v-67h327v67z" />
    <glyph glyph-name="uni4F94" unicode="&#x4f94;" 
d="M55 417q43 29 81 66.5t66 70.5t44.5 56.5l16.5 23.5l66 -43q-1 -1 -7 -10t-17 -24t-26 -34.5t-34 -40.5v-626h-79v548q-32 -29 -68 -53zM295 141q30 28 52.5 60.5t38 60t24 46l8.5 18.5l73 -29q-1 -2 -8.5 -19t-22.5 -44h128v85h78v-85h216v-78h-216v-114h271v-79h-271
v-107h-78v107h-286v79h286v114h-177q-14 -19 -29 -37t-33 -35zM572 583l-123 -145l339 20l-34 62l68 38l102 -181l-69 -38l-24 43l-493 -29v77l174 204z" />
    <glyph glyph-name="uni4F97" unicode="&#x4f97;" 
d="M330 591q-1 -1 -7 -10t-17 -24t-26.5 -34.5t-34.5 -40.5v-626h-78v548q-17 -14 -33.5 -27.5t-34.5 -25.5l-44 66q44 29 82 66.5t66 70.5t44.5 56.5l16.5 23.5zM934 -48q0 -37 -26 -63t-63 -26h-215v78h215q11 0 11 11v556h-442v-647h-78v725h520v18h78v-652zM830 366
h-390v79h390v-79zM810 85q0 -38 -26 -64t-63 -26h-261v299h271v17h79v-226zM538 74h183q10 0 10 11v130h-193v-141z" />
    <glyph glyph-name="uni4F9B" unicode="&#x4f9b;" 
d="M155 -144v548q-32 -29 -68 -53l-43 66q43 29 81 66.5t66 70.5t44.5 56.5l16.5 23.5l66 -43q-1 -1 -7 -10t-17 -24t-26 -34.5t-34 -40.5v-626h-79zM282 -87q30 27 57.5 59.5t48.5 61.5t33.5 49l12.5 20l67 -41q-1 -2 -15 -23.5t-36.5 -52.5t-52 -66t-62.5 -65zM939 116
h-641v79h134v234h-113v79h113v111h79v-111h197v111h78v-111h133v-79h-133v-234h153v-79zM511 195h197v234h-197v-234zM721 61l66 43l138 -213l-66 -42z" />
    <glyph glyph-name="uni4F9D" unicode="&#x4f9d;" 
d="M153 400q-32 -28 -68 -53l-44 66q43 29 79.5 65t62.5 68t40.5 54l14.5 22l68 -40q-2 -3 -21 -32t-54 -69v-625h-78v544zM944 445h-381q-10 -21 -35 -65.5t-67 -101.5l1 -293l153 68l32 -72l-282 -125l-32 72l50 22v234q-18 -19 -37.5 -38t-41.5 -38l-52 59
q45 39 80.5 78.5t63 76.5t47.5 68.5t32 54.5h-180v79h277l-38 65l67 40l62 -105h281v-79zM723 193q36 -65 73 -115.5t66.5 -85.5t48 -53t19.5 -19l-53 -58q-3 3 -37 36.5t-82 96.5t-101.5 154.5t-95.5 209.5l74 26q11 -32 24 -62.5t27 -59.5l182 116l42 -67z" />
    <glyph glyph-name="uni4FA0" unicode="&#x4fa0;" 
d="M166 -144v548q-32 -29 -68 -53l-43 66q43 29 81 66.5t66.5 70.5t45 56.5l16.5 23.5l65 -43q-1 -1 -7 -10t-17 -24t-26 -34.5t-34 -40.5v-626h-79zM946 128h-206l205 -210l-57 -55l-219 226l40 39h-117q-36 -63 -79.5 -111.5t-82 -82.5t-66 -52.5t-30.5 -20.5l-20 34
l-20 34l20 13.5t50.5 39t66.5 62.5t68 84h-198v79h243q15 32 25 67.5t15 74.5v129h-229v78h229v74h79v-74h229v-78h-229v-133v-3q-9 -74 -34 -135h317v-79zM524 277l-67 -41l-103 166l67 41zM825 443l67 -41l-102 -166l-67 41z" />
    <glyph glyph-name="uni4FA3" unicode="&#x4fa3;" 
d="M51 417q44 29 83.5 66.5t70 71t48.5 57t18 24.5l64 -46q-2 -3 -24 -31.5t-59 -69.5v-633h-79v556q-19 -17 -38.5 -32t-40.5 -29zM889 365q0 -38 -26 -64t-63 -26h-442v299h452v14h79v-223zM810 496h-374v-142h364q10 0 10 11v131zM327 227h514v14h79v-289q0 -37 -26 -63
t-63 -26h-504v364zM405 -59h426q10 0 10 11v197h-436v-208z" />
    <glyph glyph-name="uni4FA5" unicode="&#x4fa5;" 
d="M309 283q57 13 110 28t101 32q-23 23 -44 50t-40 60l-107 -13l-9 78l81 10q-14 36 -23 76l77 18q10 -44 27 -85l387 46l10 -78l-357 -42q33 -49 81 -89q59 24 106.5 46t81.5 39.5t52.5 28.5t19.5 11l41 -67q-2 -2 -18 -11.5t-44.5 -24.5t-68.5 -34t-89 -40
q43 -22 80 -32.5t60 -14.5l32 64l71 -35l-57 -113l-26 2q-2 0 -18.5 2t-44 8.5t-62.5 18.5t-74 32q-13 6 -26 14t-27 17q-60 -22 -126 -42t-140 -37zM146 404q-31 -28 -67 -53l-44 66q44 29 82 66.5t66 70.5t44.5 56.5l16.5 23.5l66 -43q-1 -1 -7.5 -10t-17 -24t-26 -34.5
t-34.5 -40.5v-626h-79v548zM277 -82q40 19 68 41t47 44.5t29.5 44t16.5 38.5h-138v78h631v-78h-159v-153h84q10 0 10 10v50h79v-50q0 -37 -26 -63t-63 -26h-163v232h-174q-5 -22 -17 -52.5t-36 -63t-61.5 -65t-94.5 -58.5z" />
    <glyph glyph-name="uni4FA6" unicode="&#x4fa6;" 
d="M181 -144v549q-19 -14 -38.5 -28t-42.5 -27l-39 68q51 29 91 66t67.5 70t42.5 55.5l15 22.5l68 -39q-1 -1 -6.5 -10.5t-16.5 -25t-26.5 -35.5t-35.5 -42v-624h-79zM567 409v221h79v-61h272v-79h-272v-81h149v17h78v-400h-78v304h-353v-304h-79v383h3h76h125zM309 -71
l17 8.5t42.5 23.5t56.5 36t60.5 47t53.5 56.5t36 63.5v122h78v-135l-2 -6q-13 -42 -40.5 -79t-61 -68.5t-69.5 -57t-65.5 -43.5t-50 -28t-22.5 -11zM927 -86l-47 -63l-245 178l47 64z" />
    <glyph glyph-name="uni4FA7" unicode="&#x4fa7;" 
d="M145 400q-13 -12 -26.5 -24t-28.5 -23l-48 62q45 35 80 73t59 69.5t36.5 52.5l12.5 21l69 -37q-2 -2 -21 -34t-55 -77h1v-627h-79v544zM806 528v-516h-78v516h78zM719 -63h125q11 0 11 11v666h78v-666q0 -38 -26 -64t-63 -26h-125v79zM378 46h-78v529h295v15h79v-544h-79
v451h-217v-451zM272 -79q1 0 25.5 21t55.5 59t59.5 92t36.5 121v240h79v-245l-1 -2q-6 -53 -23.5 -99.5t-40 -85t-47.5 -68.5t-46 -51t-35.5 -33t-16.5 -13zM694 -93l-62 -48l-145 184l62 48z" />
    <glyph glyph-name="uni4FA8" unicode="&#x4fa8;" 
d="M787 178v-323h-78v323h78zM517 57q-11 -47 -35.5 -83.5t-50.5 -62t-46.5 -39.5t-22.5 -15l-40 67l15.5 10.5t35.5 30t39 46.5t28 60v107h78v-116zM51 417q43 29 81 66.5t66.5 70.5t44.5 56.5l16 23.5l66 -43q-1 -1 -7 -10t-17 -24t-26 -34.5t-34 -40.5v-626h-79v548
q-32 -29 -68 -53zM950 203l-41 -67l-269 167l26 42h-72q-18 -23 -44.5 -50t-61 -54t-79 -53.5t-98.5 -49.5l-31 73q71 29 121.5 64.5t85.5 69.5h-187v78h254q13 18 18 29v60h-217v78h348q26 0 54 6t51 13.5t38.5 14l15.5 6.5l32 -72q-2 -1 -20 -8t-45 -15.5t-60.5 -15.5
t-65.5 -7h-52v-78l-3 -7l-2 -4h287v-78h-211z" />
    <glyph glyph-name="uni4FA9" unicode="&#x4fa9;" 
d="M143 404q-32 -29 -68 -53l-43 66q43 29 81 66.5t66.5 70.5t44.5 56.5l16 23.5l66 -43q-1 -1 -7 -10t-17 -24t-26 -34.5t-34 -40.5v-626h-79v548zM376 304v79h467v-79h-467zM810 -85l-486 -51v83l130 190h-164v79h638v-79h-378l-127 -184l343 36l-42 72l68 40l121 -206
l-68 -40zM956 424l-67 -40l-94 157h-318v78h363zM273 425l12.5 17.5t31 45.5t39 64.5t35.5 75.5l73 -28q-17 -44 -39 -83.5t-41.5 -70t-34 -49.5t-15.5 -21l-31 24z" />
    <glyph glyph-name="uni4FAA" unicode="&#x4faa;" 
d="M815 181v-330h-79v330h79zM422 -76q-31 -31 -56.5 -49.5t-27.5 -19.5l-42 66q14 9 37.5 28t45.5 43.5t38 52.5t16 56v80h78v-80q0 -88 -89 -177zM58 417q43 29 81 66.5t66.5 70.5t45 56.5l16.5 23.5l65 -43q-1 -1 -7 -10t-17 -24t-26 -34.5t-34 -40.5v-626h-79v548
q-32 -29 -68 -53zM915 155l-292 122q-62 -32 -138 -59t-167 -40l-11 78q62 9 116.5 25t102.5 37l-156 65l30 73l218 -91q51 29 89.5 58t65.5 54h-439v78h237l-29 41l64 46l61 -87h274v-78h-57q-17 -20 -53.5 -54.5t-92.5 -74.5q-7 -5 -15 -10.5t-16 -10.5l238 -99z" />
    <glyph glyph-name="uni4FAC" unicode="&#x4fac;" 
d="M49 388q28 19 52.5 44t45 52t36.5 53t27 47t17 34l6 13l73 -30q-2 -3 -18.5 -39t-48.5 -84v-626h-79v527q-15 -16 -32 -30t-35 -27zM934 382h-79v77h-236q-20 -36 -56.5 -86.5t-93.5 -107.5v-284l151 78l36 -70l-271 -140l-36 70l42 21v255q-21 -17 -43 -33t-47 -32
l-43 66q51 33 92.5 68t75 69.5t58.5 66.5t43 59h-167v-77h-78v155h290q2 4 2 6v67h79v-73h202v20h79v-175zM911 273l-145 -94l157 -275l-68 -39l-273 477l69 39l76 -133l141 91z" />
    <glyph glyph-name="uni4FAE" unicode="&#x4fae;" 
d="M143 383q-12 -11 -24.5 -22t-26.5 -22l-47 64q43 32 76.5 72.5t56 75.5t34 59.5l11.5 24.5l73 -30q-1 -2 -6 -12.5t-14 -28t-22.5 -40.5t-31.5 -48v-627h-79v534zM251 411q40 32 68.5 70.5t47 72t27.5 56.5l9 23l74 -24q0 -5 -19 -49h476v-79h-519q-21 -33 -49 -67.5
t-66 -64.5zM946 149h-66v-205q0 -37 -26 -63t-63 -26h-65v79h65q10 0 10 10v8h-455l18 197h-79v79h86l19 207h411v14h79v-221h66v-79zM450 228h162l-82 57l45 65l147 -104l-12 -18h91v129h-339zM801 149h-358l-11 -118h165l-67 47l45 64l147 -103l-5 -8h84v118z" />
    <glyph glyph-name="uni4FAF" unicode="&#x4faf;" 
d="M160 412q-16 -14 -32.5 -28t-33.5 -28l-48 63q46 35 85 74t67 71t44 53.5l16 21.5l64 -45q-2 -2 -25 -32.5t-62 -74.5h3v-635h-78v560zM769 467l10 64h-398v79h489l-22 -143h98v-79h-633v79h456zM289 220q31 30 52.5 58.5t35 51t19.5 36.5l6 14l74 -28q-1 -2 -5.5 -12.5
t-14.5 -27.5h443v-79h-230v-65l-1 -4q-2 -12 -6 -24h284v-78h-221l222 -141l-42 -66l-254 161l29 46h-62q-46 -59 -135 -121q-29 -20 -56 -36t-48 -28t-34.5 -18.5t-14.5 -6.5l-34 71q18 8 44 22t55 32t59 39.5t56 45.5h-197v78h264q5 9 8 18t5 17v58h-185
q-13 -17 -28 -34.5t-33 -34.5z" />
    <glyph glyph-name="uni4FB5" unicode="&#x4fb5;" 
d="M327 595q-2 -3 -24.5 -34.5t-60.5 -74.5v-634h-78v555q-17 -14 -33.5 -27.5t-34.5 -24.5l-44 65q44 29 82 66.5t66 71t44.5 56.5t16.5 24zM941 145h-79v62h-472v-62h-79v140h551v13h79v-153zM794 397q11 0 11 11v19h-416v79h416v30h-452v79h452v11h79v-218
q0 -37 -26 -63.5t-64 -26.5h-441v79h441zM289 -68q57 8 107 18.5t95 24.5l-107 30l22 76l210 -60q44 19 76.5 37t53.5 32h-343v79h369v11h78v-108l-13 -12q-2 -2 -29 -22.5t-79 -48.5l208 -60l-21 -76l-295 85q-63 -26 -142.5 -48t-178.5 -36z" />
    <glyph glyph-name="uni4FBF" unicode="&#x4fbf;" 
d="M170 -148v561q-15 -14 -31 -28.5t-34 -28.5l-48 63q45 35 80 73t59 69.5t36.5 52.5l12.5 21l69 -37q-2 -2 -18 -29.5t-47 -67.5v-649h-79zM610 123q-21 -40 -53 -81l392 -106l-20 -76l-433 117q-8 -8 -16.5 -15t-17.5 -15q-29 -24 -56.5 -41t-48.5 -28.5t-34 -17
t-14 -5.5l-28 73q17 7 37 18q17 9 39 22.5t47 33.5l-73 19l20 76l122 -32q13 14 24 28.5t22 29.5h-167v345h229v61h-252v78h607v-78h-276v-61h158v15h79v-271q0 -37 -26 -63t-63 -26h-198zM808 201q10 0 10 11v42h-160q-3 -14 -6.5 -26.5t-8.5 -26.5h165zM660 389v-56h158
v56h-158zM431 389v-56h150v56h-150zM560 201q5 14 9 26.5t8 26.5h-146v-53h129z" />
    <glyph glyph-name="uni4FC3" unicode="&#x4fc3;" 
d="M149 413q-15 -14 -31.5 -28.5t-34.5 -28.5l-48 63q46 35 82.5 73t62.5 70.5t40.5 53.5l14.5 21l67 -41q-2 -2 -21 -30.5t-54 -69.5v-644h-78v561zM682 -55h270v-79h-399q-27 0 -51 8.5t-45 21.5t-38.5 29t-30.5 31q-17 -28 -36 -55t-42 -51l-57 54q27 29 49.5 63.5t40 69
t30 67t21 58t12.5 40.5t4 16l76 -18q0 -2 -4 -16t-11 -36.5t-17.5 -52t-25.5 -62.5q9 -13 22 -28t29.5 -28.5t35 -22.5t38.5 -9h51v329h-251v315h470v17h79v-243q0 -37 -26 -63t-63 -26h-131v-97h225v-79h-225v-153zM431 352h382q10 0 10 11v147h-392v-158z" />
    <glyph glyph-name="uni4FC4" unicode="&#x4fc4;" 
d="M888 19l66 -43l-79 -121l-34 24q-2 1 -12 9.5t-25 23.5t-33.5 37.5t-36.5 51.5q-29 -30 -62.5 -61t-70.5 -61l-50 62q42 32 77.5 66.5t66.5 67.5q-20 45 -32.5 100.5t-12.5 121.5v10h-157v-106l88 36l30 -73l-118 -48v-169q0 -37 -26 -63t-63 -26h-88v79h88q11 0 11 10
v136l-132 -54l-30 72l162 67v139h-144v78h144v93q-24 -12 -52 -24.5t-60 -24.5l-27 73q58 22 101.5 45t72 42.5t43 32l14.5 12.5l55 -56q-2 -2 -19 -16.5t-50 -36.5v-140h157v235h79v-235h208v-78h-208v-10q0 -45 7 -83.5t18 -72.5q45 54 69 88.5t25 35.5l66 -42
q-1 -2 -10 -15t-24.5 -34.5t-38 -50t-51.5 -61.5q17 -31 35 -53.5t32 -37.5zM120 398q-13 -11 -27 -22t-30 -21l-43 65q48 32 83 69t57 68.5t32.5 52.5t10.5 22l73 -31q-1 -1 -5.5 -11.5t-14 -27t-24 -38.5t-33.5 -46v-626h-79v546zM827 601q1 -1 8 -12.5t17.5 -27.5
t22.5 -35t23 -36t18.5 -29.5t9.5 -15.5l-66 -42q-2 3 -10 15.5t-19 30t-23.5 36.5t-23 35.5l-17.5 27.5l-7 11z" />
    <glyph glyph-name="uni4FC5" unicode="&#x4fc5;" 
d="M142 401q-16 -14 -33 -27t-35 -25l-43 66q44 29 82 66t66 70t44.5 56l16.5 23l65 -43q-2 -2 -24 -33.5t-60 -73.5v-628h-79v549zM944 -85l-60 -51l-260 302v-219q0 -22 -12.5 -39t-31 -28t-39 -17t-35.5 -6h-65v79h65q8 0 21 5.5t18 10.5v163q-47 -46 -95 -84.5
t-87.5 -67t-65.5 -45t-29 -17.5l-20 34l-20 34l15.5 9.5t40 26t57 40.5t67.5 53t70.5 62t66.5 70v160h-274v79h274v161h79v-161h195l-117 99l50 60l119 -101l-49 -58h96v-79h-294v-104l80 -92q4 4 8.5 8t9.5 9q11 11 26 24t35 30q16 14 32 27t29 23.5t21 17l8 6.5l49 -62
q-19 -15 -41.5 -33t-45 -37.5t-44 -38t-37.5 -33.5zM721 104q0 -1 -0.5 -1t-0.5 -1q0 1 0.5 1t0.5 1zM495 223l-50 -60l-162 137l50 60z" />
    <glyph glyph-name="uni4FCA" unicode="&#x4fca;" 
d="M58 420q44 29 82 66.5t66 71t44.5 56.5t16.5 24l66 -43q-2 -3 -24.5 -34.5t-60.5 -74.5v-634h-79v555q-33 -30 -67 -52zM568 269q-3 -5 -34 -46h205v18h78v-139l-7 -10q-2 -2 -23 -25t-71 -56l218 -79l-27 -74l-282 102q-57 -27 -136 -54t-185 -50l-16 77q70 15 127 32
t103 35l-99 35l27 74l174 -63q52 28 80 50.5t39 33.5v14h-269q-25 -29 -54 -57.5t-61 -52.5l-47 62q37 29 72.5 66.5t62.5 71t43.5 56.5l16.5 23zM801 598l125 -171l-64 -46l-31 43l-498 -41v75l172 177l57 -55l-106 -108l320 26l-39 53zM285 222q34 31 59.5 59.5t42.5 51
t26 36l9 13.5l68 -40q-1 -2 -10.5 -17t-28.5 -39.5t-47.5 -56t-65.5 -65.5zM941 232l-59 -53l-145 161l58 53z" />
    <glyph glyph-name="uni4FCE" unicode="&#x4fce;" 
d="M947 -144h-543v78h66v651v11h333v18h79v-680h65v-78zM548 163h255v142h-255v-142zM803 517h-255v-134h255v134zM548 -66h255v151h-255v-151zM252 502q0 -27 -6.5 -52.5t-17.5 -48.5l43 38l129 -147l-59 -52l-123 141q-17 -32 -38.5 -58t-41 -45.5t-33 -31t-15.5 -12.5
l-24 32l-23 31q13 10 35.5 31.5t43.5 49t36.5 60t15.5 64.5v117h78v-117zM59 -118l-23 31q20 15 44 38t45 48.5t35 51.5t14 48v155h78v-155q0 -40 -20 -78l39 34l129 -147l-59 -52l-122 140q-17 -29 -39 -53.5t-42 -44t-35.5 -32t-19.5 -16.5z" />
    <glyph glyph-name="uni4FCF" unicode="&#x4fcf;" 
d="M142 407q-17 -14 -33.5 -27.5t-34.5 -24.5l-44 65q44 29 82 66.5t66 71t44.5 56.5t16.5 24l66 -43q-2 -3 -24.5 -34.5t-60.5 -74.5v-626h-78v547zM822 -64q10 0 10 11v65h-410v-149h-78v537h248v230h78v-230h162v12h79v-465q0 -38 -26 -64t-63 -26h-106v79h106zM422 321
v-70h410v70h-410zM832 90v82h-410v-82h410zM450 422l-109 144l62 48l109 -144zM922 566l-109 -144l-63 48l109 144z" />
    <glyph glyph-name="uni4FD0" unicode="&#x4fd0;" 
d="M48 420q43 28 76.5 65t56.5 69.5t35.5 55.5l12.5 23l71 -34q-2 -2 -17.5 -31t-45.5 -70h1v-642h-79v553q-15 -14 -32 -28t-36 -26zM797 -13h-78v530h78v-530zM933 -53q0 -38 -26 -64t-63 -26h-121v79h121q11 0 11 11v663h78v-663zM622 283l56 -402l-78 -11l-55 402z
M524 514v-105h144v-79h-144v-469h-79v469h-14q-4 -31 -11.5 -82t-18.5 -114t-26.5 -134.5t-34.5 -143.5l-76 21q18 66 32.5 133t25.5 127.5t18.5 110.5t11.5 82h-51v79h144v105h-132v78h216q20 0 40 5.5t36.5 11.5t27.5 11.5l11 5.5l38 -69q-1 -1 -15 -7.5t-35.5 -14.5
t-48.5 -14.5t-54 -6.5h-5z" />
    <glyph glyph-name="uni4FD1" unicode="&#x4fd1;" 
d="M51 420q44 29 82 66.5t66 71t44 56.5t16 24l66 -43q-2 -3 -24 -34.5t-60 -74.5v-626h-79v547q-16 -14 -33 -27.5t-35 -24.5zM853 -68q11 0 11 11v51h-187v-120h-79v120h-192v-134h-79v513h214l-85 67l49 62l88 -70l170 92h-416v79h570v-85l-257 -139l7 -6h197v14h78v-444
q0 -37 -26 -63t-63 -26h-82v78h82zM864 294h-187v-75h187v75zM406 294v-75h192v75h-192zM598 73v68h-192v-68h192zM864 73v68h-187v-68h187z" />
    <glyph glyph-name="uni4FD7" unicode="&#x4fd7;" 
d="M166 402q-33 -32 -72 -63l-49 61q52 42 92.5 84t68 76t42.5 55.5l15 21.5l67 -42q-2 -2 -23 -33t-62 -78v-630h-79v548zM766 194h79v-246q0 -38 -26 -64t-63 -26h-364v322h374v14zM766 102h-295v-165h285q10 0 10 11v154zM557 585q-2 -2 -19 -27t-47 -60.5t-70.5 -76.5
t-87.5 -75l-46 63q43 31 80 69.5t64.5 71.5t43.5 55.5l16 22.5zM895 358l-203 218l57 53l204 -218zM275 188q40 38 72.5 78t55.5 72.5t35.5 54l12.5 21.5l69 -38q-1 -2 -15 -25t-38.5 -58.5t-59.5 -78t-79 -83.5zM790 402l171 -208l-60 -50l-148 180h-217v78h254z" />
    <glyph glyph-name="uni4FD8" unicode="&#x4fd8;" 
d="M169 -148v529q-16 -15 -33 -29t-35 -26l-43 66q29 19 55.5 44.5t49 52t41.5 52.5t32.5 47t21 33.5t7.5 13.5l69 -37q-2 -4 -25 -42t-61 -88v-616h-79zM369 434l60 51l85 -98l-59 -52zM539 433l60 52l84 -98l-60 -51zM911 567q-2 -1 -18.5 -10t-44 -19.5t-63.5 -19.5
t-76 -9h-356v78h356q32 0 61 7.5t51 16t35.5 16l13.5 7.5zM580 -62q11 0 11 10v90h-282v78h282v55l131 75h-371v79h358l-10 9l136 159l60 -52l-100 -116h101v-69l-227 -131v-9h277v-78h-277v-90q0 -37 -26 -63t-63 -26h-110v79h110z" />
    <glyph glyph-name="uni4FDA" unicode="&#x4fda;" 
d="M160 -144v548q-31 -28 -67 -53l-44 66q44 29 82 66.5t66 70.5t44.5 56.5l16.5 23.5l66 -43q-1 -1 -7.5 -10t-17 -24t-26 -34.5t-34.5 -40.5v-626h-79zM940 -140h-641v79h282v95h-222v78h222v75h-236v408h471v13h79v-331q0 -38 -26 -64t-64 -26h-146v-75h222v-78h-222v-95
h281v-79zM805 266q11 0 11 11v73h-157v-84h146zM816 516h-157v-87h157v87zM424 516v-87h157v87h-157zM581 266v84h-157v-84h157z" />
    <glyph glyph-name="uni4FDC" unicode="&#x4fdc;" 
d="M167 -144v548q-32 -29 -68 -53l-43 66q43 29 81 66.5t66 70.5t44.5 56.5l16.5 23.5l66 -43q-1 -1 -7 -10t-17 -24t-26 -34.5t-34 -40.5v-626h-79zM460 87h333v17h79v-160q0 -37 -26 -63t-63 -26h-258v79h258q10 0 10 10v65h-439l42 139h-109v79h659v-79h-468zM663 630
v-45h163v13h79v-251q0 -37 -26 -63t-63 -26h-463v327h232v45h78zM432 506v-36h153v36h-153zM432 336h153v56h-153v-56zM816 336q10 0 10 11v45h-163v-56h153zM663 506v-36h163v36h-163z" />
    <glyph glyph-name="uni4FDD" unicode="&#x4fdd;" 
d="M48 417q44 29 82 66.5t66 70.5t44.5 56.5l16.5 23.5l66 -43q-1 -1 -7 -10t-17 -24t-26.5 -34.5t-34.5 -40.5v-630h-78v552q-17 -14 -33.5 -27.5t-34.5 -25.5zM722 96l66 43l151 -232l-65 -43zM949 142h-291v-286h-78v286h-55q-22 -66 -55.5 -118t-65.5 -89t-55.5 -57
t-25.5 -22l-48 63l18.5 15.5t44.5 44.5t54 70t49 93h-151v79h290v63h-228v323h456v23h79v-257q0 -37 -26 -63t-64 -26h-139v-63h291v-79zM430 362h367q11 0 11 11v156h-378v-167z" />
    <glyph glyph-name="uni4FDE" unicode="&#x4fde;" 
d="M840 622l112 -192l-68 -40l-89 153h-512v79h557zM52 419q1 0 16 17.5t36.5 46.5t45 67t41.5 79l72 -32q-20 -46 -46 -87.5t-49.5 -73t-40 -50.5t-17.5 -20l-29 26l-29 26v1zM222 465h565v-79h-565v79zM695 -15h-78v318h78v-318zM883 -59q0 -37 -26 -63t-63 -26h-108v78
h108q10 0 10 11v401h79v-401zM454 -70q11 0 11 11v47h-257v-135h-79v392h-1v79h337v13h79v-396q0 -37 -26 -63t-64 -26h-91v78h91zM208 245v-49h257v49h-257zM465 67v50h-257v-50h257z" />
    <glyph glyph-name="uni4FDF" unicode="&#x4fdf;" 
d="M167 398q-17 -14 -33.5 -27t-34.5 -25l-44 65q44 29 82 66.5t66 71t44.5 57l16.5 23.5l66 -43q-1 -1 -7.5 -10t-17 -24t-26 -34.5t-34.5 -40.5v-626h-78v547zM303 194q26 31 44.5 60.5t30 53t16.5 38l5 14.5v-2l77 -17q-1 -4 -5 -15.5t-11 -28.5h436v-79h-229v-48
q0 -5 -2 -18t-10 -33h286v-79h-198l200 -117l-39 -68l-242 141l26 44h-83q-36 -41 -102 -87.5t-176 -92.5l-30 72q66 29 113.5 56t79.5 52h-177v79h253q8 11 12 20t6 16q3 8 4 14v1v48h-170q-11 -18 -24.5 -36.5t-30.5 -38.5zM598 580l-121 -117l316 29l-18 36l70 35
l84 -168l-71 -35l-28 56l-473 -44v84l187 180z" />
    <glyph glyph-name="uni4FE1" unicode="&#x4fe1;" 
d="M150 -144v548q-31 -28 -67 -53l-44 66q44 29 82 66.5t66 70.5t44.5 56.5l16.5 23.5l66 -43q-1 -1 -7.5 -10t-17 -24t-26 -34.5t-34.5 -40.5v-626h-79zM360 153h455v15h79v-220q0 -38 -26 -64t-63 -26h-445v295zM438 -63h367q10 0 10 11v127h-377v-138zM317 557h271
l-25 47l70 37l43 -84h261v-78h-620v78zM893 354h-532v78h532v-78zM361 300h532v-79h-532v79z" />
    <glyph glyph-name="uni4FE3" unicode="&#x4fe3;" 
d="M340 591q-1 -1 -7 -10t-17 -24t-26.5 -34.5t-34.5 -40.5v-626h-78v548q-32 -29 -68 -53l-44 66q44 29 82 66.5t66 70.5t44.5 56.5l16.5 23.5zM887 427q0 -38 -26 -64t-63 -26h-421v270h432v15h78v-195zM809 529h-354v-113h343q11 0 11 11v102zM726 47l219 -123l-38 -69
l-255 144l27 48h-60q-18 -24 -43.5 -49.5t-60.5 -51t-81.5 -49t-104.5 -42.5l-23 75q75 24 125.5 55t82.5 62h-193v79h256q7 12 10.5 20.5t5.5 13.5v48h-252v78h578v-78h-248v-59l-1 -5q0 -3 -6 -18h275v-79h-213z" />
    <glyph glyph-name="uni4FE6" unicode="&#x4fe6;" 
d="M660 17l-27 -74l-228 82l26 74zM169 -151v548q-32 -29 -68 -53l-44 66q44 29 82 66.5t66 71t44.5 56.5t16.5 24l66 -43q-2 -3 -24.5 -34.5t-60.5 -74.5v-627h-78zM611 381q-6 -20 -15 -45h354v-78h-391q-11 -19 -23.5 -38.5t-29.5 -39.5h257v49h78v-49h91v-78h-91v-156
q0 -37 -26 -63t-63 -26h-117v79h117q11 0 11 10v156h-335q-48 -40 -111 -74l-36 69q35 19 63.5 39.5t51.5 42.5v1h2q21 20 37.5 39t30.5 39h-190v78h235q5 12 9.5 23t7.5 22h-161v78h176v38h-204v79h204v36h78v-36h317v-79h-317v-38h282v-78h-292z" />
    <glyph glyph-name="uni4FE8" unicode="&#x4fe8;" 
d="M164 -145v546q-16 -14 -32 -27t-33 -24l-44 65q43 29 80 66.5t64.5 71t43.5 56.5t16 24l66 -43q-1 -1 -7 -10t-16.5 -24t-25.5 -34.5t-34 -40.5v-626h-78zM421 98q0 -38 -12.5 -81t-27.5 -79.5t-28.5 -61.5t-14.5 -27l-68 39q7 13 19.5 38t24 55t20 60.5t8.5 56.5v200
h175v218h-179v78h586v-78h-163v-218h163v-79h-503v-121zM595 298h87v218h-87v-218zM422 316l-84 123l65 44l84 -122zM940 439l-84 -123l-65 45l84 122z" />
    <glyph glyph-name="uni4FE9" unicode="&#x4fe9;" 
d="M319 592q-2 -3 -22 -34.5t-56 -75.5h3v-627h-79v548q-29 -28 -67 -53l-44 65q43 29 79.5 66t62.5 70.5t40.5 56.5l14.5 23zM782 420h80v16h79v-493q0 -37 -26 -63t-63 -26h-114v78h114q10 0 10 11v117l-38 -34l-78 90q-16 -39 -35.5 -71.5t-36.5 -57t-29.5 -39
t-13.5 -16.5l-59 53q1 0 21.5 25.5t45 66.5t44.5 93.5t20 108.5v63h-125v-40q0 -35 -11 -79l80 -115l-64 -45l-47 67q-14 -35 -29 -67t-28 -57t-22.5 -40t-10.5 -17l-33 20v-120h-78v571h164v96h-168v78h616v-78h-165v-96zM499 342h-86v-291q15 28 30 61t27.5 66.5
t20.5 65.5t8 58v40zM703 420v96h-125v-96h125zM782 342v-63q0 -36 -8 -74l88 -103v240h-80z" />
    <glyph glyph-name="uni4FEA" unicode="&#x4fea;" 
d="M142 403q-32 -29 -68 -53l-44 65q43 29 79.5 66t62.5 70.5t40.5 56.5l14.5 23l68 -39q-2 -3 -22 -34.5t-56 -75.5h3v-627h-78v548zM936 516h-630v78h630v-78zM393 -146h-78v518v78h210v18h79v-521q0 -23 -8.5 -40t-22 -29t-30 -18t-33.5 -6h-55v78h55q11 0 13 6.5t2 8.5
v113l-72 -17l-56 251l77 17l51 -229v290h-132v-518zM835 -68q11 0 13 6.5t2 8.5v113l-71 -17l-57 251l77 17l51 -229v290h-131v-518h-79v518v78h210v18h79v-521q0 -23 -8.5 -40t-22 -29t-30 -18t-33.5 -6h-55v78h55z" />
    <glyph glyph-name="uni4FED" unicode="&#x4fed;" 
d="M159 -144v548q-32 -29 -68 -53l-43 66q44 29 82 66.5t66 70.5t44.5 56.5l16.5 23.5l66 -43q-1 -1 -7.5 -10t-17 -24t-26 -34.5t-34.5 -40.5v-626h-79zM851 614l113 -203l-69 -38l-90 162h-330v79h376zM268 421l12.5 15t31 41t40 62t41.5 79l71 -33q-21 -47 -45 -86
t-44 -67.5t-34 -45t-15 -17.5l-29 26zM860 318h-489v79h489v-79zM443 256l102 -273l-74 -28l-102 273zM607 20l-86 243l74 26l86 -243zM875 252q-32 -103 -66.5 -183t-59.5 -128h202v-78h-642v78h351q10 17 26 48.5t35 75t39.5 96.5t38.5 114z" />
    <glyph glyph-name="uni4FEE" unicode="&#x4fee;" 
d="M151 -144v540q-26 -24 -57 -45l-43 66q43 28 77 66.5t58 73t36.5 59l12.5 24.5l72 -33q-2 -3 -21.5 -39.5t-55.5 -84.5v-627h-79zM346 -86h-79v576h79v-576zM885 509q-34 -68 -128 -129l196 -74l-28 -73l-256 96q-17 -8 -34.5 -16.5t-36.5 -16.5q-41 -18 -79 -31.5
t-67.5 -23t-47.5 -15t-20 -5.5l-20 76q34 9 88 27t113 44l-92 35l28 73l162 -61q35 19 65 39.5t52 43.5h-274q-17 -26 -40 -53t-52 -53l-53 58q34 31 59 63t41 58.5t23.5 43.5l7.5 17l73 -28q0 -4 -12 -28h257v17h79v-76zM768 233q-2 -1 -25.5 -13.5t-64 -31.5t-95 -40.5
t-118.5 -40.5l-23 75q61 18 113 39t90.5 38.5t60.5 29.5l22 12zM440 57q71 19 136.5 45.5t115.5 50.5t80.5 41t31.5 17l40 -68q-3 -2 -35 -19.5t-84.5 -42t-120 -52t-142.5 -48.5zM397 -69q98 21 186 54t154.5 64.5t105.5 54t40 22.5l42 -66q-4 -2 -45.5 -26t-110.5 -56.5
t-160.5 -66.5t-194.5 -57z" />
    <glyph glyph-name="uni4FEF" unicode="&#x4fef;" 
d="M946 486h-526v-172q30 22 56 50.5t45 53t30 42l11 17.5l67 -41q-2 -2 -18 -27.5t-45 -60.5h3v-495h-78v417q-14 -13 -31 -25l-40 56v-123q0 -53 -10.5 -108.5t-23.5 -102t-24 -77t-12 -33.5l-73 29l10 28t22.5 71t22.5 94.5t10 98.5v386h17v1h248l-20 42l71 34l36 -76
h252v-79zM902 -62q0 -18 -7 -33.5t-18.5 -27.5t-27 -18.5t-33.5 -6.5h-63v78h63q7 0 7 8v347h-228v78h228v96h79v-96h44v-78h-44v-347zM171 -144v552q-16 -15 -32.5 -29.5t-34.5 -26.5l-45 64q39 28 73 65t59 70.5t39.5 57l14.5 23.5l69 -39q-2 -2 -18.5 -29.5t-45.5 -65.5
v-642h-79zM787 60l-67 -41l-101 163l67 41z" />
    <glyph glyph-name="uni4FF1" unicode="&#x4ff1;" 
d="M169 -146v555q-17 -14 -33.5 -27.5t-34.5 -24.5l-44 65q44 29 82 66.5t66 71t44.5 56.5t16.5 24l66 -43q-2 -3 -24.5 -34.5t-60.5 -74.5v-634h-78zM951 100v-79h-135l106 -108l-57 -55l-141 145l19 18h-243q-11 -17 -27 -37.5t-36 -42.5t-43.5 -43t-50.5 -38l-43 66
q30 20 56 45t46 50h-107v79h74v508h430v17h79v-525h73zM799 407h-352v-43h352v43zM447 285v-54h352v54h-352zM447 529v-43h352v43h-352zM447 100h352v52h-352v-52z" />
    <glyph glyph-name="uni4FF3" unicode="&#x4ff3;" 
d="M157 409q-15 -14 -31 -26.5t-33 -24.5l-44 65q42 29 79 66.5t64 71t43 57l16 23.5l67 -42q-2 -3 -23.5 -34.5t-59.5 -74.5v-627h-78v546zM755 517h192v-79h-192v-135h174v-78h-174v-170h192v-79h-192v-122h-79v776h79v-113zM488 -146v122h-192v79h192v170h-174v78h174
v135h-192v79h192v113h79v-776h-79z" />
    <glyph glyph-name="uni4FF5" unicode="&#x4ff5;" 
d="M139 423l-32 -22t-33 -21l-39 68q42 24 78 55t63 58.5t42.5 46.5l15.5 19l62 -47q-2 -2 -22.5 -27.5t-56.5 -60.5v-628h-78v559zM910 136l40 -67l-103 -62q20 -21 41 -41t45 -37l-46 -63q-45 33 -83 72t-68 79t-53 77.5t-38.5 66.5t-24 48t-9.5 21l1 1h-76
q-10 -17 -26.5 -42t-41.5 -55h22v-172l123 39l24 -74l-232 -76l-24 75l30 10v136q-45 -47 -105 -92l-48 63q71 53 115.5 102.5t69.5 85.5h-149v78h280v44h-231v79h231v59h-255v79h255v54h79v-54h255v-79h-255v-59h231v-79h-231v-44h280v-78h-236q13 -27 37.5 -70.5
t61.5 -92.5z" />
    <glyph glyph-name="uni4FF8" unicode="&#x4ff8;" 
d="M157 407q-33 -30 -67 -52l-44 65q44 29 82 66.5t66 71t44.5 56.5t16.5 24l66 -43q-2 -2 -6 -9h257v44h78v-44h285v-78h-285v-39h257v-78h-275q-5 -10 -10 -21t-13 -23h326v-79h-129l154 -127l-49 -61l-64 53v-43h-184v-83h265v-78h-265v-69h-79v69h-265v78h265v83h-184
v48q-44 -33 -99 -66l-41 67q57 35 100.5 67.5t75.5 61.5h-168v79h244q10 12 17.5 23t13.5 21h-204v78h233v39h-262v71q-11 -15 -29.5 -39.5t-44.5 -53.5v-626h-79v547zM548 268q-20 -23 -46.5 -48t-60.5 -51h143v73h79v-73h139l-105 86l10 13h-159z" />
    <glyph glyph-name="uni4FFA" unicode="&#x4ffa;" 
d="M159 -144v547q-16 -14 -33 -27t-35 -25l-43 66q44 29 82 66.5t66 70.5t44.5 56.5l16.5 23.5l65 -43q-1 -1 -7 -10t-17 -24t-26 -34.5t-34 -40.5v-626h-79zM650 -7v-56h220l1 1v61h79v-61q0 -33 -23.5 -56.5t-56.5 -23.5h-299v135h-212v290q-13 -8 -25 -14.5t-26 -14.5
l-37 70q60 32 108.5 66.5t86.5 68.5h-150v79h228q36 42 53 68t17 27l70 -37q-2 -2 -11 -17.5t-28 -40.5h293v-79h-128l153 -117l-48 -63l-60 46v-252q0 -33 -23.5 -56.5t-56.5 -23.5h-125zM775 72q1 0 1 1v44h-126v-45h125zM650 196h126v55h-126v-55zM571 251h-134v-55h134
v55zM579 459q-29 -30 -65.5 -63t-84.5 -67h142v57h79v-57h126v17h52l-148 113h-101zM571 72v45h-134v-45h134z" />
    <glyph glyph-name="uni4FFE" unicode="&#x4ffe;" 
d="M155 403q-16 -14 -33 -27t-35 -25l-43 66q43 29 81 66.5t66 70.5t44.5 56.5l16.5 23.5l66 -43q-1 -1 -7 -10t-17 -24t-26 -34.5t-34 -40.5v-626h-79v547zM717 16h221v-79h-221v-81h-78v81h-360v79h67l-6 12q1 0 17 8.5t40 24t52 37.5t53 50h-157v397h111l50 83l67 -41
l-25 -42h269v13h78v-321q0 -37 -26 -63t-63 -26h-206q-26 -42 -61 -75t-68 -57h168v110h78v-110zM806 226q11 0 11 11v70h-172v-11q0 -39 -10 -70h171zM817 466h-172v-81h172v81zM424 466v-81h142v81h-142zM552 226q14 34 14 70v11h-142v-81h128z" />
    <glyph glyph-name="uni500C" unicode="&#x500c;" 
d="M866 573h79v-144h-79v44h-460v-44h-79v123h248l-23 49l71 33l39 -82h204v21zM322 594q-2 -2 -21 -34t-54 -77h10v-627h-78v552q-14 -14 -29.5 -27.5t-32.5 -27.5l-49 62q44 35 78.5 73t58 69.5t36 52.5l12.5 21zM450 171v-59h363v29h79v-192q0 -37 -26.5 -63t-63.5 -26
h-431v540h416v21h78v-161q0 -37 -26 -63t-63 -26h-326zM450 321v-71h326q11 0 11 10v61h-337zM450 33v-95h352q11 0 11 11v84h-363z" />
    <glyph glyph-name="uni500D" unicode="&#x500d;" 
d="M150 405q-15 -14 -31.5 -28.5t-33.5 -28.5l-49 62q46 37 84.5 76t66 72t43 54t15.5 22l65 -44q-2 -3 -24.5 -33t-60.5 -75h4v-627h-79v550zM869 -50q0 -37 -26.5 -63t-63.5 -26h-418v316h429v20h79v-247zM439 -61h340q11 0 11 11v149h-351v-160zM336 563h246l-20 46
l72 31l33 -77h255v-78h-586v78zM788 317h158v-79h-644v79h155l-62 120l69 36l71 -136l-40 -20h203l86 157l69 -38z" />
    <glyph glyph-name="uni500F" unicode="&#x500f;" 
d="M47 409q43 29 81 68t66 74t44.5 60t16.5 26l67 -41q-2 -3 -24.5 -37t-60.5 -80v-625h-78v543q-17 -14 -33.5 -27.5t-34.5 -25.5zM282 -83v555h78v-555h-78zM903 506q-20 -43 -53 -77.5t-73 -62.5l167 -63l-27 -74l-227 85q-50 -24 -98.5 -41t-88 -28t-65 -16t-29.5 -5
l-6 39l-7 38q1 0 17 3.5t41.5 9.5t59 16t70.5 24l-107 40l27 74l181 -68q35 20 66.5 44.5t54.5 53.5h-302q-12 -20 -26.5 -42t-33.5 -45l-62 48q28 35 47.5 66.5t30.5 54.5q13 27 21 50l75 -23q-1 -1 -3.5 -9t-8.5 -22h284v18h79v-80zM384 -70q83 34 130.5 72t71.5 71h-180
v78h218v98h79v-98h67l-60 36l41 68l128 -77l-16 -27h67v-78h-251q-12 -23 -32 -50t-51.5 -55.5t-76 -57t-105.5 -53.5zM730 63l209 -136l-43 -66l-209 136z" />
    <glyph glyph-name="uni5012" unicode="&#x5012;" 
d="M816 542v-547h-79v547h79zM728 -62h125q11 0 11 10v660h79v-660q0 -37 -26 -63t-64 -26h-125v79zM143 407q-15 -14 -31.5 -28.5t-33.5 -28.5l-48 63q45 35 82 73.5t62.5 71.5t40 54.5l14.5 21.5l67 -40q-2 -2 -20.5 -31.5t-53.5 -71.5v-637h-79v553zM279 -65l172 29v130
h-136v79h136v91h79v-91h137v-79h-137v-117l159 27l13 -77l-410 -69zM303 596h375v-79h-171l-97 -154l157 19l-27 62l73 31l74 -174l-72 -31l-16 37l-289 -36v81l104 165h-111v79z" />
    <glyph glyph-name="uni5014" unicode="&#x5014;" 
d="M156 403q-17 -14 -33.5 -27t-34.5 -25l-44 66q44 29 82 66.5t66 70.5t44.5 56.5l16.5 23.5l66 -43q-1 -1 -7 -10t-17 -24t-26.5 -34.5t-34.5 -40.5v-626h-78v547zM857 -138v11h-423v182h79v-103h130v174h-190v175h79v-96h111v131h79v-131h111v96h79v-200h-79v25h-111
v-174h135v103h79v-193h-79zM271 -117l10 28t22 78t22 120t10 155v347h517v19h78v-176q0 -38 -26 -64t-63 -26h-427v-100q0 -91 -10.5 -166t-23.5 -128.5t-24 -84t-12 -33.5l-37 15zM414 533v-90h427q11 0 11 11v79h-438z" />
    <glyph glyph-name="uni5018" unicode="&#x5018;" 
d="M176 -150v548q-32 -29 -68 -53l-43 66q43 29 81 66.5t66.5 70.5t45 56.5l16.5 23.5l65 -43q-2 -2 -24 -33.5t-60 -75.5v-626h-79zM938 -57q0 -37 -26 -63t-64 -26h-116v79h116q11 0 11 10v382h-449v-468h-78v546h263v224h79v-224h185v27h79v-487zM803 61q0 -37 -26 -63
t-63 -26h-248v297h259v22h78v-230zM725 190h-180v-140h169q11 0 11 11v129zM537 469l-64 -46l-105 145l64 46zM901 568l-105 -145l-64 46l106 145z" />
    <glyph glyph-name="uni5019" unicode="&#x5019;" 
d="M139 399q-26 -26 -56 -50l-49 62q41 32 74.5 70.5t57 72t36 56t12.5 23.5l70 -36q-1 -3 -19 -34t-50 -75h3v-635h-79v546zM261 470h78v-526h-78v526zM944 70h-216l214 -149l-45 -64l-218 151l43 62h-60q-32 -54 -76 -93.5t-85 -65t-71.5 -39t-33.5 -14.5l-27 74q1 0 21 9
t49.5 26t63.5 42.5t63 60.5h-180v78h226q4 11 7 21t5 21v48h-154q-11 -17 -24 -33t-28 -32l-57 54q24 25 42 52t30 49.5t18.5 37l6.5 14.5l73 -27q0 -3 -16 -37h383v-78h-196v-55v-3q-2 -8 -3.5 -16t-3.5 -16h249v-78zM752 475l19 58h-336v78h445l-45 -136h98v-79h-547v79
h366z" />
    <glyph glyph-name="uni501A" unicode="&#x501a;" 
d="M278 314h662v-79h-51v-294q0 -37 -26 -63t-64 -26h-266v79h266q11 0 11 10v294h-532v79zM683 590q-1 -2 -8 -12t-21 -26h266v-79h-130l142 -75l-37 -69l-244 129l8 15h-85q-45 -38 -109.5 -77t-150.5 -66l-24 75q44 14 81 31t69 37h-126v79h230q37 34 55 57.5t19 23.5z
M319 591q-1 -1 -7.5 -10t-17.5 -24t-26 -34.5t-34 -40.5v-626h-79v547q-16 -14 -33 -27t-35 -25l-43 66q43 29 81 66.5t66.5 70.5t45 56.5l16.5 23.5zM740 53q0 -37 -26 -63t-63 -26h-314v228h325v17h78v-156zM416 42h235q11 0 11 11v60h-246v-71z" />
    <glyph glyph-name="uni501C" unicode="&#x501c;" 
d="M873 620h79v-677q0 -37 -26 -63t-63 -26h-117v79h117q10 0 10 10v578h-440v-268q0 -71 -9 -141t-20 -125.5t-20.5 -91t-10.5 -38.5l-38 11l-37 11q0 1 8.5 34t19 86.5t19.5 120t9 133.5v347h519v20zM325 595q-2 -3 -24 -34.5t-60 -74.5v-630h-79v551q-16 -14 -33 -27.5
t-35 -24.5l-43 65q44 29 82 66.5t66 71t44 56.5t16 24zM831 62q0 -37 -26 -63.5t-63 -26.5h-270v237h280v18h79v-165zM752 130h-201v-79h191q10 0 10 11v68zM612 332v49h-133v79h133v42h79v-42h133v-79h-133v-49h160v-78h-399v78h160z" />
    <glyph glyph-name="uni501F" unicode="&#x501f;" 
d="M324 594q-2 -3 -22.5 -37t-56.5 -80v-625h-79v539q-30 -29 -68 -54l-43 65q43 29 79.5 68t63 75t42 61t15.5 26zM792 360h157v-79h-654v79h157v113h-103v79h103v70h79v-70h182v70h79v-70h96v-79h-96v-113zM531 360h182v113h-182v-113zM807 245h79v-293q0 -37 -26 -63
t-63 -26h-437v364h447v18zM438 149v-58h369v58h-369zM797 -59q10 0 10 11v60h-369v-71h359z" />
    <glyph glyph-name="uni5021" unicode="&#x5021;" 
d="M328 590q-2 -3 -24 -31.5t-59 -69.5v-637h-79v560q-36 -33 -78 -61l-44 66q44 29 84 66.5t70.5 71t48.5 57t18 24.5zM895 372q0 -37 -26 -63t-63 -26h-451v309h462v13h78v-233zM434 513v-36h383v36h-383zM806 361q11 0 11 11v26h-383v-37h372zM849 245h78v-297
q0 -37 -26 -63t-63 -26h-515v372h526v14zM402 152v-72h447v72h-447zM838 -62q11 0 11 10v53h-447v-63h436z" />
    </font>
</defs>
</svg>
